<svg width="80" height="50" viewBox="0 0 80 50" fill="none" xmlns="http://www.w3.org/2000/svg">
<path d="M0 14C0 12.8954 0.895431 12 2 12H13.9024L27.8049 25.9024V47C27.8049 48.6569 26.4617 50 24.8049 50H3C1.34315 50 0 48.6569 0 47V14Z" fill="#D5B932"/>
<path d="M0 36.0975H27.8049V47C27.8049 48.6568 26.4617 50 24.8049 50H3C1.34315 50 0 48.6568 0 47V36.0975Z" fill="black" fill-opacity="0.2"/>
<g filter="url(#filter0_d_270_17345)">
<path d="M13.9025 12L27.8049 25.9024H15.9025C14.7979 25.9024 13.9025 25.007 13.9025 23.9024V12Z" fill="black" fill-opacity="0.2" shape-rendering="crispEdges"/>
</g>
<path d="M10.9165 45.3318V39.4197H12.6685V45.3318C12.6685 45.9021 12.5435 46.3923 12.2935 46.8025C12.0435 47.2087 11.7017 47.5212 11.2681 47.74C10.8384 47.9587 10.354 48.0681 9.81494 48.0681C9.25635 48.0681 8.76221 47.9744 8.33252 47.7869C7.90283 47.5994 7.56494 47.3123 7.31885 46.9255C7.07275 46.5349 6.94971 46.0408 6.94971 45.4431H8.71338C8.71338 45.7556 8.75635 46.0037 8.84228 46.1873C8.93213 46.3708 9.05908 46.5017 9.22314 46.5798C9.38721 46.658 9.58447 46.697 9.81494 46.697C10.0376 46.697 10.231 46.6443 10.395 46.5388C10.5591 46.4333 10.686 46.2791 10.7759 46.0759C10.8696 45.8728 10.9165 45.6248 10.9165 45.3318ZM18.9099 45.7185C18.9099 45.5662 18.8864 45.4294 18.8396 45.3083C18.7966 45.1833 18.7146 45.0701 18.5935 44.9685C18.4724 44.863 18.3024 44.7595 18.0837 44.658C17.8649 44.5564 17.5817 44.4509 17.2341 44.3416C16.8474 44.2166 16.4802 44.0759 16.1325 43.9197C15.7888 43.7634 15.4841 43.5818 15.2185 43.3748C14.9567 43.1638 14.7497 42.9197 14.5974 42.6423C14.4489 42.365 14.3747 42.0427 14.3747 41.6755C14.3747 41.3201 14.4528 40.9978 14.6091 40.7087C14.7653 40.4158 14.9841 40.1658 15.2653 39.9587C15.5466 39.7478 15.8786 39.5857 16.2614 39.4724C16.6481 39.3591 17.072 39.3025 17.5329 39.3025C18.1618 39.3025 18.7106 39.4158 19.1794 39.6423C19.6481 39.8689 20.0114 40.1794 20.2692 40.574C20.531 40.9685 20.6618 41.4197 20.6618 41.9275H18.9157C18.9157 41.6775 18.863 41.4587 18.7575 41.2712C18.656 41.0798 18.4997 40.9294 18.2888 40.8201C18.0817 40.7107 17.82 40.656 17.5036 40.656C17.1989 40.656 16.945 40.7029 16.7419 40.7966C16.5388 40.8865 16.3864 41.0095 16.2849 41.1658C16.1833 41.3181 16.1325 41.49 16.1325 41.6814C16.1325 41.8259 16.1677 41.9568 16.238 42.074C16.3122 42.1912 16.4216 42.3005 16.5661 42.4021C16.7106 42.5037 16.8884 42.5994 17.0993 42.6892C17.3103 42.7791 17.5544 42.8669 17.8317 42.9529C18.2966 43.0935 18.7048 43.2517 19.0563 43.4275C19.4118 43.6033 19.7087 43.8005 19.947 44.0193C20.1853 44.238 20.3649 44.4861 20.486 44.7634C20.6071 45.0408 20.6677 45.3552 20.6677 45.7068C20.6677 46.0779 20.5954 46.4099 20.4509 46.7029C20.3063 46.9958 20.0974 47.2439 19.8239 47.447C19.5505 47.6501 19.2243 47.8044 18.8454 47.9099C18.4665 48.0154 18.0427 48.0681 17.5739 48.0681C17.1521 48.0681 16.736 48.0134 16.3259 47.9041C15.9157 47.7908 15.5427 47.6208 15.2067 47.3943C14.8747 47.1677 14.6091 46.8787 14.4099 46.5271C14.2106 46.1755 14.111 45.7595 14.111 45.2791H15.8747C15.8747 45.5447 15.9157 45.7693 15.9978 45.9529C16.0798 46.1365 16.195 46.2849 16.3435 46.3982C16.4958 46.5115 16.6755 46.5935 16.8825 46.6443C17.0935 46.6951 17.3239 46.7205 17.5739 46.7205C17.8786 46.7205 18.1286 46.6775 18.3239 46.5916C18.5231 46.5056 18.6696 46.3865 18.7634 46.2341C18.861 46.0818 18.9099 45.9099 18.9099 45.7185Z" fill="white"/>
<defs>
<filter id="filter0_d_270_17345" x="12.9025" y="12" width="15.9025" height="15.9025" filterUnits="userSpaceOnUse" color-interpolation-filters="sRGB">
<feFlood flood-opacity="0" result="BackgroundImageFix"/>
<feColorMatrix in="SourceAlpha" type="matrix" values="0 0 0 0 0 0 0 0 0 0 0 0 0 0 0 0 0 0 127 0" result="hardAlpha"/>
<feOffset dy="1"/>
<feGaussianBlur stdDeviation="0.5"/>
<feComposite in2="hardAlpha" operator="out"/>
<feColorMatrix type="matrix" values="0 0 0 0 0 0 0 0 0 0 0 0 0 0 0 0 0 0 0.1 0"/>
<feBlend mode="normal" in2="BackgroundImageFix" result="effect1_dropShadow_270_17345"/>
<feBlend mode="normal" in="SourceGraphic" in2="effect1_dropShadow_270_17345" result="shape"/>
</filter>
</defs>
</svg>
