<svg width="80" height="50" viewBox="0 0 80 50" fill="none" xmlns="http://www.w3.org/2000/svg">
<g clip-path="url(#clip0_255_14950)">
<path d="M8.37562 10C13.0013 10 16.7512 13.7488 16.7512 18.3735C16.7512 22.9189 13.128 26.6157 8.61171 26.7411C8.61171 27.1257 8.6287 27.8522 8.84632 28.291C9.14827 28.8994 10.9595 30.0323 12.7357 30.0323H13.3738C13.7748 27.1775 16.2264 24.9805 19.1925 24.9805C22.1466 24.9805 24.591 27.1596 25.0067 29.9976H28.3082C28.7241 27.1596 31.1683 24.9805 34.1224 24.9805C37.3684 24.9805 40 27.6112 40 30.8565C40 34.1017 37.3684 36.7325 34.1224 36.7325C31.1683 36.7325 28.7239 34.5532 28.3082 31.7152H25.0069C24.5911 34.5532 22.1467 36.7325 19.1925 36.7325C16.244 36.7325 13.8029 34.5616 13.3802 31.7314L12.6747 31.7524C11.513 31.7437 10.2857 31.4335 9.29995 30.7637C9.03122 30.5811 8.76648 30.3892 8.4903 30.2074L8.49022 30.589C8.48871 30.7123 8.46646 32.5666 8.46468 34.6254L8.46462 35.0613C8.46545 36.4115 8.47613 37.8027 8.50791 38.8174C8.57764 41.0435 10.3883 42.8401 12.3865 43.2607C12.6462 43.3152 13.0927 43.3222 13.3741 43.2979C13.7758 40.444 16.2271 38.2479 19.1925 38.2479C22.4385 38.2479 25.07 40.8787 25.07 44.1239C25.07 47.3691 22.4385 50 19.1925 50C16.2599 50 13.8295 47.8525 13.3874 45.0447H12.879C9.06084 44.8363 6.68704 41.3343 6.72841 38.4942C6.78067 34.9196 6.7413 31.3436 6.74073 27.7682V26.5863C2.89782 25.826 0 22.4385 0 18.3735C0 13.7488 3.74984 10 8.37562 10ZM19.1925 39.9655C16.8954 39.9655 15.0332 41.8273 15.0332 44.1239C15.0332 46.4206 16.8954 48.2824 19.1925 48.2824C21.4897 48.2824 23.3519 46.4206 23.3519 44.1239C23.3519 41.8273 21.4897 39.9655 19.1925 39.9655ZM19.1925 26.6981C16.8954 26.6981 15.0332 28.5599 15.0332 30.8565C15.0332 33.153 16.8954 35.0148 19.1925 35.0148C21.4897 35.0148 23.3519 33.153 23.3519 30.8565C23.3519 28.5599 21.4897 26.6981 19.1925 26.6981ZM34.1224 26.6981C31.8252 26.6981 29.9631 28.5599 29.9631 30.8565C29.9631 33.153 31.8252 35.0148 34.1224 35.0148C36.4196 35.0148 38.2819 33.153 38.2819 30.8565C38.2819 28.5599 36.4196 26.6981 34.1224 26.6981ZM36.4913 29.1057C36.8185 29.4322 36.8276 29.9568 36.5179 30.294L36.4928 30.3204L33.9445 32.8742C33.6198 33.1997 33.0985 33.2106 32.7606 32.9051L32.7337 32.8797L31.4861 31.6515C31.148 31.3187 31.1437 30.775 31.4766 30.437C31.8011 30.1077 32.3256 30.0952 32.6651 30.4027L32.6914 30.4277L33.3309 31.0569L35.2764 29.1073C35.6115 28.7713 36.1554 28.7708 36.4913 29.1057ZM21.4928 29.0931C21.8201 29.4196 21.8292 29.9442 21.5195 30.2816L21.4944 30.3078L18.9461 32.8616C18.6214 33.1871 18.1001 33.198 17.7622 32.8925L17.7353 32.8671L16.4877 31.639C16.1496 31.3062 16.1453 30.7624 16.4782 30.4244C16.8025 30.0951 17.3272 30.0826 17.6667 30.3902L17.693 30.4151L18.3324 31.0444L20.278 29.0947C20.613 28.7589 21.157 28.7582 21.4928 29.0931ZM8.37562 11.7176C4.69879 11.7176 1.71808 14.6975 1.71808 18.3735C1.71808 22.0494 4.69879 25.0294 8.37562 25.0294C12.0524 25.0294 15.0332 22.0494 15.0332 18.3735C15.0332 14.6975 12.0524 11.7176 8.37562 11.7176ZM7.6829 14.3954C9.08357 15.2369 10.4653 16.1073 11.8283 17.0065C12.9701 17.7597 12.9673 19.1256 11.8127 19.8805C10.4254 20.7883 9.01599 21.6587 7.58483 22.4918C6.41998 23.1698 5.1161 22.3902 5.08446 21.0318C5.06413 20.1564 5.08074 19.2801 5.07959 18.4041C5.07859 17.5518 5.06184 16.6992 5.08245 15.8474C5.11725 14.4024 6.44747 13.6495 7.6829 14.3954ZM6.75958 15.7815V16.386C6.75944 16.6853 6.75944 16.9806 6.7593 17.2726L6.75915 17.8523V18.7087C6.7593 19.3697 6.75958 20.0202 6.76073 20.6708C6.7613 20.977 6.92065 20.9645 7.12682 20.8368C8.31516 20.1003 9.50406 19.3645 10.6935 18.6295C10.8901 18.5083 10.8957 18.3816 10.7029 18.2599C9.4289 17.4571 8.15323 16.6569 6.75958 15.7815Z" fill="#4A7EBF"/>
<path d="M20.8167 44.9811C21.291 44.9811 21.6757 44.5966 21.6757 44.1222C21.6757 43.648 21.291 43.2634 20.8167 43.2634C20.3423 43.2634 19.9576 43.648 19.9576 44.1222C19.9576 44.5966 20.3423 44.9811 20.8167 44.9811Z" fill="#85B3DF"/>
<path d="M17.528 44.9811C18.0023 44.9811 18.387 44.5966 18.387 44.1222C18.387 43.648 18.0023 43.2634 17.528 43.2634C17.0537 43.2634 16.6689 43.648 16.6689 44.1222C16.6689 44.5966 17.0537 44.9811 17.528 44.9811Z" fill="#85B3DF"/>
<path d="M34.1224 48.2823C31.8252 48.2823 29.9631 46.4205 29.9631 44.1239C29.9631 41.8272 31.8252 39.9654 34.1224 39.9654C36.4195 39.9654 38.2819 41.8272 38.2819 44.1239C38.2819 46.4205 36.4195 48.2823 34.1224 48.2823ZM34.1224 38.2478C31.1683 38.2478 28.7239 40.4271 28.3082 43.2651H27.3469C26.9273 43.2651 26.5868 43.6497 26.5868 44.1239C26.5868 44.5982 26.9273 44.9827 27.3469 44.9827H28.3082C28.7239 47.8207 31.1683 49.9999 34.1224 49.9999C37.3684 49.9999 40 47.3691 40 44.1239C40 40.8787 37.3684 38.2478 34.1224 38.2478Z" fill="#85B3DF"/>
</g>
<defs>
<clipPath id="clip0_255_14950">
<rect width="40" height="40" fill="white" transform="translate(0 10)"/>
</clipPath>
</defs>
</svg>
