<svg width="80" height="50" viewBox="0 0 80 50" fill="none" xmlns="http://www.w3.org/2000/svg">
<path fill-rule="evenodd" clip-rule="evenodd" d="M11.867 18C10.0778 18.0013 8.62984 19.434 8.63116 21.1993C8.62984 22.9647 10.0792 24.3974 11.8683 24.3987H15.1055V21.2007C15.1068 19.4353 13.6575 18.0026 11.867 18C11.8683 18 11.8683 18 11.867 18ZM11.867 26.5333H3.23718C1.44801 26.5346 -0.00131876 27.9673 3.61389e-06 29.7327C-0.00264114 31.4981 1.44668 32.9307 3.23586 32.9333H11.867C13.6562 32.932 15.1055 31.4994 15.1042 29.734C15.1055 27.9673 13.6562 26.5346 11.867 26.5333Z" fill="#36C5F0"/>
<path fill-rule="evenodd" clip-rule="evenodd" d="M32.3665 29.7327C32.3678 27.9673 30.9185 26.5346 29.1293 26.5333C27.3402 26.5346 25.8908 27.9673 25.8922 29.7327V32.9333H29.1293C30.9185 32.932 32.3678 31.4994 32.3665 29.7327ZM23.7354 29.7327V21.1993C23.7367 19.4353 22.2887 18.0026 20.4995 18C18.7103 18.0013 17.261 19.434 17.2623 21.1993V29.7327C17.2597 31.4981 18.709 32.9307 20.4982 32.9333C22.2874 32.932 23.7367 31.4994 23.7354 29.7327Z" fill="#2EB67D"/>
<path fill-rule="evenodd" clip-rule="evenodd" d="M20.4982 49.9999C22.2873 49.9986 23.7367 48.5659 23.7353 46.8006C23.7367 45.0352 22.2873 43.6025 20.4982 43.6012H17.261V46.8006C17.2597 48.5646 18.709 49.9973 20.4982 49.9999ZM20.4982 41.4653H29.1293C30.9185 41.464 32.3678 40.0313 32.3665 38.2659C32.3691 36.5005 30.9198 35.0679 29.1306 35.0653H20.4995C18.7103 35.0666 17.261 36.4992 17.2623 38.2646C17.261 40.0313 18.709 41.464 20.4982 41.4653Z" fill="#ECB22E"/>
<path fill-rule="evenodd" clip-rule="evenodd" d="M9.04192e-07 38.266C-0.00132147 40.0314 1.448 41.464 3.23718 41.4654C5.02636 41.464 6.47568 40.0314 6.47436 38.266V35.0667H3.23718C1.448 35.068 -0.00132147 36.5006 9.04192e-07 38.266ZM8.63116 38.266V46.7993C8.62851 48.5647 10.0778 49.9974 11.867 50C13.6562 49.9987 15.1055 48.566 15.1042 46.8006V38.2686C15.1068 36.5032 13.6575 35.0706 11.8683 35.068C10.0778 35.068 8.62983 36.5006 8.63116 38.266Z" fill="#E01E5A"/>
</svg>
