<svg width="81" height="50" viewBox="0 0 81 50" fill="none" xmlns="http://www.w3.org/2000/svg">
<circle cx="12.0038" cy="35.7052" r="9.39376" stroke="#5467FF" stroke-width="2.18778"/>
<path d="M23.9643 49.2127C24.391 49.6404 25.0836 49.6413 25.5113 49.2146C25.939 48.788 25.9399 48.0954 25.5132 47.6676L23.9643 49.2127ZM25.5132 47.6676L19.5277 41.6673L17.9788 43.2123L23.9643 49.2127L25.5132 47.6676Z" fill="#5467FF"/>
<line x1="7.87196" y1="34.0406" x2="16.4684" y2="33.9957" stroke="#5467FF" stroke-width="2.18778"/>
<line x1="7.87196" y1="38.3258" x2="16.4684" y2="38.2808" stroke="#5467FF" stroke-width="2.18778"/>
<g clip-path="url(#paint0_diamond_861_1408_clip_path)" data-figma-skip-parse="true"><g transform="matrix(-0.00106897 0.016569 -0.016569 -0.00106897 25.7507 22.8966)"><rect x="0" y="0" width="816.313" height="816.313" fill="url(#paint0_diamond_861_1408)" opacity="1" shape-rendering="crispEdges"/><rect x="0" y="0" width="816.313" height="816.313" transform="scale(1 -1)" fill="url(#paint0_diamond_861_1408)" opacity="1" shape-rendering="crispEdges"/><rect x="0" y="0" width="816.313" height="816.313" transform="scale(-1 1)" fill="url(#paint0_diamond_861_1408)" opacity="1" shape-rendering="crispEdges"/><rect x="0" y="0" width="816.313" height="816.313" transform="scale(-1)" fill="url(#paint0_diamond_861_1408)" opacity="1" shape-rendering="crispEdges"/></g></g><path d="M25.7507 11.1379C25.7507 11.1379 26.3995 17.1936 28.9266 19.7207C31.4537 22.2478 37.5093 22.8966 37.5093 22.8966C37.5093 22.8966 31.4537 23.5453 28.9266 26.0725C26.3995 28.5996 25.7507 34.6552 25.7507 34.6552C25.7507 34.6552 25.1019 28.5996 22.5748 26.0725C20.0477 23.5453 13.9921 22.8966 13.9921 22.8966C13.9921 22.8966 20.0477 22.2478 22.5748 19.7207C25.1019 17.1936 25.7507 11.1379 25.7507 11.1379Z" data-figma-gradient-fill="{&#34;type&#34;:&#34;GRADIENT_DIAMOND&#34;,&#34;stops&#34;:[{&#34;color&#34;:{&#34;r&#34;:1.0,&#34;g&#34;:0.83333331346511841,&#34;b&#34;:0.0,&#34;a&#34;:1.0},&#34;position&#34;:0.0},{&#34;color&#34;:{&#34;r&#34;:1.0,&#34;g&#34;:0.59966683387756348,&#34;b&#34;:0.23012846708297729,&#34;a&#34;:1.0},&#34;position&#34;:1.0}],&#34;stopsVar&#34;:[{&#34;color&#34;:{&#34;r&#34;:1.0,&#34;g&#34;:0.83333331346511841,&#34;b&#34;:0.0,&#34;a&#34;:1.0},&#34;position&#34;:0.0},{&#34;color&#34;:{&#34;r&#34;:1.0,&#34;g&#34;:0.59966683387756348,&#34;b&#34;:0.23012846708297729,&#34;a&#34;:1.0},&#34;position&#34;:1.0}],&#34;transform&#34;:{&#34;m00&#34;:-2.1379311084747314,&#34;m01&#34;:-33.137931823730469,&#34;m02&#34;:43.388618469238281,&#34;m10&#34;:33.137931823730469,&#34;m11&#34;:-2.1379311084747314,&#34;m12&#34;:7.3965601921081543},&#34;opacity&#34;:1.0,&#34;blendMode&#34;:&#34;NORMAL&#34;,&#34;visible&#34;:true}"/>
<g clip-path="url(#paint1_diamond_861_1408_clip_path)" data-figma-skip-parse="true"><g transform="matrix(0.000534482 0.00694828 -0.00694828 0.000534482 41.2506 17.0172)"><rect x="0" y="0" width="1389.37" height="1389.37" fill="url(#paint1_diamond_861_1408)" opacity="1" shape-rendering="crispEdges"/><rect x="0" y="0" width="1389.37" height="1389.37" transform="scale(1 -1)" fill="url(#paint1_diamond_861_1408)" opacity="1" shape-rendering="crispEdges"/><rect x="0" y="0" width="1389.37" height="1389.37" transform="scale(-1 1)" fill="url(#paint1_diamond_861_1408)" opacity="1" shape-rendering="crispEdges"/><rect x="0" y="0" width="1389.37" height="1389.37" transform="scale(-1)" fill="url(#paint1_diamond_861_1408)" opacity="1" shape-rendering="crispEdges"/></g></g><path d="M41.2506 9C41.2506 9 41.693 13.1288 43.416 14.8519C45.1391 16.5749 49.2679 17.0172 49.2679 17.0172C49.2679 17.0172 45.1391 17.4596 43.416 19.1826C41.693 20.9057 41.2506 25.0345 41.2506 25.0345C41.2506 25.0345 40.8083 20.9057 39.0853 19.1826C37.3622 17.4596 33.2334 17.0172 33.2334 17.0172C33.2334 17.0172 37.3622 16.5749 39.0853 14.8519C40.8083 13.1288 41.2506 9 41.2506 9Z" data-figma-gradient-fill="{&#34;type&#34;:&#34;GRADIENT_DIAMOND&#34;,&#34;stops&#34;:[{&#34;color&#34;:{&#34;r&#34;:1.0,&#34;g&#34;:0.90228658914566040,&#34;b&#34;:0.41371968388557434,&#34;a&#34;:1.0},&#34;position&#34;:0.0},{&#34;color&#34;:{&#34;r&#34;:1.0,&#34;g&#34;:0.70138776302337646,&#34;b&#34;:0.42574563622474670,&#34;a&#34;:1.0},&#34;position&#34;:1.0}],&#34;stopsVar&#34;:[{&#34;color&#34;:{&#34;r&#34;:1.0,&#34;g&#34;:0.90228658914566040,&#34;b&#34;:0.41371968388557434,&#34;a&#34;:1.0},&#34;position&#34;:0.0},{&#34;color&#34;:{&#34;r&#34;:1.0,&#34;g&#34;:0.70138776302337646,&#34;b&#34;:0.42574563622474670,&#34;a&#34;:1.0},&#34;position&#34;:1.0}],&#34;transform&#34;:{&#34;m00&#34;:1.0689649581909180,&#34;m01&#34;:-13.896552085876465,&#34;m02&#34;:47.664432525634766,&#34;m10&#34;:13.896552085876465,&#34;m11&#34;:1.0689649581909180,&#34;m12&#34;:9.5344839096069336},&#34;opacity&#34;:1.0,&#34;blendMode&#34;:&#34;NORMAL&#34;,&#34;visible&#34;:true}"/>
<g clip-path="url(#paint2_diamond_861_1408_clip_path)" data-figma-skip-parse="true"><g transform="matrix(0.000534482 0.00374138 -0.00374138 0.000534482 35.9059 33.0518)"><rect x="0" y="0" width="2379.36" height="2379.36" fill="url(#paint2_diamond_861_1408)" opacity="1" shape-rendering="crispEdges"/><rect x="0" y="0" width="2379.36" height="2379.36" transform="scale(1 -1)" fill="url(#paint2_diamond_861_1408)" opacity="1" shape-rendering="crispEdges"/><rect x="0" y="0" width="2379.36" height="2379.36" transform="scale(-1 1)" fill="url(#paint2_diamond_861_1408)" opacity="1" shape-rendering="crispEdges"/><rect x="0" y="0" width="2379.36" height="2379.36" transform="scale(-1)" fill="url(#paint2_diamond_861_1408)" opacity="1" shape-rendering="crispEdges"/></g></g><path d="M35.9059 26.1035C35.9059 26.1035 36.2893 29.6818 37.7826 31.1751C39.2759 32.6684 42.8542 33.0518 42.8542 33.0518C42.8542 33.0518 39.2759 33.4352 37.7826 34.9285C36.2893 36.4217 35.9059 40.0001 35.9059 40.0001C35.9059 40.0001 35.5225 36.4217 34.0293 34.9285C32.536 33.4352 28.9576 33.0518 28.9576 33.0518C28.9576 33.0518 32.536 32.6684 34.0293 31.1751C35.5225 29.6818 35.9059 26.1035 35.9059 26.1035Z" data-figma-gradient-fill="{&#34;type&#34;:&#34;GRADIENT_DIAMOND&#34;,&#34;stops&#34;:[{&#34;color&#34;:{&#34;r&#34;:1.0,&#34;g&#34;:0.90228658914566040,&#34;b&#34;:0.41371968388557434,&#34;a&#34;:1.0},&#34;position&#34;:0.0},{&#34;color&#34;:{&#34;r&#34;:1.0,&#34;g&#34;:0.70138776302337646,&#34;b&#34;:0.42574563622474670,&#34;a&#34;:1.0},&#34;position&#34;:1.0}],&#34;stopsVar&#34;:[{&#34;color&#34;:{&#34;r&#34;:1.0,&#34;g&#34;:0.90228658914566040,&#34;b&#34;:0.41371968388557434,&#34;a&#34;:1.0},&#34;position&#34;:0.0},{&#34;color&#34;:{&#34;r&#34;:1.0,&#34;g&#34;:0.70138776302337646,&#34;b&#34;:0.42574563622474670,&#34;a&#34;:1.0},&#34;position&#34;:1.0}],&#34;transform&#34;:{&#34;m00&#34;:1.0689649581909180,&#34;m01&#34;:-7.4827580451965332,&#34;m02&#34;:39.112815856933594,&#34;m10&#34;:7.4827580451965332,&#34;m11&#34;:1.0689649581909180,&#34;m12&#34;:28.775930404663086},&#34;opacity&#34;:1.0,&#34;blendMode&#34;:&#34;NORMAL&#34;,&#34;visible&#34;:true}"/>
<defs>
<clipPath id="paint0_diamond_861_1408_clip_path"><path d="M25.7507 11.1379C25.7507 11.1379 26.3995 17.1936 28.9266 19.7207C31.4537 22.2478 37.5093 22.8966 37.5093 22.8966C37.5093 22.8966 31.4537 23.5453 28.9266 26.0725C26.3995 28.5996 25.7507 34.6552 25.7507 34.6552C25.7507 34.6552 25.1019 28.5996 22.5748 26.0725C20.0477 23.5453 13.9921 22.8966 13.9921 22.8966C13.9921 22.8966 20.0477 22.2478 22.5748 19.7207C25.1019 17.1936 25.7507 11.1379 25.7507 11.1379Z"/></clipPath><clipPath id="paint1_diamond_861_1408_clip_path"><path d="M41.2506 9C41.2506 9 41.693 13.1288 43.416 14.8519C45.1391 16.5749 49.2679 17.0172 49.2679 17.0172C49.2679 17.0172 45.1391 17.4596 43.416 19.1826C41.693 20.9057 41.2506 25.0345 41.2506 25.0345C41.2506 25.0345 40.8083 20.9057 39.0853 19.1826C37.3622 17.4596 33.2334 17.0172 33.2334 17.0172C33.2334 17.0172 37.3622 16.5749 39.0853 14.8519C40.8083 13.1288 41.2506 9 41.2506 9Z"/></clipPath><clipPath id="paint2_diamond_861_1408_clip_path"><path d="M35.9059 26.1035C35.9059 26.1035 36.2893 29.6818 37.7826 31.1751C39.2759 32.6684 42.8542 33.0518 42.8542 33.0518C42.8542 33.0518 39.2759 33.4352 37.7826 34.9285C36.2893 36.4217 35.9059 40.0001 35.9059 40.0001C35.9059 40.0001 35.5225 36.4217 34.0293 34.9285C32.536 33.4352 28.9576 33.0518 28.9576 33.0518C28.9576 33.0518 32.536 32.6684 34.0293 31.1751C35.5225 29.6818 35.9059 26.1035 35.9059 26.1035Z"/></clipPath><linearGradient id="paint0_diamond_861_1408" x1="0" y1="0" x2="500" y2="500" gradientUnits="userSpaceOnUse">
<stop stop-color="#FFD500"/>
<stop offset="1" stop-color="#FF993B"/>
</linearGradient>
<linearGradient id="paint1_diamond_861_1408" x1="0" y1="0" x2="500" y2="500" gradientUnits="userSpaceOnUse">
<stop stop-color="#FFE669"/>
<stop offset="1" stop-color="#FFB36D"/>
</linearGradient>
<linearGradient id="paint2_diamond_861_1408" x1="0" y1="0" x2="500" y2="500" gradientUnits="userSpaceOnUse">
<stop stop-color="#FFE669"/>
<stop offset="1" stop-color="#FFB36D"/>
</linearGradient>
</defs>
</svg>
