<svg width="80" height="50" viewBox="0 0 80 50" fill="none" xmlns="http://www.w3.org/2000/svg">
<g clip-path="url(#clip0_261_17263)">
<rect x="8" y="13" width="50" height="28" rx="2" fill="#D9D9D9"/>
<rect x="9" y="14" width="48" height="26" rx="1" stroke="black" stroke-opacity="0.61" stroke-width="2"/>
<path d="M9.02033 50.0668C14.0029 50.0668 18.0406 46.0217 18.0406 41.0335C18.0406 36.0452 14.0029 32 9.02033 32C4.03774 32 0 36.0452 0 41.0335C0 46.0217 4.03774 50.0668 9.02033 50.0668Z" fill="#FF9B26" fill-opacity="0.96" stroke="white"/>
<path d="M8.29626 45.9809C8.29626 46.551 8.75843 47.0147 9.32854 47.0147C9.89864 47.0147 10.3607 46.551 10.3607 45.9809C10.3607 45.4108 9.89864 44.9471 9.32854 44.9471C8.75843 44.9471 8.29626 45.4108 8.29626 45.9809Z" fill="white"/>
<path d="M9.35239 43.8845C9.35239 43.8845 9.35239 42.6641 9.84923 42.0679C10.3461 41.4718 10.8864 41.1658 11.402 40.7367C11.9176 40.3076 12.1036 39.4887 12.1036 38.9375C12.1036 37.4181 10.8718 36.1694 9.35239 36.1694C7.83299 36.1694 6.6012 37.4011 6.6012 38.9205V39.4759" stroke="white" stroke-width="2"/>
<path d="M9.02033 50.0668C14.0029 50.0668 18.0406 46.0217 18.0406 41.0335C18.0406 36.0452 14.0029 32 9.02033 32C4.03774 32 0 36.0452 0 41.0335C0 46.0217 4.03774 50.0668 9.02033 50.0668Z" fill="#FF9B26" fill-opacity="0.96" stroke="white"/>
<path d="M8.29626 45.9809C8.29626 46.551 8.75843 47.0147 9.32854 47.0147C9.89864 47.0147 10.3607 46.551 10.3607 45.9809C10.3607 45.4108 9.89864 44.9471 9.32854 44.9471C8.75843 44.9471 8.29626 45.4108 8.29626 45.9809Z" fill="white"/>
<path d="M9.35239 43.8845C9.35239 43.8845 9.35239 42.6641 9.84923 42.0679C10.3461 41.4718 10.8864 41.1658 11.402 40.7367C11.9176 40.3076 12.1036 39.4887 12.1036 38.9375C12.1036 37.4181 10.8718 36.1694 9.35239 36.1694C7.83299 36.1694 6.6012 37.4011 6.6012 38.9205V39.4759" stroke="white" stroke-width="2"/>
<rect x="16" y="21" width="19" height="2" rx="1" fill="#555555"/>
<rect x="16" y="26" width="19" height="2" rx="1" fill="#555555"/>
<rect x="16" y="31" width="19" height="2" rx="1" fill="#555555"/>
</g>
<defs>
<clipPath id="clip0_261_17263">
<rect width="80" height="50" fill="white"/>
</clipPath>
</defs>
</svg>
