<svg width="80" height="50" viewBox="0 0 80 50" fill="none" xmlns="http://www.w3.org/2000/svg">
<path d="M19 50C29.4934 50 38 41.4934 38 31C38 20.5066 29.4934 12 19 12C8.50659 12 0 20.5066 0 31C0 41.4934 8.50659 50 19 50Z" fill="#497C9B"/>
<path d="M26.453 22.5184L28.6215 24.6869C29.3444 25.4096 29.3444 26.4423 28.6215 27.1651L22.8389 33.0511C22.6544 33.2392 22.6429 33.5334 22.8043 33.7348L23.9893 35.078L24.1535 34.9143C24.7731 34.2947 25.8058 34.2947 26.4253 34.9143L31.2785 39.6643C31.8981 40.387 31.8981 41.4197 31.2785 42.0393L30.4524 42.8654C30.1426 43.1752 29.7297 43.2783 29.3166 43.2783C28.9035 43.2783 28.4905 43.1752 28.1807 42.8654L23.3274 38.012C22.7831 37.4677 22.717 36.6045 23.1292 35.9827L21.9096 34.5999C21.2269 33.9148 21.2269 32.8067 21.9096 32.1217L27.6921 26.339C27.8987 26.1325 27.8987 25.7194 27.6921 25.6163L25.6269 23.4478C25.4262 23.2509 25.105 23.2509 24.9042 23.4478L23.9748 22.5184C24.6598 21.8357 25.7679 21.8357 26.453 22.5184ZM25.375 35.4312L25.2895 35.4306C25.1862 35.4306 24.9797 35.4306 24.8764 35.637L24.0503 36.3599C23.8437 36.6697 23.8437 37.0827 24.0503 37.2893L28.9035 42.1425C29.1502 42.4223 29.5863 42.4223 29.8329 42.1425L30.5557 41.3164C30.8655 41.1099 30.8655 40.6968 30.5557 40.387L25.8057 35.637C25.6298 35.4611 25.5288 35.4351 25.375 35.4312Z" fill="#E8FEFF"/>
<path d="M23.2404 22.7536L24.5762 24.0814C24.9893 24.4945 24.9893 25.2174 24.5762 25.7337L14.1469 36.1631C13.7339 36.576 13.011 36.576 12.5981 36.1631L11.1589 34.7319C10.7458 34.3188 10.7458 33.5961 11.1589 33.183L21.5883 22.7536C22.1046 22.2373 22.8275 22.2373 23.2404 22.7536Z" fill="#77B3B2"/>
<path d="M15.9247 19.948L17.7833 18.0893L19.642 19.948L17.7833 21.8068L15.9247 19.948Z" fill="#77B3B2"/>
<path d="M6.63147 29.1383L8.4902 27.2795L10.3488 29.1383L8.4902 30.997L6.63147 29.1383Z" fill="#77B3B2"/>
<path d="M10.2456 25.421L12.1042 23.5622L13.9629 25.421L12.1042 27.2796L10.2456 25.421Z" fill="#77B3B2"/>
<path d="M13.9626 25.421L15.8214 23.5622L17.6801 25.421L15.8214 27.2796L13.9626 25.421Z" fill="#73A9AE"/>
<path d="M10.3485 29.1383L12.2072 27.2795L14.066 29.1383L12.2072 30.997L10.3485 29.1383Z" fill="#73A9AE"/>
<path d="M12.1036 27.2796L13.9624 25.421L15.8211 27.2796L13.9624 29.1383L12.1036 27.2796Z" fill="#F0F9FE"/>
<path d="M17.6798 21.7035L19.5384 19.8448L21.3971 21.7035L19.5384 23.5622L17.6798 21.7035Z" fill="#F0F9FE"/>
<path d="M8.48975 30.997L10.3483 29.1383L12.2071 30.997L10.3483 32.8557L8.48975 30.997Z" fill="#F0F9FE"/>
<path d="M13.9626 21.7035L15.8214 19.8448L17.6801 21.7035L15.8214 23.5622L13.9626 21.7035Z" fill="#77B3B2"/>
<path d="M8.3866 23.5622L10.2453 21.8068L12.1039 23.5622L10.2453 25.4209L8.3866 23.5622Z" fill="#77B3B2"/>
<path d="M14.0657 18.0893L15.9244 16.2306L17.783 18.0893L15.9244 19.948L14.0657 18.0893Z" fill="#77B3B2"/>
<path d="M2.91357 25.421L4.77231 23.5622L6.63104 25.421L4.77231 27.2796L2.91357 25.421Z" fill="#77B3B2"/>
<path d="M8.48975 19.948L10.3483 18.0893L12.2071 19.948L10.3483 21.8068L8.48975 19.948Z" fill="#77B3B2"/>
</svg>
