<svg width="80" height="50" viewBox="0 0 80 50" fill="none" xmlns="http://www.w3.org/2000/svg">
<path d="M37.0093 25C36.3258 25 35.7494 25.2387 35.28 25.7163C34.8102 26.1938 34.5757 26.7722 34.5757 27.4512C34.5757 28.1307 34.8102 28.7036 35.28 29.1702C35.7494 29.6373 36.3258 29.8705 37.0093 29.8705C37.6922 29.8705 38.2686 29.6373 38.7384 29.1702C39.2078 28.7036 39.4428 28.1307 39.4428 27.4512C39.4428 26.7722 39.2078 26.1938 38.7384 25.7163C38.2686 25.2387 37.6922 25 37.0093 25ZM78.7943 36.1958C78.4317 35.3489 77.9684 34.6816 77.404 34.1942C76.8392 33.7072 76.2265 33.3681 75.5662 33.1774C74.9056 32.9869 74.288 32.8915 73.7126 32.8915C73.2862 32.8915 72.8441 32.9398 72.3862 33.036C71.9278 33.1322 71.4858 33.2818 71.0599 33.4843C70.6333 33.6874 70.2394 33.9434 69.8772 34.2533C69.5148 34.563 69.2062 34.9204 68.9504 35.3261C68.652 34.8566 68.3164 34.4668 67.9438 34.157C67.8666 34.0929 67.7883 34.0329 67.7098 33.9738V33.9802C67.2196 33.6072 66.6958 33.3386 66.1377 33.1774C65.477 32.9869 64.8592 32.8915 64.2839 32.8915C63.8575 32.8915 63.4156 32.9398 62.9575 33.036C62.499 33.1322 62.0571 33.2818 61.6313 33.4843C61.2048 33.6874 60.8106 33.9434 60.4486 34.2533C60.0862 34.563 59.7777 34.9204 59.5218 35.3261C59.2232 34.8566 58.8876 34.4668 58.5151 34.157C58.438 34.0929 58.3597 34.0329 58.2811 33.9738C57.9799 33.7475 57.6695 33.5568 57.3485 33.4043C56.9436 33.2122 56.528 33.0786 56.1021 33.0038C55.6757 32.9294 55.2711 32.8915 54.8875 32.8915C54.1415 32.8915 53.4439 33.0201 52.7942 33.2762C52.144 33.5326 51.5742 33.8954 51.0844 34.365L50.4451 32.8915H46.6738V48.6505H51.0844V40.3167C51.0844 39.1128 51.3289 38.2258 51.8195 37.6553C52.3094 37.085 52.863 36.7995 53.4814 36.7995C54.3334 36.7995 54.9834 37.0533 55.4309 37.5601C55.8783 38.0674 56.1021 38.965 56.1021 40.2533V48.6505H58.2811H60.5126V40.2219C60.5126 39.5458 60.5816 38.9862 60.7202 38.5426C60.8587 38.0986 61.0449 37.7502 61.2796 37.4965C61.5139 37.2433 61.78 37.0636 62.0787 36.9579C62.3768 36.8526 62.6748 36.7995 62.9736 36.7995C63.2931 36.7995 63.6072 36.8574 63.9162 36.9737C64.2249 37.0899 64.4966 37.2854 64.7312 37.5601C64.9655 37.8352 65.1518 38.194 65.2906 38.6374C65.429 39.0812 65.4984 39.6198 65.4984 40.2533V48.6505H67.7098H69.909H69.9412V40.2219C69.9412 39.5458 70.0102 38.9862 70.149 38.5426C70.2872 38.0986 70.4737 37.7502 70.7082 37.4965C70.9426 37.2433 71.2087 37.0636 71.5074 36.9579C71.8054 36.8526 72.1034 36.7995 72.4022 36.7995C72.7219 36.7995 73.0358 36.8574 73.345 36.9737C73.6537 37.0899 73.9253 37.2854 74.16 37.5601C74.3942 37.8352 74.5806 38.194 74.7193 38.6374C74.8578 39.0812 74.927 39.6198 74.927 40.2533V48.6505H79.3377V39.4366C79.3377 38.1234 79.1563 37.0433 78.7943 36.1958ZM41.1632 39.8634L40.514 37.6231L39.1428 32.8916H34.6043L36.9969 40.8093L39.3664 48.6505H43.7319L42.4722 44.3413L42.4667 44.3611L41.1632 39.8634ZM24.9598 32.8915L21.7638 44.2976L18.4719 32.8915H13.9335L18.6957 48.6504H24.2568L26.5578 41.057L26.8135 38.8012L27.0371 41.057L29.3383 48.6504H30.5661L31.8257 44.3413L28.6352 32.8915H24.9598ZM9.09272 39.6272C9.63592 39.8392 10.1099 40.0934 10.515 40.3897C11.6865 41.2158 12.2727 42.3914 12.2727 43.9163C12.2727 44.6154 12.1074 45.2722 11.7774 45.8862C11.4468 46.501 10.9944 47.041 10.419 47.5066C9.84368 47.9729 9.17264 48.3381 8.4056 48.6027C7.6386 48.8674 6.81794 49 5.94465 49C5.28393 49 4.63923 48.915 4.01102 48.7458C3.38222 48.5765 2.80153 48.3436 2.26925 48.0468C1.73623 47.7504 1.2729 47.3954 0.878832 46.9824C0.484319 46.5694 0.191716 46.1086 0 45.6003C0.48986 45.3675 1.03322 45.1078 1.62995 44.822C2.22624 44.5359 2.74861 44.2768 3.19604 44.0434C3.38776 44.3613 3.6859 44.6526 4.09091 44.9173C4.49548 45.1823 5.04978 45.3144 5.75279 45.3144C6.47694 45.3144 7.00981 45.145 7.35081 44.8061C7.69138 44.4674 7.86225 44.1497 7.86225 43.8529C7.86225 43.6414 7.74489 43.4453 7.5106 43.2651C7.27587 43.0854 7.00981 42.9424 6.71166 42.8362C6.28522 42.6669 5.93357 42.577 5.65701 42.5662C5.37986 42.5557 5.06028 42.4976 4.69828 42.3914C3.54754 42.1164 2.66871 41.751 2.0615 41.2952C1.45427 40.84 1.01165 40.3793 0.735081 39.9131C0.457931 39.4475 0.303538 39.0027 0.27161 38.5787C0.239681 38.1553 0.22379 37.8162 0.22379 37.5621C0.22379 36.8843 0.372644 36.2386 0.671079 35.624C0.969224 35.0098 1.37934 34.4751 1.9017 34.0194C2.4235 33.5642 3.03071 33.1989 3.72352 32.9234C4.41559 32.6482 5.15606 32.5102 5.94465 32.5102C6.60479 32.5102 7.23359 32.6056 7.83018 32.7962C8.42648 32.9868 8.96968 33.2519 9.46024 33.5905C9.95016 33.9296 10.371 34.3322 10.7226 34.7979C11.0742 35.264 11.3349 35.7827 11.5056 36.3548L8.086 37.4984C7.95818 37.1171 7.69692 36.8104 7.30285 36.5771C6.90834 36.3443 6.48787 36.2277 6.04043 36.2277C5.593 36.2277 5.23042 36.3761 4.9537 36.6725C4.6767 36.9693 4.53834 37.2657 4.53834 37.5621C4.53834 37.9225 4.67116 38.203 4.93796 38.404C5.20389 38.6054 5.49722 38.7485 5.81679 38.8328C6.05094 38.8756 6.28026 38.9124 6.5039 38.9442C6.72755 38.9758 6.9458 39.013 7.1591 39.0553C7.90467 39.225 8.54936 39.4158 9.09272 39.6272Z" fill="#4154FF"/>
</svg>
