<svg width="80" height="50" viewBox="0 0 80 50" fill="none" xmlns="http://www.w3.org/2000/svg">
<g clip-path="url(#clip0_250_13080)">
<path d="M25.029 18.1355C25.1793 17.9594 25.4484 17.933 25.6302 18.0764L29.1552 20.8584C29.3368 21.0018 29.3623 21.2608 29.2119 21.4367L27.7349 23.1654L28.016 23.3872L26.9768 24.6035C26.8213 24.7856 26.5723 24.8675 26.3348 24.8147L25.2046 24.5636L21.9035 28.4273C21.6526 28.721 21.4749 29.0657 21.3843 29.4349L19.3815 37.5883C19.3512 37.7114 19.292 37.8263 19.2084 37.9242L9.39717 49.4075C8.94608 49.9355 8.1385 50.0147 7.59338 49.5845L0.464406 43.958C-0.0807103 43.5279 -0.156935 42.7511 0.294156 42.2231L10.1053 30.7399C10.1889 30.642 10.2947 30.5637 10.4145 30.5114L18.3461 27.0372C18.7053 26.8798 19.0226 26.6452 19.2735 26.3517L22.6888 22.3542L22.1619 21.4932C22.0257 21.2705 22.0493 20.9887 22.2209 20.7877L23.2283 19.6087L23.552 19.864L25.029 18.1355Z" fill="#4DCD61"/>
<path d="M36.351 4.71967L40.5667 8.04683L39.5926 9.39824L37.9713 10.2388L35.8075 12.7714L32.4548 10.1254L34.6186 7.59283L35.1612 5.90081L36.351 4.71967Z" fill="#FF993B"/>
<path d="M36.3511 4.71967L40.5668 8.04683L39.5928 9.39824L37.9714 10.2388L37.9126 10.1924L34.6188 7.59283L35.1613 5.90081L36.3511 4.71967Z" fill="#E18906"/>
<path fill-rule="evenodd" clip-rule="evenodd" d="M4.02209 46.7884L7.58115 49.5973C8.12627 50.0276 8.93385 49.9483 9.38494 49.4204L19.1983 37.9344C19.2819 37.8367 19.3411 37.7216 19.3713 37.5987L21.3752 29.4439C21.4659 29.0746 21.6435 28.7299 21.8944 28.4364L25.1964 24.5717L26.3266 24.8229C26.5641 24.8756 26.8131 24.7937 26.9686 24.6115L28.0081 23.395L27.727 23.1731L29.2042 21.4441C29.3546 21.2681 29.3293 21.0092 29.1475 20.8657L27.3692 19.4622L4.02209 46.7884Z" fill="#00B81D"/>
<path d="M31.2305 13.2263L31.2122 13.2119C31.1214 13.1402 30.9868 13.1534 30.9116 13.2414L27.6699 17.0355C27.5947 17.1235 27.6074 17.253 27.6983 17.3247L27.7165 17.3391C27.8074 17.4108 27.942 17.3976 28.0172 17.3096L31.2589 13.5154C31.334 13.4274 31.3213 13.298 31.2305 13.2263Z" fill="#BDC1C6"/>
<path d="M33.7654 12.8008L33.7471 12.7864C33.6563 12.7147 33.5217 12.728 33.4465 12.8159L30.2048 16.6101C30.1297 16.6981 30.1424 16.8276 30.2332 16.8993L30.2515 16.9137C30.3423 16.9854 30.4769 16.9722 30.5521 16.8842L33.7938 13.09C33.8689 13.002 33.8562 12.8726 33.7654 12.8008Z" fill="#BDC1C6"/>
<path d="M33.7654 12.8008L33.7471 12.7864C33.6563 12.7147 33.5217 12.728 33.4465 12.8159L30.2048 16.6101C30.1297 16.6981 30.1424 16.8276 30.2332 16.8993L30.2515 16.9137C30.3423 16.9854 30.4769 16.9722 30.5521 16.8842L33.7938 13.09C33.8689 13.002 33.8562 12.8726 33.7654 12.8008Z" fill="#BDC1C6"/>
<path d="M41.981 2.03229L41.9627 2.01789C41.8719 1.94619 41.7373 1.9594 41.6621 2.04739L40.174 3.78909C40.0988 3.87709 40.1115 4.00655 40.2024 4.07825L40.2206 4.09265C40.3115 4.16435 40.4461 4.15115 40.5213 4.06315L42.0093 2.32145C42.0845 2.23346 42.0718 2.104 41.981 2.03229Z" fill="#BDC1C6"/>
<path d="M38.5615 -0.0884047L38.539 -0.0919793C38.4228 -0.110452 38.313 -0.0345377 38.2937 0.0775803L37.9109 2.30183C37.8916 2.41395 37.9702 2.51981 38.0864 2.53829L38.1089 2.54186C38.2251 2.56033 38.3349 2.48442 38.3542 2.3723L38.737 0.148051C38.7563 0.0359328 38.6777 -0.0699319 38.5615 -0.0884047Z" fill="#BDC1C6"/>
<path d="M45.2312 5.19252L45.2231 5.17202C45.1817 5.06606 45.0584 5.01259 44.9477 5.05259L42.7521 5.84611C42.6414 5.88611 42.5853 6.00444 42.6268 6.1104L42.6348 6.1309C42.6763 6.23686 42.7996 6.29033 42.9103 6.25033L45.1058 5.45681C45.2165 5.41681 45.2726 5.29848 45.2312 5.19252Z" fill="#BDC1C6"/>
<path d="M11.0788 43.3899L5.59192 39.0594L3.68935 41.2863L9.17625 45.6167L11.0788 43.3899Z" fill="#EBEEF5"/>
<path d="M30.3106 37.3517C30.4402 37.2986 30.5794 37.4135 30.5484 37.5481L30.2731 38.7433C30.2149 38.9953 29.9365 39.1293 29.6929 39.0222L28.6854 38.5794C28.0095 38.2822 27.6614 37.5378 27.8783 36.8539L28.501 34.8908C28.8337 33.8421 27.4378 33.0824 26.7248 33.9241C26.6131 34.0557 26.3925 33.9943 26.3632 33.8233L25.9433 31.3721C25.9081 31.1671 26.167 31.0492 26.3089 31.2055L28.7326 33.8721C29.0444 34.2152 29.2056 34.6633 29.1803 35.117L29.1027 36.5088C29.0677 37.1368 29.722 37.5934 30.3106 37.3517Z" fill="#FF9800"/>
<path d="M35.7841 30.6491C36.4277 30.9167 37.1751 30.6322 37.4534 30.0136C37.7318 29.3951 37.4358 28.6768 36.7922 28.4092C36.1487 28.1416 35.4013 28.4262 35.1229 29.0447C34.8445 29.6632 35.1406 30.3816 35.7841 30.6491Z" fill="#10B9D0"/>
<path d="M20.4453 10.7769C20.3144 10.5819 20.5265 10.3347 20.7463 10.4261L22.3119 11.077C22.4481 11.1336 22.5357 11.2644 22.5352 11.4104C22.5323 12.1575 22.0686 12.8378 21.3612 13.132L20.6594 13.4241C19.8902 13.7442 19.5621 14.6418 19.9554 15.3494C20.0813 15.5761 19.8396 15.8362 19.5967 15.7353L18.0859 15.1072C17.92 15.0382 17.8195 14.8724 17.8361 14.6952L17.8396 14.6585C17.9074 13.9365 18.354 13.2938 19.0181 12.9631L19.9619 12.4931C20.6134 12.1687 20.8397 11.365 20.4453 10.7769Z" fill="#FF143C"/>
<path d="M25.5954 1.84655C25.4514 1.90643 25.3151 1.7401 25.4069 1.61641L26.2343 0.500749C26.3152 0.39175 26.4462 0.329553 26.5851 0.334299L27.2668 0.357592C28.4373 0.397597 29.227 1.57333 28.7923 2.62913L28.7566 2.71601C28.3371 3.7348 29.1043 4.86804 30.234 4.89845C30.5792 4.90773 30.6772 5.37095 30.3618 5.50211L29.7406 5.7604C29.6806 5.78532 29.6117 5.7814 29.5539 5.74978L26.8595 4.27408C26.4467 4.04798 26.2811 3.5481 26.483 3.13745L26.6076 2.88368C26.9167 2.25491 26.2519 1.57367 25.5954 1.84655Z" fill="#AC98FF"/>
<path d="M41.5735 20.5046C41.4174 20.4398 41.453 20.213 41.6226 20.1908L43.2195 19.9824C43.3273 19.9682 43.4341 20.0067 43.5055 20.0852L44.3561 21.0196C44.9256 21.6453 44.4904 22.6528 43.6268 22.7081L43.4465 22.7196C42.2581 22.7956 42.1255 24.4686 43.2913 24.6782C43.4637 24.7091 43.5119 24.9271 43.3692 25.0305L41.5854 26.3251C41.4635 26.4136 41.2915 26.3548 41.2558 26.2125L40.5172 23.2646C40.3966 22.7835 40.6844 22.287 41.1714 22.1355L41.4724 22.0419C42.2181 21.81 42.2845 20.8002 41.5735 20.5046Z" fill="#FF9800"/>
<path d="M6.2749 13.225C7.02865 13.5383 7.904 13.2051 8.23005 12.4806C8.55609 11.7562 8.20937 10.9149 7.45561 10.6015C6.70186 10.2882 5.82651 10.6214 5.50046 11.3458C5.17442 12.0703 5.52114 12.9116 6.2749 13.225Z" fill="#FF993B"/>
<path d="M13.5431 6.65557C14.1572 6.91091 14.8705 6.63937 15.1362 6.04907C15.4019 5.45876 15.1193 4.77323 14.5052 4.51788C13.891 4.26254 13.1777 4.53408 12.912 5.12438C12.6463 5.71469 12.9289 6.40022 13.5431 6.65557Z" fill="#FF143C"/>
<path d="M14.012 20.8408C14.0554 20.6201 14.3658 20.5953 14.4538 20.8054L15.0693 22.2747C15.1245 22.4065 15.0954 22.5563 14.9952 22.6561C14.4895 23.1596 13.7197 23.3113 13.0408 23.0411L11.0341 22.2424C11.0061 22.2312 10.9771 22.223 10.9474 22.2178L10.0157 22.0561C9.76631 22.0128 9.67644 21.7042 9.86701 21.5454C10.2543 21.2229 10.7879 21.1226 11.2782 21.2802L12.5325 21.6836C13.1918 21.8955 13.8813 21.5027 14.012 20.8408Z" fill="#5CEB73"/>
<path d="M41.549 38.0614C42.112 38.2955 42.7658 38.0466 43.0094 37.5055C43.2529 36.9644 42.9939 36.336 42.4309 36.1019C41.8679 35.8678 41.2141 36.1168 40.9705 36.6579C40.727 37.199 40.986 37.8274 41.549 38.0614Z" fill="#FF143C"/>
<path d="M46.6242 13.3307C46.996 13.4915 47.4278 13.3205 47.5886 12.9487C47.7495 12.5769 47.5784 12.1451 47.2066 11.9843C46.8348 11.8235 46.4031 11.9945 46.2422 12.3663C46.0814 12.7381 46.2524 13.1699 46.6242 13.3307Z" fill="#10B9D0"/>
</g>
<defs>
<clipPath id="clip0_250_13080">
<rect width="80" height="50" fill="white"/>
</clipPath>
</defs>
</svg>
