<svg width="80" height="50" viewBox="0 0 80 50" fill="none" xmlns="http://www.w3.org/2000/svg">
<mask id="mask0_250_14486" style="mask-type:luminance" maskUnits="userSpaceOnUse" x="0" y="0" width="49" height="50">
<path d="M49 0.667969H0V49.668H49V0.667969Z" fill="white"/>
</mask>
<g mask="url(#mask0_250_14486)">
<path d="M39.0356 24.6277L30.7744 20.1181C30.6342 20.0406 30.4766 20 30.3164 20H25.21C24.9561 20 24.7126 20.1009 24.5331 20.2804C24.3535 20.46 24.2526 20.7035 24.2526 20.9575C24.2526 22.0578 23.8155 23.1131 23.0374 23.8912C22.2593 24.6692 21.2041 25.1064 20.1036 25.1064C19.0033 25.1064 17.948 24.6692 17.1699 23.8912C16.3918 23.1131 15.9548 22.0578 15.9548 20.9575C15.9548 20.7035 15.8539 20.46 15.6743 20.2804C15.4947 20.1009 15.2512 20 14.9972 20H9.89086C9.73013 19.9997 9.57201 20.0403 9.43135 20.1181L1.17175 24.6277C0.657879 24.8988 0.272338 25.3626 0.099479 25.9173C-0.0733692 26.472 -0.0194585 27.0727 0.249412 27.5878L3.32601 33.4618C3.52268 33.8324 3.81724 34.1421 4.17766 34.357C4.53807 34.572 4.95052 34.684 5.37016 34.6808H8.93346V47.7659C8.93346 48.3585 9.16883 48.9267 9.58774 49.3456C10.0068 49.7647 10.575 50 11.1675 50H29.0398C29.6323 50 30.2006 49.7647 30.6195 49.3456C31.0385 48.9267 31.2739 48.3585 31.2739 47.7659V34.6808H34.8388C35.2584 34.684 35.6708 34.572 36.0313 34.357C36.3917 34.1421 36.6862 33.8324 36.883 33.4618L39.9595 27.5878C40.2282 27.0725 40.2819 26.4717 40.1088 25.917C39.9356 25.3621 39.5498 24.8986 39.0356 24.6277ZM5.36536 32.7659C5.29531 32.7683 5.22594 32.7517 5.16465 32.7177C5.10337 32.6836 5.05249 32.6336 5.0175 32.5729L1.94568 26.7021C1.92838 26.667 1.91835 26.6286 1.91623 26.5896C1.91411 26.5504 1.91994 26.5113 1.93336 26.4744C1.94678 26.4375 1.96751 26.4038 1.99431 26.3753C2.02111 26.3466 2.05343 26.3238 2.0893 26.3079L8.93346 22.5708V32.7659H5.36536ZM29.359 47.7659C29.359 47.8506 29.3254 47.9317 29.2655 47.9916C29.2057 48.0515 29.1245 48.0851 29.0398 48.0851H11.1675C11.0828 48.0851 11.0017 48.0515 10.9418 47.9916C10.882 47.9317 10.8484 47.8506 10.8484 47.7659V21.9149H14.1164C14.3489 23.3342 15.0785 24.6247 16.1746 25.5559C17.2708 26.4871 18.6622 26.9983 20.1005 26.9983C21.5388 26.9983 22.9302 26.4871 24.0264 25.5559C25.1225 24.6247 25.8519 23.3342 26.0846 21.9149H29.359V47.7659ZM38.2632 26.7021L35.1867 32.5745C35.1517 32.6351 35.1008 32.6852 35.0395 32.7193C34.9782 32.7532 34.9088 32.7699 34.8388 32.7676H31.2739V22.5708L38.1196 26.3048C38.1556 26.3208 38.1879 26.344 38.2147 26.373C38.2415 26.402 38.2622 26.436 38.2755 26.4731C38.2888 26.5103 38.2943 26.5497 38.292 26.589C38.2896 26.6284 38.2793 26.6669 38.2617 26.7021H38.2632Z" fill="black"/>
<path d="M18.4832 42.6351C18.4832 43.5321 19.2103 44.2619 20.1074 44.2619C21.0044 44.2619 21.7317 43.5321 21.7317 42.6351C21.7317 41.738 21.0044 41.0084 20.1074 41.0084C19.2103 41.0084 18.4832 41.738 18.4832 42.6351Z" fill="#10B9D0"/>
<path d="M20.1055 39.4683C20.1055 39.4683 20.1055 38.2543 20.5998 37.6613C21.0941 37.0684 21.6314 36.764 22.1443 36.3371C22.6572 35.9102 22.8422 35.0957 22.8422 34.5475C22.8422 33.0361 21.6169 31.794 20.1055 31.794C18.5942 31.794 17.369 33.0192 17.369 34.5305V35.083" stroke="#10B9D0" stroke-width="2"/>
</g>
</svg>
