<svg width="80" height="50" viewBox="0 0 80 50" fill="none" xmlns="http://www.w3.org/2000/svg">
<path d="M26.0111 11.8819C24.9917 8.71978 22.6738 4.2762 22.3435 3.6508L22.0559 3.10409C21.7727 2.53992 21.5612 2.13581 21.4815 1.98497L20.4371 0L18.941 10.6316L18.8889 11.0183C17.7703 10.9545 16.5795 10.9179 15.32 10.9179C14.0533 10.9179 12.8554 10.955 11.7301 11.0194L11.684 10.6313L11.1589 6.90465C11.1596 6.89844 10.1856 0 10.1856 0L9.11918 1.98497C9.0226 2.16748 8.73155 2.72053 8.35278 3.47964L8.26074 3.6508C7.92981 4.2768 5.58974 8.7282 4.56382 11.8908C1.6044 12.4625 0 13.074 0 13.074V38.9174L15.2992 50L30.5986 38.9174V13.074C30.5986 13.074 28.9892 12.4561 26.0111 11.8819Z" fill="white"/>
<path d="M21.882 31.9463H15.2874V20.6547L8.59602 31.6162L7.55566 42.8722L15.1844 48.4442L15.2874 48.5197L23.0891 42.832L21.882 31.9463Z" fill="#3B3B63"/>
<path d="M15.1743 48.4041L0.977661 38.1118V14.1114C0.977661 14.1114 6.227 12.1089 15.1936 12.1089C24.1603 12.1089 29.3713 14.1114 29.3713 14.1114V38.1118L15.1743 48.4041Z" fill="#DBDBDB"/>
<path d="M15.3801 12.1089C15.3735 12.1089 15.3672 12.1092 15.3606 12.1092V48.4035H15.3608L29.5578 38.1112V14.1114C29.5578 14.1114 24.3467 12.1089 15.3801 12.1089Z" fill="#C6C6C6"/>
<path d="M23.0501 42.809L21.8453 31.9465H15.2504V48.4946L23.0501 42.809Z" fill="#3B3B63"/>
<path d="M7.55554 42.8722L15.2873 48.5197V20.6547L8.5959 31.6162L7.55554 42.8722Z" fill="#53537A"/>
<path d="M18.6147 39.6636C18.6147 41.526 16.9037 42.4492 15.3341 42.4492C13.7645 42.4492 12.0189 41.526 12.0189 39.6636" fill="#BC9375"/>
<path d="M17.6529 38.608C17.6529 40.7922 16.4962 41.3778 15.3168 41.3778C14.1376 41.3778 12.9806 40.7922 12.9806 38.608" fill="#073251"/>
<path d="M15.3168 40.6268C14.0567 40.6268 13.444 39.6869 13.444 37.7546H14.0448C14.0448 40.0168 14.9037 40.0168 15.3168 40.0168C15.7298 40.0168 16.5888 40.0168 16.5888 37.7546H17.1896C17.1896 39.6869 16.5767 40.6268 15.3168 40.6268Z" fill="white"/>
<path d="M25.3194 15.4931C25.3194 13.1368 21.4025 5.72296 21.4025 5.72296L20.0776 15.1253L18.8884 17.1103L15.3243 17.2577L15.3102 17.2868V17.2577L11.7455 17.1103L10.5567 15.1253L9.2318 5.72296C9.2318 5.72296 5.31458 13.1368 5.31458 15.4931L6.96941 20.0206C6.96941 20.0206 6.13428 27.6257 6.51557 28.6214C6.89566 29.6173 9.53599 32.9476 9.53599 32.9476C9.53599 32.9476 9.5281 35.7474 10.251 37.7602C10.7667 39.1976 11.9031 39.7807 12.9911 39.7807C14.6578 39.7807 15.3098 38.2261 15.3098 38.2261C15.3098 38.2261 15.9775 39.7807 17.6441 39.7807C18.7319 39.7807 19.8672 39.1986 20.3842 37.7602C21.1062 35.7482 21.0989 32.9476 21.0989 32.9476C21.0989 32.9476 23.7386 29.6173 24.1195 28.6214C24.5005 27.6255 23.6653 20.0206 23.6653 20.0206L25.3194 15.4931Z" fill="#C49A7E"/>
<path d="M15.3169 17.2727L15.31 17.2869V17.2578L11.7453 17.1106L10.5566 15.1255L9.23119 5.72321C9.23119 5.72321 5.31433 13.137 5.31433 15.4934L6.96881 20.0209C6.96881 20.0209 6.13392 27.6258 6.51461 28.6216C6.89554 29.6175 9.53479 32.9479 9.53479 32.9479C9.53479 32.9479 9.52798 35.7476 10.25 37.7604C10.7665 39.1979 11.903 39.7809 12.99 39.7809C14.6575 39.7809 15.3096 38.2264 15.3096 38.2264C15.3096 38.2264 15.3125 38.2318 15.3171 38.242V17.2727H15.3169Z" fill="#D8B7A0"/>
<path d="M23.7009 20.4664C23.3973 19.8205 23.8289 18.2921 23.8289 18.2921C21.3555 15.7146 20.7369 10.3396 20.7369 10.3396C20.2751 12.0333 19.2713 17.027 19.2713 17.027C19.2713 17.027 17.4252 16.328 15.3251 16.3246H15.3177H15.3095C15.1941 16.3252 15.0805 16.3282 14.9669 16.3319V37.4032L15.1237 37.6367V37.5213H15.2207V37.6367L15.2216 37.5213H15.4131H15.511V37.6367L17.2208 35.0984L17.5925 27.9707L19.7213 30.4394L22.4637 31.2539C22.4637 31.2539 23.4897 30.5103 23.4897 30.5131C23.9254 29.893 24.0699 29.3646 24.1752 29.0906C24.5561 28.0933 23.7009 20.4664 23.7009 20.4664Z" fill="#3B3B63"/>
<path d="M15.3359 16.3244C15.3332 16.3244 15.331 16.3242 15.3287 16.3242V16.3244C13.2279 16.328 11.3815 17.0265 11.3815 17.0265C11.3815 17.0265 10.3774 12.0331 9.91592 10.3393C9.91592 10.3393 9.29773 15.7143 6.82391 18.2918C6.82391 18.2918 7.25551 19.8203 6.95192 20.4661C6.95192 20.4661 6.09671 28.0933 6.47764 29.0891C6.58282 29.3634 6.72841 29.8913 7.16348 30.5116C7.16348 30.5087 8.19009 31.2525 8.19009 31.2525L10.9319 30.4379L13.0603 27.9696L13.433 35.0973L15.1418 37.6355V37.5202H15.2397H15.3357V16.3244H15.3359Z" fill="#53537A"/>
<path d="M20.2931 25.2371H17.8902H17.0894V25.2714C17.0894 26.4078 18.0568 27.3282 19.1916 27.3282C20.3267 27.3282 21.2942 26.4075 21.2942 25.2714V25.2371H20.2931Z" fill="#333152"/>
<path d="M17.8903 25.2371V25.2714C17.8903 25.9473 18.426 26.495 19.092 26.495C19.7579 26.495 20.2933 25.9473 20.2933 25.2714V25.2371H17.8903Z" fill="white"/>
<path d="M19.4625 25.2371H18.8995C18.894 25.2371 18.8893 25.2399 18.8844 25.2409C18.9542 25.2558 18.9929 25.4165 18.9779 25.5236C18.9554 25.6871 18.8181 25.8007 18.6609 25.8034C18.7067 26.0173 18.8783 26.1891 19.1064 26.2218C19.3976 26.2636 19.6668 26.0608 19.7082 25.7652C19.7378 25.5475 19.6348 25.2371 19.4625 25.2371Z" fill="#333152"/>
<path d="M12.5594 25.2371H10.1569H9.35583V25.2714C9.35583 26.4078 10.3234 27.3282 11.4581 27.3282C12.5932 27.3282 13.5608 26.4075 13.5608 25.2714V25.2371H12.5594Z" fill="#333152"/>
<path d="M10.1569 25.2371V25.2714C10.1569 25.9473 10.6929 26.495 11.358 26.495C12.0241 26.495 12.5596 25.9473 12.5596 25.2714V25.2371H10.1569Z" fill="white"/>
<path d="M11.7293 25.2371H11.1656C11.1607 25.2371 11.1554 25.2399 11.1509 25.2409C11.2206 25.2558 11.259 25.4165 11.2443 25.5236C11.2218 25.6871 11.0853 25.8007 10.927 25.8034C10.9734 26.0173 11.145 26.1891 11.3726 26.2218C11.6638 26.2636 11.9335 26.0608 11.9743 25.7652C12.0044 25.5475 11.9015 25.2371 11.7293 25.2371Z" fill="#333152"/>
<path d="M20.0515 24.2672C20.1859 24.1176 21.328 22.8018 19.8006 22.8018C18.4204 22.8018 17.4274 23.9325 17.1642 24.2672H20.0515Z" fill="#C49A7E"/>
<path d="M13.4633 24.2672C13.2003 23.9325 12.2073 22.8018 10.8267 22.8018C9.3001 22.8018 10.4422 24.1176 10.5759 24.2672H13.4633Z" fill="#D8B7A0"/>
<path d="M8.6189 25.2251H14.4616V24.6673H8.6189V25.2251Z" fill="#53537A"/>
<path d="M23.8066 17.3148C22.1078 14.8899 21.5748 10.9477 21.5286 10.5874L21.8385 8.38992C23.1 10.9963 24.4235 14.0895 24.5142 15.3804L23.8066 17.3148ZM23.3727 28.3462C23.1407 28.9515 21.5386 31.1141 20.4743 32.4567L20.2968 32.6818L20.2977 32.9691C20.2977 32.995 20.2968 35.6458 19.6311 37.5008C19.1498 38.8415 18.0806 38.9864 17.6438 38.9864C16.538 38.9864 16.0607 37.9572 16.044 37.92L15.9808 36.9559H14.6365L14.5757 37.9145C14.5566 37.9581 14.0911 38.9838 12.9907 38.9838C12.553 38.9838 11.4842 38.8405 11.0025 37.4997C10.3389 35.6513 10.3358 32.995 10.3358 32.968L10.3368 32.6808L10.1593 32.4567C9.0956 31.115 7.49336 28.9524 7.26709 28.3619C7.08625 27.7231 7.38483 23.5922 7.76492 20.1306L7.78584 19.9385L7.48595 19.1188C8.51626 18.022 9.23927 16.5127 9.73805 15.0758L9.78658 15.4256L11.423 18.1559L12.0624 17.8772C12.0785 17.8702 13.718 17.1619 15.3101 17.1619C16.8922 17.1619 18.5587 17.8708 18.5744 17.8778L19.2127 18.1541L20.8473 15.425L20.9113 14.9692C21.4049 16.4201 22.1271 17.9565 23.1624 19.0777L22.8484 19.9379L22.8693 20.1299C23.2491 23.5922 23.5477 27.7231 23.3727 28.3462ZM14.3198 40.3281C14.5338 40.2314 14.7269 40.1163 14.8973 39.9897C15.0529 40.0361 15.2022 40.0361 15.3168 40.0361C15.4308 40.0361 15.5786 40.0371 15.7331 39.9906C15.9038 40.1163 16.0973 40.2314 16.3113 40.3281C16.0429 40.5317 15.7126 40.6462 15.3176 40.6462C14.9205 40.6462 14.5885 40.5326 14.3198 40.3281ZM15.3343 42.0623C14.455 42.0623 13.2048 41.6642 12.8938 40.6092C12.9256 40.6101 12.9569 40.6129 12.9894 40.6129C13.1592 40.6129 13.3186 40.5971 13.4725 40.5749C13.9185 41.2053 14.6132 41.3987 15.317 41.3987C16.022 41.3987 16.7181 41.2071 17.1648 40.5756C17.3178 40.5969 17.4753 40.6129 17.6438 40.6129C17.677 40.6129 17.7088 40.6101 17.7419 40.6092C17.4338 41.6642 16.2003 42.0623 15.3343 42.0623ZM6.12036 15.3802C6.21108 14.0893 7.53376 10.9963 8.79547 8.38968L9.13182 10.773C9.00357 11.6641 8.41741 15.1588 6.84505 17.3617L6.12036 15.3802ZM26.1001 15.5126C26.1001 13.0238 22.5083 6.13566 22.098 5.35839L20.9497 3.17596L19.3048 14.8649L18.5456 16.1345C17.8126 15.8846 16.5652 15.5358 15.3092 15.5358C14.0545 15.5358 12.8155 15.8834 12.0857 16.1336L11.3261 14.8646L10.7488 10.7673C10.7495 10.7605 10.7504 10.7514 10.7504 10.7472L10.746 10.7466L9.67865 3.17596L8.5061 5.35839C8.09517 6.13566 4.47473 13.0238 4.47473 15.5126V15.6586L6.13255 20.1422C5.86745 22.5867 5.36137 27.8968 5.75892 28.9346C6.00657 29.5835 6.95991 30.9234 7.76623 31.9974L6.68022 42.275L8.17549 43.3462L8.9658 35.8699C9.07934 36.5969 9.24692 37.3648 9.49565 38.0584C9.83857 39.0142 10.4447 39.7377 11.2205 40.1671C11.2667 42.4553 13.361 43.6893 15.3343 43.6893C17.2911 43.6893 19.3681 42.4543 19.4135 40.1653C20.1877 39.7368 20.7931 39.0132 21.1357 38.0584C21.3947 37.3371 21.5645 36.5336 21.6776 35.7813L22.4726 43.2847L23.968 42.1755L22.8846 31.9664C23.6846 30.8972 24.62 29.577 24.8654 28.9352C25.2628 27.8976 24.7363 22.5867 24.4715 20.1425L26.0998 15.6584V15.5126H26.1001Z" fill="#333152"/>
<path d="M17.2023 34.163H13.4441C13.4441 34.163 12.9386 35.0574 12.9386 35.3477C12.9386 36.2096 15.2518 37.5819 15.2518 37.5819C15.2518 37.5819 17.6953 36.1687 17.6953 35.3477C17.6953 34.956 17.2023 34.163 17.2023 34.163Z" fill="#333152"/>
<path d="M16.478 36.7905C16.2683 36.4132 15.9978 36.3443 15.8737 36.6352C15.7498 36.9265 15.8206 37.4685 16.0302 37.845C16.2399 38.2225 16.5106 38.2914 16.6342 38.0002C16.7584 37.7092 16.688 37.167 16.478 36.7905Z" fill="#C49A7E"/>
<path d="M14.1559 36.7905C13.9459 37.167 13.8761 37.7092 13.9997 38.0002C14.1234 38.2914 14.3937 38.2225 14.6043 37.845C14.8138 37.4686 14.8841 36.9265 14.7599 36.6352C14.6363 36.3443 14.3659 36.4132 14.1559 36.7905Z" fill="#D8B7A0"/>
</svg>
