<svg width="80" height="50" viewBox="0 0 80 50" fill="none" xmlns="http://www.w3.org/2000/svg">
<path d="M34 24.5001C34 19.8058 30.1947 16 25.5003 16H8.5009C7.38447 15.9985 6.27876 16.2176 5.24728 16.6448C4.21581 17.072 3.27892 17.6988 2.49045 18.4893C-0.82866 21.8089 -0.82866 27.1927 2.49045 30.5106L5.51752 33.5379C2.29438 34.746 0 37.8548 0 41.4999C0 46.1942 3.80551 50 8.49986 50H25.5003C26.6167 50.0015 27.7224 49.7823 28.7538 49.3551C29.7852 48.9278 30.722 48.3009 31.5104 47.5104C34.8299 44.1907 34.8299 38.807 31.5104 35.4891L28.4833 32.4618C31.7058 31.254 34 28.1448 34 24.5001ZM4.82232 45.1791C4.10814 44.4646 3.61741 43.5577 3.41007 42.569C3.20271 41.5802 3.28772 40.5525 3.65469 39.6113C4.02167 38.6701 4.65473 37.8562 5.47659 37.2688C6.29845 36.6814 7.27355 36.3461 8.28281 36.3037L18.6815 46.7034H8.49952C7.81627 46.7049 7.13949 46.571 6.50831 46.3094C5.87713 46.0478 5.30409 45.6636 4.82232 45.1791ZM29.1785 37.8221C30.1541 38.7978 30.7021 40.1209 30.7021 41.5006C30.7021 42.8803 30.1541 44.2035 29.1785 45.1791C28.203 46.1546 26.8799 46.7027 25.5003 46.7027C24.1207 46.7027 22.7976 46.1546 21.8221 45.1791L4.82232 28.1786C3.85282 27.2016 3.30992 25.8803 3.31249 24.504C3.3151 23.1276 3.86297 21.8084 4.83615 20.8351C5.80933 19.8619 7.12851 19.314 8.50479 19.3114C9.88108 19.3088 11.2023 19.8517 12.1791 20.8213L29.1785 37.8221ZM29.1785 28.1786C28.2583 29.1035 27.0221 29.6459 25.7184 29.6967L15.3194 19.2977H25.5013C26.5301 19.298 27.5356 19.6033 28.3908 20.175C29.2461 20.7467 29.9127 21.5592 30.3062 22.5097C30.6998 23.4603 30.8027 24.5062 30.602 25.5151C30.4013 26.5242 29.9059 27.451 29.1785 28.1786Z" fill="#58B1E4"/>
</svg>
