<svg width="80" height="50" viewBox="0 0 80 50" fill="none" xmlns="http://www.w3.org/2000/svg">
<path d="M10.4835 40.0162C10.4835 40.0162 8.79404 41.0447 11.6587 41.339C15.1118 41.779 16.9479 41.7057 20.7687 40.9723C21.5365 41.4423 22.3486 41.8359 23.1933 42.1475C14.5975 45.8207 3.72295 41.9275 10.4826 40.0171L10.4835 40.0162ZM9.38163 35.2403C9.38163 35.2403 7.5446 36.6364 10.4101 36.9298C14.1575 37.2964 17.0955 37.3698 22.1657 36.3431C22.6588 36.8434 23.2626 37.2209 23.9285 37.4449C13.5699 40.5305 1.96109 37.7383 9.38071 35.2412L9.38163 35.2403ZM29.6586 43.616C29.6586 43.616 30.9081 44.6446 28.2625 45.4531C23.3399 46.9225 7.61702 47.3634 3.20961 45.4531C1.66683 44.7931 4.60572 43.837 5.5609 43.6903C6.51608 43.4703 7.03034 43.4703 7.03034 43.4703C5.3409 42.2951 -4.21093 45.8949 2.17193 46.9234C19.731 49.789 34.2045 45.6749 29.6495 43.6169L29.6586 43.616ZM11.292 30.2444C11.292 30.2444 3.28386 32.1548 8.42645 32.8157C10.6302 33.109 14.9651 33.0357 19.005 32.7424C22.3114 32.449 25.617 31.8605 25.617 31.8605C25.617 31.8605 24.4418 32.3738 23.6333 32.889C15.4785 35.0194 -0.171114 34.0642 4.30963 31.8605C8.13036 30.0235 11.2892 30.2444 11.2892 30.2444H11.292ZM25.6197 38.2525C33.8479 33.99 30.029 29.8768 27.3834 30.3911C26.7234 30.5377 26.4282 30.6844 26.4282 30.6844C26.4282 30.6844 26.6483 30.2444 27.1616 30.0977C32.3775 28.2607 36.4934 35.607 25.4721 38.4734C25.4721 38.4734 25.5455 38.4001 25.6188 38.2534L25.6197 38.2525ZM12.1005 49.8605C20.0353 50.3738 32.1575 49.5671 32.4509 45.8197C32.4509 45.8197 31.8642 47.2892 25.9122 48.391C19.1525 49.6405 10.7869 49.4929 5.85515 48.6844C5.85515 48.6844 6.88367 49.5662 12.0996 49.8596L12.1005 49.8605Z" fill="#4E7896"/>
<path d="M20.622 6C20.622 6 25.1779 10.6292 16.2861 17.6079C9.15982 23.2639 14.67 26.4979 16.2861 30.1711C12.0987 26.4246 9.08648 23.1181 11.1527 20.0326C14.1576 15.4785 22.459 13.2739 20.622 6ZM18.2707 27.0855C20.4011 29.5101 17.684 31.7148 17.684 31.7148C17.684 31.7148 23.12 28.9225 20.6229 25.4694C18.345 22.1629 16.5822 20.5468 26.1322 15.0376C26.1322 15.0376 11.0711 18.784 18.2707 27.0855Z" fill="#F58219"/>
</svg>
