<svg width="80" height="50" viewBox="0 0 80 50" fill="none" xmlns="http://www.w3.org/2000/svg">
<path d="M5.0277 32.5364C4.89795 32.5364 4.86551 32.4715 4.93039 32.3742L5.61155 31.4984C5.67643 31.4011 5.83861 31.3363 5.96836 31.3363H17.5482C17.678 31.3363 17.7104 31.4336 17.6455 31.5309L17.0941 32.3742C17.0292 32.4715 16.8671 32.5688 16.7697 32.5688L5.0277 32.5364Z" fill="#00ACD7"/>
<path d="M0.129747 35.5206C2.70672e-07 35.5206 -0.0324367 35.4557 0.0324365 35.3584L0.713605 34.4826C0.778478 34.3853 0.940661 34.3205 1.07041 34.3205H15.8615C15.9912 34.3205 16.0561 34.4178 16.0237 34.5151L15.7642 35.2936C15.7317 35.4233 15.602 35.4882 15.4723 35.4882L0.129747 35.5206Z" fill="#00ACD7"/>
<path d="M7.97923 38.5048C7.84949 38.5048 7.81705 38.4075 7.88192 38.3102L8.33604 37.4992C8.40091 37.4019 8.53066 37.3046 8.6604 37.3046H15.1477C15.2775 37.3046 15.3423 37.4019 15.3423 37.5317L15.2775 38.3102C15.2775 38.4399 15.1477 38.5372 15.0504 38.5372L7.97923 38.5048Z" fill="#00ACD7"/>
<path d="M41.6484 31.9526C39.6049 32.4716 38.2101 32.8608 36.1991 33.3798C35.7125 33.5095 35.6801 33.542 35.2584 33.0554C34.7719 32.504 34.4151 32.1472 33.7339 31.8228C31.6904 30.8173 29.7118 31.1092 27.8629 32.3094C25.6572 33.7366 24.5219 35.845 24.5543 38.4723C24.5868 41.0672 26.3708 43.2081 28.9333 43.5649C31.139 43.8568 32.9878 43.0783 34.4475 41.424C34.7394 41.0672 34.9989 40.678 35.3233 40.2239C34.1556 40.2239 32.6959 40.2239 29.063 40.2239C28.3819 40.2239 28.2197 39.8022 28.4467 39.2508C28.8684 38.2453 29.6469 36.5586 30.101 35.7152C30.1983 35.5206 30.4254 35.1962 30.9119 35.1962C32.5662 35.1962 38.6642 35.1962 42.7188 35.1962C42.654 36.072 42.654 36.9478 42.5242 37.8236C42.1674 40.159 41.2916 42.2998 39.8644 44.1812C37.529 47.2626 34.4799 49.1764 30.62 49.6954C27.4412 50.1171 24.4895 49.5008 21.8945 47.5546C19.4942 45.7381 18.1319 43.3378 17.7751 40.3536C17.3534 36.8181 18.3914 33.6393 20.5322 30.8497C22.8352 27.8331 25.8842 25.9194 29.6144 25.2382C32.6635 24.6868 35.5828 25.0436 38.2101 26.8276C39.9293 27.9629 41.1619 29.5198 41.9728 31.4011C42.1674 31.6931 42.0377 31.8553 41.6484 31.9526Z" fill="#00ACD7"/>
<path d="M52.3849 49.89C49.4331 49.8251 46.7409 48.9817 44.4703 47.0355C42.5566 45.3813 41.3564 43.2729 40.9672 40.7753C40.3833 37.11 41.3889 33.8663 43.5946 30.9794C45.9624 27.8655 48.8168 26.2437 52.6768 25.5625C55.9853 24.9787 59.0992 25.303 61.9212 27.2168C64.4837 28.9684 66.0731 31.3362 66.4948 34.4502C67.0462 38.8291 65.7812 42.3971 62.7646 45.4462C60.6238 47.6194 57.9964 48.9817 54.9798 49.598C54.104 49.7602 53.2282 49.7927 52.3849 49.89ZM60.1048 36.7856C60.0723 36.3639 60.0723 36.0395 60.0075 35.7152C59.4236 32.504 56.4719 30.6875 53.3904 31.4011C50.3738 32.0823 48.4276 33.996 47.714 37.0451C47.1301 39.5751 48.3627 42.1376 50.6982 43.1756C52.4822 43.9541 54.2662 43.8568 55.9853 42.981C58.5478 41.6511 59.9426 39.5751 60.1048 36.7856Z" fill="#00ACD7"/>
</svg>
