<svg width="81" height="50" viewBox="0 0 81 50" fill="none" xmlns="http://www.w3.org/2000/svg">
<g clip-path="url(#clip0_333_8305)">
<path d="M35.6623 28.1577L19.7407 12.2361L18.198 10.6934L6.21262 22.6787L0.731995 28.1577C0.458241 28.4329 0.304565 28.8052 0.304565 29.1934C0.304565 29.5815 0.458241 29.9539 0.731995 30.229L11.6817 41.1787L18.198 47.6934L30.1817 35.708L30.3683 35.523L35.6623 30.2373C35.7995 30.1011 35.9084 29.9391 35.9827 29.7607C36.057 29.5822 36.0952 29.3908 36.0952 29.1975C36.0952 29.0042 36.057 28.8128 35.9827 28.6343C35.9084 28.4559 35.7995 28.2939 35.6623 28.1577ZM18.198 34.6641L12.7273 29.1934L18.198 23.7226L23.667 29.1934L18.198 34.6641Z" fill="#2684FF"/>
<path d="M18.198 23.7227C16.4775 22.0026 15.5076 19.6715 15.5001 17.2386C15.4927 14.8056 16.4484 12.4687 18.1584 10.738L6.18787 22.7036L12.7025 29.2182L18.198 23.7227Z" fill="url(#paint0_linear_333_8305)"/>
<path d="M23.6819 29.1785L18.198 34.664C19.925 36.3916 20.8952 38.7343 20.8952 41.177C20.8952 43.6198 19.925 45.9625 18.198 47.69L30.2015 35.6931L23.6819 29.1785Z" fill="url(#paint1_linear_333_8305)"/>
<path d="M11.4445 49.9999C16.4932 49.9999 20.5846 45.901 20.5846 40.8466C20.5846 35.7922 16.4932 31.6934 11.4445 31.6934C6.39588 31.6934 2.30457 35.7922 2.30457 40.8466C2.30457 45.901 6.39588 49.9999 11.4445 49.9999Z" fill="#9077F6" stroke="white"/>
<path fill-rule="evenodd" clip-rule="evenodd" d="M8.47763 38.3275H9.25363C9.45699 38.3275 9.65202 38.4083 9.79582 38.5521C9.93962 38.6959 10.0204 38.8909 10.0204 39.0943C10.0204 39.2977 9.93962 39.4927 9.79582 39.6365C9.65202 39.7803 9.45699 39.8611 9.25363 39.8611H6.62469C6.42132 39.8611 6.22629 39.7803 6.08249 39.6365C5.9387 39.4927 5.85791 39.2977 5.85791 39.0943V36.4653C5.85791 36.262 5.93869 36.067 6.08249 35.9232C6.22629 35.7794 6.42132 35.6986 6.62469 35.6986C6.82805 35.6986 7.02308 35.7794 7.16688 35.9232C7.31068 36.067 7.39146 36.262 7.39146 36.4653V37.2434L7.62859 37.0063L7.62896 37.0059C8.66825 35.9618 10.0796 35.3732 11.5528 35.3694L11.554 35.3694L11.5818 35.3694C13.0413 35.3652 14.4438 35.9357 15.4859 36.9576L15.4908 36.9624L15.4956 36.9674C15.6332 37.111 15.7096 37.3026 15.7086 37.5015C15.7077 37.7004 15.6294 37.8912 15.4904 38.0336C15.3514 38.1759 15.1625 38.2586 14.9636 38.2643C14.7648 38.2699 14.5715 38.198 14.4246 38.0638L14.4193 38.059L14.4141 38.0539C13.6508 37.3089 12.6245 36.8948 11.5579 36.9015C10.4913 36.9081 9.47025 37.335 8.71628 38.0895L8.71574 38.0901L8.47763 38.3275ZM15.4974 44.4492V45.2285C15.4974 45.4319 15.5782 45.6269 15.722 45.7707C15.8658 45.9145 16.0608 45.9953 16.2641 45.9953C16.4675 45.9953 16.6625 45.9145 16.8063 45.7707C16.9501 45.6269 17.0309 45.4319 17.0309 45.2285V42.5996C17.0309 42.3962 16.9501 42.2012 16.8063 42.0574C16.6625 41.9136 16.4675 41.8328 16.2641 41.8328H13.6352C13.4318 41.8328 13.2368 41.9136 13.093 42.0574C12.9492 42.2012 12.8684 42.3962 12.8684 42.5996C12.8684 42.8029 12.9492 42.9979 13.093 43.1417C13.2368 43.2855 13.4318 43.3663 13.6352 43.3663H14.4112L14.1731 43.6038L14.172 43.6049C13.4194 44.3608 12.3976 44.7871 11.3309 44.7903L11.3064 44.7903L11.3053 44.7903C10.2472 44.7929 9.23067 44.3787 8.47559 43.6375L8.46999 43.632L8.4642 43.6267C8.31733 43.4925 8.12405 43.4206 7.92519 43.4263C7.72632 43.432 7.53743 43.5147 7.39843 43.657C7.25942 43.7993 7.18117 43.9901 7.18021 44.1891C7.17925 44.388 7.25565 44.5795 7.39327 44.7232L7.39789 44.728L7.40266 44.7327C8.44428 45.7557 9.84685 46.3273 11.3068 46.3239L11.3349 46.3239L11.336 46.3239C12.8094 46.3201 14.2209 45.7313 15.2602 44.687L15.4974 44.4492Z" fill="white"/>
</g>
<defs>
<linearGradient id="paint0_linear_333_8305" x1="17.2185" y1="18.1876" x2="9.57898" y2="25.8255" gradientUnits="userSpaceOnUse">
<stop offset="0.18" stop-color="#0052CC"/>
<stop offset="1" stop-color="#2684FF"/>
</linearGradient>
<linearGradient id="paint1_linear_333_8305" x1="19.2419" y1="40.1331" x2="26.8666" y2="32.5101" gradientUnits="userSpaceOnUse">
<stop offset="0.18" stop-color="#0052CC"/>
<stop offset="1" stop-color="#2684FF"/>
</linearGradient>
<clipPath id="clip0_333_8305">
<rect width="80" height="50" fill="white" transform="translate(0.304565)"/>
</clipPath>
</defs>
</svg>
