<svg width="40" height="40" viewBox="0 0 40 40" fill="none" xmlns="http://www.w3.org/2000/svg">
<rect x="20.7305" y="5.64453" width="13.0234" height="13.0234" rx="1" stroke="#FF993B" stroke-width="2"/>
<path d="M24.6914 10.3829L28.3753 13.9374L37.9991 4.77734" stroke="#FF993B" stroke-width="2" stroke-miterlimit="10" stroke-linecap="round" stroke-linejoin="round"/>
<g clip-path="url(#clip0_19193_136894)">
<path d="M31.9648 24.2153L30.2013 22.9805L24.7677 30.7399L26.5312 31.9748L31.9648 24.2153Z" fill="#42484C"/>
<path d="M29.5317 23.56L31.6475 25.042C31.8412 25.178 32.1116 25.1298 32.2468 24.9361C32.3829 24.7423 32.3346 24.4719 32.1409 24.3367L30.0251 22.8548C29.8314 22.7187 29.561 22.7669 29.4258 22.9607C29.2898 23.1544 29.3371 23.424 29.5317 23.56ZM23.8871 30.12L27.4143 32.5896C27.608 32.7257 27.8784 32.6774 28.0136 32.4837C28.1496 32.2899 28.1014 32.0196 27.9077 31.8844L24.3806 29.4147C24.1868 29.2786 23.9164 29.3269 23.7812 29.5206C23.6452 29.7144 23.6934 29.9839 23.8871 30.12Z" fill="#66757F"/>
<path d="M26.8846 32.2216L24.4149 30.4925L19.9707 36.8414L22.4395 38.5705L26.8846 32.2216ZM30.9766 25.6255L29.213 24.3906L28.7196 25.0967L30.4831 26.3307L30.9766 25.6255ZM29.9889 27.036L28.2253 25.8011L27.7319 26.5072L29.4955 27.7421L29.9889 27.036ZM29.0012 28.4473L27.2376 27.2125L26.7433 27.9186L28.5069 29.1534L29.0012 28.4473ZM28.0135 29.8587L26.2499 28.6238L25.7556 29.3291L27.5192 30.5639L28.0135 29.8587Z" fill="black"/>
<path d="M12.7802 26.3438C12.7802 26.3438 9.40379 29.0149 10.866 32.251C10.866 32.251 14.7763 30.2549 12.7802 26.3438Z" fill="#292F33"/>
<path d="M10.5247 31.0371C10.3602 29.6266 11 28.3978 11.6407 27.5496C12.2994 27.2353 12.8617 27.0821 13.0762 27.0312C13.1106 27.1268 13.1287 27.2164 13.1562 27.3102C13.0366 29.5827 11.6975 30.5945 10.5247 31.0371Z" fill="black"/>
<path d="M13.0803 26.2227C13.0803 26.2227 8.85655 27.0562 8.6783 30.6023C8.6783 30.6023 13.0691 30.6135 13.0803 26.2227ZM5.3303 40.0004V38.2782C5.3303 35.4245 7.64238 33.1115 10.497 33.1115H24.2747C27.1276 33.1115 29.4414 35.4245 29.4414 38.2782V40.0004H5.3303Z" fill="#292F33"/>
<path d="M21.8633 32.0352H12.9051V35.694H21.8633V32.0352Z" fill="#292F33"/>
<path d="M20.832 32.25H13.9431C13.9431 32.25 14.8198 38.2778 17.3876 38.2778C19.9554 38.2778 20.832 32.25 20.832 32.25Z" fill="#292F33"/>
<path d="M21.1398 34.8646C19.638 35.9565 18.6873 36.555 17.3853 36.555C16.0833 36.555 15.1335 35.9556 13.6317 34.8646V29.9141H21.1406V34.8646H21.1398Z" fill="#292F33"/>
<path d="M21.1476 31.3655C20.1005 32.5487 18.8019 32.869 17.3897 32.869C15.9783 32.869 14.6806 32.5478 13.6327 31.3655V28.3594H21.1484V31.3655H21.1476Z" fill="black"/>
<path d="M23.0327 22.7235C23.0327 23.9704 23.6648 24.9814 24.4441 24.9814C25.2234 24.9814 25.8555 23.9704 25.8555 22.7235C25.8555 21.4767 25.2234 20.4648 24.4441 20.4648C23.6648 20.464 23.0327 21.4758 23.0327 22.7235ZM8.92 22.7235C8.92 23.9704 9.55119 24.9814 10.3314 24.9814C11.1107 24.9814 11.7427 23.9704 11.7427 22.7235C11.7427 21.4767 11.1115 20.4648 10.3314 20.4648C9.55119 20.464 8.92 21.4758 8.92 22.7235Z" fill="#292F33"/>
<path d="M24.7266 23.2419C24.7266 16.7491 22.554 13.3047 17.3873 13.3047C12.2206 13.3047 10.0489 16.7491 10.0489 23.2419C10.0489 28.2544 13.3341 32.318 17.3873 32.318C21.4406 32.318 24.7266 28.2544 24.7266 23.2419Z" fill="#292F33"/>
<path d="M23.4141 33.11C23.4141 33.9711 22.553 35.6934 20.8307 37.4156C19.4693 38.777 18.4894 39.9989 18.4894 39.9989C17.8031 39.9946 16.8533 39.9955 16.1385 39.9981C16.9058 38.2586 18.2715 37.0091 18.9621 36.3185C19.8232 35.4574 21.6918 33.9711 21.6918 32.2489C21.6918 31.3878 23.4141 33.11 23.4141 33.11Z" fill="#66757F"/>
<path d="M18.4887 39.9994L16.143 39.9985C16.5839 38.9988 17.2203 38.167 17.8136 37.5039C18.2484 38.0318 18.6678 38.663 19.0234 39.3639C18.6893 39.7505 18.4887 39.9994 18.4887 39.9994Z" fill="#292F33"/>
<path d="M11.3602 33.11C11.3602 33.9711 12.2214 35.6934 13.9436 37.4156C15.305 38.777 16.0964 39.9989 16.0964 39.9989C16.8731 39.9955 17.3174 39.9972 18.6797 39.9989C17.9124 38.2595 16.5028 37.0091 15.8122 36.3185C14.9511 35.4574 13.0825 33.9711 13.0825 32.2489C13.0825 31.3878 11.3602 33.11 11.3602 33.11Z" fill="#66757F"/>
<path d="M17.3863 20.8064C19.9653 20.8064 24.3751 19.0463 23.4692 22.5114C22.9405 24.5333 22.249 24.9922 20.4768 24.7554C18.6478 24.5117 18.7624 23.8805 17.4673 23.8805C16.1722 23.8805 16.1239 24.5117 14.2949 24.7554C12.5228 24.9914 11.8313 24.5333 11.3026 22.5114C10.3975 19.0463 14.8073 20.8064 17.3863 20.8064Z" fill="#FFDC5D"/>
<path d="M20.8303 23.638C21.3039 23.638 21.6914 23.2505 21.6914 22.7769V21.9158C21.6914 21.4422 21.3039 21.0547 20.8303 21.0547C20.3567 21.0547 19.9692 21.4422 19.9692 21.9158V22.7769C19.9692 23.2505 20.3567 23.638 20.8303 23.638ZM13.9414 23.638C14.415 23.638 14.8025 23.2505 14.8025 22.7769V21.9158C14.8025 21.4422 14.415 21.0547 13.9414 21.0547C13.4678 21.0547 13.0803 21.4422 13.0803 21.9158V22.7769C13.0803 23.2505 13.4678 23.638 13.9414 23.638Z" fill="#662113"/>
</g>
<defs>
<clipPath id="clip0_19193_136894">
<rect width="31" height="31" fill="white" transform="matrix(-1 0 0 1 32.8867 9)"/>
</clipPath>
</defs>
</svg>
