<svg width="80" height="50" viewBox="0 0 80 50" fill="none" xmlns="http://www.w3.org/2000/svg">
<path d="M31.0536 14.2727H31.0447L31.0362 14.2729L31.0361 14.2729L31.036 14.2729L31.0359 14.2729L31.0343 14.2729L31.0252 14.273L30.9854 14.2735C30.9494 14.2738 30.8948 14.274 30.8236 14.2739C30.6811 14.2736 30.4722 14.2717 30.2116 14.2649C29.6897 14.2513 28.9648 14.2184 28.1545 14.1417C26.4968 13.9847 24.6213 13.6552 23.3609 13.017C22.5447 12.6037 21.608 11.7344 20.7214 10.7246C19.8544 9.73724 19.1129 8.70644 18.6776 8.06978C18.0854 7.2038 16.8062 7.18186 16.1838 8.02476C15.7147 8.66018 14.9085 9.70011 13.9702 10.6955C13.012 11.7119 11.9986 12.5918 11.1206 13.0038C9.97363 13.5421 8.30338 13.8687 6.84231 14.0554C6.1269 14.1467 5.48886 14.2014 5.03009 14.2332C4.80103 14.2491 4.61751 14.2591 4.49238 14.2652C4.42983 14.2683 4.38194 14.2703 4.35031 14.2716L4.31999 14.2727H4.31568H4.31021H4.30475H4.2993H4.29385H4.28842H4.28299H4.27757H4.27216H4.26676H4.26137H4.25599H4.25061H4.24525H4.23989H4.23454H4.2292H4.22387H4.21854H4.21323H4.20792H4.20262H4.19733H4.19205H4.18678H4.18151H4.17626H4.17101H4.16577H4.16054H4.15532H4.1501H4.1449H4.1397H4.13451H4.12933H4.12416H4.119H4.11384H4.1087H4.10356H4.09843H4.09331H4.08819H4.08309H4.07799H4.0729H4.06782H4.06275H4.05769H4.05263H4.04759H4.04255H4.03752H4.0325H4.02748H4.02248H4.01748H4.01249H4.00751H4.00254H3.99757H3.99262H3.98767H3.98273H3.9778H3.97287H3.96796H3.96305H3.95815H3.95326H3.94838H3.94351H3.93864H3.93378H3.92893H3.92409H3.91926H3.91443H3.90961H3.9048H3.9H3.89521H3.89042H3.88565H3.88088H3.87612H3.87136H3.86662H3.86188H3.85715H3.85243H3.84772H3.84301H3.83832H3.83363H3.82895H3.82427H3.81961H3.81495H3.8103H3.80566H3.80103H3.7964H3.79179H3.78718H3.78258H3.77798H3.7734H3.76882H3.76425H3.75969H3.75513H3.75059H3.74605H3.74152H3.73699H3.73248H3.72797H3.72347H3.71898H3.7145H3.71002H3.70555H3.70109H3.69664H3.6922H3.68776H3.68333H3.67891H3.67449H3.67009H3.66569H3.6613H3.65692H3.65254H3.64817H3.64382H3.63946H3.63512H3.63078H3.62645H3.62213H3.61782H3.61351H3.60921H3.60492H3.60064H3.59637H3.5921H3.58784H3.58359H3.57934H3.5751H3.57087H3.56665H3.56244H3.55823H3.55403H3.54984H3.54565H3.54148H3.53731H3.53315H3.52899H3.52485H3.52071H3.51657H3.51245H3.50833H3.50422H3.50012H3.49603H3.49194H3.48786H3.48379H3.47972H3.47567H3.47162H3.46758H3.46354H3.45951H3.45549H3.45148H3.44748H3.44348H3.43949H3.4355H3.43153H3.42756H3.4236H3.41964H3.4157H3.41176H3.40783H3.4039H3.39998H3.39607H3.39217H3.38828H3.38439H3.38051H3.37663H3.37277H3.36891H3.36506H3.36121H3.35737H3.35354H3.34972H3.34591H3.3421H3.3383H3.3345H3.33071H3.32693H3.32316H3.3194H3.31564H3.31189H3.30814H3.30441H3.30068H3.29695H3.29324H3.28953H3.28583H3.28213H3.27845H3.27477H3.27109H3.26743H3.26377H3.26012H3.25647H3.25283H3.2492H3.24558H3.24196H3.23835H3.23475H3.23115H3.22756H3.22398H3.22041H3.21684H3.21328H3.20973H3.20618H3.20264H3.1991H3.19558H3.19206H3.18855H3.18504H3.18154H3.17805H3.17457H3.17109H3.16762H3.16415H3.1607H3.15725H3.1538H3.15036H3.14694H3.14351H3.1401H3.13669H3.13328H3.12989H3.1265H3.12312H3.11974H3.11637H3.11301H3.10965H3.10631H3.10296H3.09963H3.0963H3.09298H3.08966H3.08636H3.08305H3.07976H3.07647H3.07319H3.06992H3.06665H3.06339H3.06013H3.05688H3.05364H3.05041H3.04718H3.04396H3.04074H3.03753H3.03433H3.03114H3.02795H3.02477H3.02159H3.01842H3.01526H3.0121H3.00896H3.00581H3.00268H2.99955H2.99642H2.99331H2.9902H2.98709H2.984H2.98091H2.97782H2.97475H2.97167H2.96861H2.96555H2.9625H2.95945H2.95641H2.95338H2.95036H2.94734H2.94432H2.94132H2.93832H2.93532H2.93233H2.92935H2.92638H2.92341H2.92045H2.91749H2.91454H2.9116H2.90866H2.90573H2.90281H2.89989H2.89698H2.89407H2.89117H2.88828H2.88539H2.88251H2.87964H2.87677H2.87391H2.87105H2.8682H2.86536H2.86252H2.85969H2.85687H2.85405H2.85124H2.84843H2.84563H2.84284H2.84005H2.83727H2.8345H2.83173H2.82897H2.82621H2.82346H2.82071H2.81798H2.81524H2.81252H2.8098H2.80708H2.80438H2.80167H2.79898H2.79629H2.7936H2.79093H2.78826H2.78559H2.78293H2.78028H2.77763H2.77499H2.77235H2.76972H2.7671H2.76448H2.76187H2.75926H2.75666H2.75407H2.75148H2.7489H2.74633H2.74376H2.74119H2.73863H2.73608H2.73353H2.73099H2.72846H2.72593H2.72341H2.72089H2.71838H2.71587H2.71337H2.71088H2.70839H2.70591H2.70343H2.70096H2.6985H2.69604H2.69358H2.69114H2.6887H2.68626H2.68383H2.6814H2.67899H2.67657H2.67417H2.67176H2.66937H2.66698H2.66459H2.66222H2.65984H2.65747H2.65511H2.65276H2.65041H2.64806H2.64572H2.64339H2.64106H2.63874H2.63642H2.63411H2.63181H2.62951H2.62721H2.62492H2.62264H2.62036H2.61809H2.61582H2.61356H2.61131H2.60906H2.60681H2.60458H2.60234H2.60011H2.59789H2.59568H2.59346H2.59126H2.58906H2.58686H2.58467H2.58249H2.58031H2.57814H2.57597H2.57381H2.57165H2.5695H2.56736H2.56521H2.56308H2.56095H2.55883H2.55671H2.55459H2.55248H2.55038H2.54828H2.54619H2.54411H2.54202H2.53995H2.53788H2.53581H2.53375H2.5317H2.52965H2.5276H2.52556H2.52353H2.5215H2.51948H2.51746H2.51544H2.51344H2.51143H2.50944H2.50744H2.50546H2.50348H2.5015H2.49953C1.66987 14.2727 1 14.9455 1 15.7727V26.9609C1 36.0066 5.39224 41.5224 9.08114 44.5393C13.0294 47.7701 16.9437 48.8678 17.1678 48.9292L17.1685 48.9294C17.5136 49.0236 17.8776 49.0236 18.2227 48.9294L18.2234 48.9292C18.4475 48.8678 22.3618 47.7701 26.3101 44.5393C29.999 41.5224 34.3912 36.0066 34.3912 26.9609L34.3912 26.9586L34.3648 15.7716C34.3629 14.9454 33.693 14.2727 32.8632 14.2727H32.8612H32.8593H32.8573H32.8553H32.8534H32.8514H32.8494H32.8474H32.8454H32.8434H32.8414H32.8394H32.8374H32.8354H32.8334H32.8313H32.8293H32.8273H32.8252H32.8232H32.8211H32.819H32.817H32.8149H32.8128H32.8107H32.8087H32.8066H32.8045H32.8024H32.8003H32.7981H32.796H32.7939H32.7918H32.7896H32.7875H32.7854H32.7832H32.7811H32.7789H32.7767H32.7746H32.7724H32.7702H32.768H32.7658H32.7636H32.7614H32.7592H32.757H32.7548H32.7525H32.7503H32.7481H32.7458H32.7436H32.7413H32.7391H32.7368H32.7345H32.7323H32.73H32.7277H32.7254H32.7231H32.7208H32.7185H32.7162H32.7139H32.7116H32.7092H32.7069H32.7046H32.7022H32.6999H32.6975H32.6951H32.6928H32.6904H32.688H32.6856H32.6832H32.6808H32.6784H32.676H32.6736H32.6712H32.6688H32.6664H32.6639H32.6615H32.659H32.6566H32.6541H32.6517H32.6492H32.6467H32.6442H32.6417H32.6392H32.6368H32.6342H32.6317H32.6292H32.6267H32.6242H32.6216H32.6191H32.6166H32.614H32.6115H32.6089H32.6063H32.6038H32.6012H32.5986H32.596H32.5934H32.5908H32.5882H32.5856H32.583H32.5803H32.5777H32.5751H32.5724H32.5698H32.5671H32.5644H32.5618H32.5591H32.5564H32.5537H32.5511H32.5484H32.5457H32.5429H32.5402H32.5375H32.5348H32.5321H32.5293H32.5266H32.5238H32.5211H32.5183H32.5155H32.5128H32.51H32.5072H32.5044H32.5016H32.4988H32.496H32.4932H32.4903H32.4875H32.4847H32.4818H32.479H32.4761H32.4733H32.4704H32.4675H32.4646H32.4618H32.4589H32.456H32.4531H32.4502H32.4472H32.4443H32.4414H32.4385H32.4355H32.4326H32.4296H32.4267H32.4237H32.4207H32.4177H32.4148H32.4118H32.4088H32.4058H32.4028H32.3997H32.3967H32.3937H32.3907H32.3876H32.3846H32.3815H32.3785H32.3754H32.3723H32.3692H32.3662H32.3631H32.36H32.3569H32.3538H32.3506H32.3475H32.3444H32.3412H32.3381H32.335H32.3318H32.3286H32.3255H32.3223H32.3191H32.3159H32.3127H32.3095H32.3063H32.3031H32.2999H32.2967H32.2934H32.2902H32.2869H32.2837H32.2804H32.2772H32.2739H32.2706H32.2673H32.264H32.2607H32.2574H32.2541H32.2508H32.2475H32.2441H32.2408H32.2374H32.2341H32.2307H32.2274H32.224H32.2206H32.2172H32.2138H32.2104H32.207H32.2036H32.2002H32.1968H32.1934H32.1899H32.1865H32.183H32.1796H32.1761H32.1726H32.1691H32.1657H32.1622H32.1587H32.1552H32.1516H32.1481H32.1446H32.1411H32.1375H32.134H32.1304H32.1269H32.1233H32.1197H32.1161H32.1125H32.1089H32.1053H32.1017H32.0981H32.0945H32.0909H32.0872H32.0836H32.0799H32.0763H32.0726H32.0689H32.0653H32.0616H32.0579H32.0542H32.0505H32.0468H32.043H32.0393H32.0356H32.0318H32.0281H32.0243H32.0206H32.0168H32.013H32.0092H32.0055H32.0017H31.9979H31.994H31.9902H31.9864H31.9826H31.9787H31.9749H31.971H31.9672H31.9633H31.9594H31.9555H31.9516H31.9477H31.9438H31.9399H31.936H31.9321H31.9282H31.9242H31.9203H31.9163H31.9123H31.9084H31.9044H31.9004H31.8964H31.8924H31.8884H31.8844H31.8804H31.8764H31.8723H31.8683H31.8642H31.8602H31.8561H31.852H31.848H31.8439H31.8398H31.8357H31.8316H31.8275H31.8233H31.8192H31.8151H31.8109H31.8068H31.8026H31.7985H31.7943H31.7901H31.7859H31.7817H31.7775H31.7733H31.7691H31.7649H31.7606H31.7564H31.7521H31.7479H31.7436H31.7393H31.7351H31.7308H31.7265H31.7222H31.7179H31.7136H31.7092H31.7049H31.7006H31.6962H31.6919H31.6875H31.6831H31.6788H31.6744H31.67H31.6656H31.6612H31.6568H31.6523H31.6479H31.6435H31.639H31.6346H31.6301H31.6256H31.6212H31.6167H31.6122H31.6077H31.6032H31.5987H31.5941H31.5896H31.5851H31.5805H31.576H31.5714H31.5669H31.5623H31.5577H31.5531H31.5485H31.5439H31.5393H31.5347H31.53H31.5254H31.5207H31.5161H31.5114H31.5068H31.5021H31.4974H31.4927H31.488H31.4833H31.4786H31.4738H31.4691H31.4644H31.4596H31.4549H31.4501H31.4453H31.4405H31.4358H31.431H31.4262H31.4214H31.4165H31.4117H31.4069H31.402H31.3972H31.3923H31.3874H31.3826H31.3777H31.3728H31.3679H31.363H31.3581H31.3531H31.3482H31.3433H31.3383H31.3334H31.3284H31.3234H31.3185H31.3135H31.3085H31.3035H31.2984H31.2934H31.2884H31.2834H31.2783H31.2733H31.2682H31.2631H31.2581H31.253H31.2479H31.2428H31.2377H31.2325H31.2274H31.2223H31.2171H31.212H31.2068H31.2016H31.1965H31.1913H31.1861H31.1809H31.1757H31.1705H31.1652H31.16H31.1548H31.1495H31.1443H31.139H31.1337H31.1284H31.1231H31.1178H31.1125H31.1072H31.1019H31.0965H31.0912H31.0858H31.0805H31.0751H31.0697H31.0644H31.059H31.0536Z" fill="#BE9F00"/>
<path d="M31.0536 14.2727H31.0447L31.0362 14.2729L31.0361 14.2729L31.036 14.2729L31.0359 14.2729L31.0343 14.2729L31.0252 14.273L30.9854 14.2735C30.9494 14.2738 30.8948 14.274 30.8236 14.2739C30.6811 14.2736 30.4722 14.2717 30.2116 14.2649C29.6897 14.2513 28.9648 14.2184 28.1545 14.1417C26.4968 13.9847 24.6213 13.6552 23.3609 13.017C22.5447 12.6037 21.608 11.7344 20.7214 10.7246C19.8544 9.73724 19.1129 8.70644 18.6776 8.06978C18.0854 7.2038 16.8062 7.18186 16.1838 8.02476C15.7147 8.66018 14.9085 9.70011 13.9702 10.6955C13.012 11.7119 11.9986 12.5918 11.1206 13.0038C9.97363 13.5421 8.30338 13.8687 6.84231 14.0554C6.1269 14.1467 5.48886 14.2014 5.03009 14.2332C4.80103 14.2491 4.61751 14.2591 4.49238 14.2652C4.42983 14.2683 4.38194 14.2703 4.35031 14.2716L4.31999 14.2727H4.31568H4.31021H4.30475H4.2993H4.29385H4.28842H4.28299H4.27757H4.27216H4.26676H4.26137H4.25599H4.25061H4.24525H4.23989H4.23454H4.2292H4.22387H4.21854H4.21323H4.20792H4.20262H4.19733H4.19205H4.18678H4.18151H4.17626H4.17101H4.16577H4.16054H4.15532H4.1501H4.1449H4.1397H4.13451H4.12933H4.12416H4.119H4.11384H4.1087H4.10356H4.09843H4.09331H4.08819H4.08309H4.07799H4.0729H4.06782H4.06275H4.05769H4.05263H4.04759H4.04255H4.03752H4.0325H4.02748H4.02248H4.01748H4.01249H4.00751H4.00254H3.99757H3.99262H3.98767H3.98273H3.9778H3.97287H3.96796H3.96305H3.95815H3.95326H3.94838H3.94351H3.93864H3.93378H3.92893H3.92409H3.91926H3.91443H3.90961H3.9048H3.9H3.89521H3.89042H3.88565H3.88088H3.87612H3.87136H3.86662H3.86188H3.85715H3.85243H3.84772H3.84301H3.83832H3.83363H3.82895H3.82427H3.81961H3.81495H3.8103H3.80566H3.80103H3.7964H3.79179H3.78718H3.78258H3.77798H3.7734H3.76882H3.76425H3.75969H3.75513H3.75059H3.74605H3.74152H3.73699H3.73248H3.72797H3.72347H3.71898H3.7145H3.71002H3.70555H3.70109H3.69664H3.6922H3.68776H3.68333H3.67891H3.67449H3.67009H3.66569H3.6613H3.65692H3.65254H3.64817H3.64382H3.63946H3.63512H3.63078H3.62645H3.62213H3.61782H3.61351H3.60921H3.60492H3.60064H3.59637H3.5921H3.58784H3.58359H3.57934H3.5751H3.57087H3.56665H3.56244H3.55823H3.55403H3.54984H3.54565H3.54148H3.53731H3.53315H3.52899H3.52485H3.52071H3.51657H3.51245H3.50833H3.50422H3.50012H3.49603H3.49194H3.48786H3.48379H3.47972H3.47567H3.47162H3.46758H3.46354H3.45951H3.45549H3.45148H3.44748H3.44348H3.43949H3.4355H3.43153H3.42756H3.4236H3.41964H3.4157H3.41176H3.40783H3.4039H3.39998H3.39607H3.39217H3.38828H3.38439H3.38051H3.37663H3.37277H3.36891H3.36506H3.36121H3.35737H3.35354H3.34972H3.34591H3.3421H3.3383H3.3345H3.33071H3.32693H3.32316H3.3194H3.31564H3.31189H3.30814H3.30441H3.30068H3.29695H3.29324H3.28953H3.28583H3.28213H3.27845H3.27477H3.27109H3.26743H3.26377H3.26012H3.25647H3.25283H3.2492H3.24558H3.24196H3.23835H3.23475H3.23115H3.22756H3.22398H3.22041H3.21684H3.21328H3.20973H3.20618H3.20264H3.1991H3.19558H3.19206H3.18855H3.18504H3.18154H3.17805H3.17457H3.17109H3.16762H3.16415H3.1607H3.15725H3.1538H3.15036H3.14694H3.14351H3.1401H3.13669H3.13328H3.12989H3.1265H3.12312H3.11974H3.11637H3.11301H3.10965H3.10631H3.10296H3.09963H3.0963H3.09298H3.08966H3.08636H3.08305H3.07976H3.07647H3.07319H3.06992H3.06665H3.06339H3.06013H3.05688H3.05364H3.05041H3.04718H3.04396H3.04074H3.03753H3.03433H3.03114H3.02795H3.02477H3.02159H3.01842H3.01526H3.0121H3.00896H3.00581H3.00268H2.99955H2.99642H2.99331H2.9902H2.98709H2.984H2.98091H2.97782H2.97475H2.97167H2.96861H2.96555H2.9625H2.95945H2.95641H2.95338H2.95036H2.94734H2.94432H2.94132H2.93832H2.93532H2.93233H2.92935H2.92638H2.92341H2.92045H2.91749H2.91454H2.9116H2.90866H2.90573H2.90281H2.89989H2.89698H2.89407H2.89117H2.88828H2.88539H2.88251H2.87964H2.87677H2.87391H2.87105H2.8682H2.86536H2.86252H2.85969H2.85687H2.85405H2.85124H2.84843H2.84563H2.84284H2.84005H2.83727H2.8345H2.83173H2.82897H2.82621H2.82346H2.82071H2.81798H2.81524H2.81252H2.8098H2.80708H2.80438H2.80167H2.79898H2.79629H2.7936H2.79093H2.78826H2.78559H2.78293H2.78028H2.77763H2.77499H2.77235H2.76972H2.7671H2.76448H2.76187H2.75926H2.75666H2.75407H2.75148H2.7489H2.74633H2.74376H2.74119H2.73863H2.73608H2.73353H2.73099H2.72846H2.72593H2.72341H2.72089H2.71838H2.71587H2.71337H2.71088H2.70839H2.70591H2.70343H2.70096H2.6985H2.69604H2.69358H2.69114H2.6887H2.68626H2.68383H2.6814H2.67899H2.67657H2.67417H2.67176H2.66937H2.66698H2.66459H2.66222H2.65984H2.65747H2.65511H2.65276H2.65041H2.64806H2.64572H2.64339H2.64106H2.63874H2.63642H2.63411H2.63181H2.62951H2.62721H2.62492H2.62264H2.62036H2.61809H2.61582H2.61356H2.61131H2.60906H2.60681H2.60458H2.60234H2.60011H2.59789H2.59568H2.59346H2.59126H2.58906H2.58686H2.58467H2.58249H2.58031H2.57814H2.57597H2.57381H2.57165H2.5695H2.56736H2.56521H2.56308H2.56095H2.55883H2.55671H2.55459H2.55248H2.55038H2.54828H2.54619H2.54411H2.54202H2.53995H2.53788H2.53581H2.53375H2.5317H2.52965H2.5276H2.52556H2.52353H2.5215H2.51948H2.51746H2.51544H2.51344H2.51143H2.50944H2.50744H2.50546H2.50348H2.5015H2.49953C1.66987 14.2727 1 14.9455 1 15.7727V26.9609C1 36.0066 5.39224 41.5224 9.08114 44.5393C13.0294 47.7701 16.9437 48.8678 17.1678 48.9292L17.1685 48.9294C17.5136 49.0236 17.8776 49.0236 18.2227 48.9294L18.2234 48.9292C18.4475 48.8678 22.3618 47.7701 26.3101 44.5393C29.999 41.5224 34.3912 36.0066 34.3912 26.9609L34.3912 26.9586L34.3648 15.7716C34.3629 14.9454 33.693 14.2727 32.8632 14.2727H32.8612H32.8593H32.8573H32.8553H32.8534H32.8514H32.8494H32.8474H32.8454H32.8434H32.8414H32.8394H32.8374H32.8354H32.8334H32.8313H32.8293H32.8273H32.8252H32.8232H32.8211H32.819H32.817H32.8149H32.8128H32.8107H32.8087H32.8066H32.8045H32.8024H32.8003H32.7981H32.796H32.7939H32.7918H32.7896H32.7875H32.7854H32.7832H32.7811H32.7789H32.7767H32.7746H32.7724H32.7702H32.768H32.7658H32.7636H32.7614H32.7592H32.757H32.7548H32.7525H32.7503H32.7481H32.7458H32.7436H32.7413H32.7391H32.7368H32.7345H32.7323H32.73H32.7277H32.7254H32.7231H32.7208H32.7185H32.7162H32.7139H32.7116H32.7092H32.7069H32.7046H32.7022H32.6999H32.6975H32.6951H32.6928H32.6904H32.688H32.6856H32.6832H32.6808H32.6784H32.676H32.6736H32.6712H32.6688H32.6664H32.6639H32.6615H32.659H32.6566H32.6541H32.6517H32.6492H32.6467H32.6442H32.6417H32.6392H32.6368H32.6342H32.6317H32.6292H32.6267H32.6242H32.6216H32.6191H32.6166H32.614H32.6115H32.6089H32.6063H32.6038H32.6012H32.5986H32.596H32.5934H32.5908H32.5882H32.5856H32.583H32.5803H32.5777H32.5751H32.5724H32.5698H32.5671H32.5644H32.5618H32.5591H32.5564H32.5537H32.5511H32.5484H32.5457H32.5429H32.5402H32.5375H32.5348H32.5321H32.5293H32.5266H32.5238H32.5211H32.5183H32.5155H32.5128H32.51H32.5072H32.5044H32.5016H32.4988H32.496H32.4932H32.4903H32.4875H32.4847H32.4818H32.479H32.4761H32.4733H32.4704H32.4675H32.4646H32.4618H32.4589H32.456H32.4531H32.4502H32.4472H32.4443H32.4414H32.4385H32.4355H32.4326H32.4296H32.4267H32.4237H32.4207H32.4177H32.4148H32.4118H32.4088H32.4058H32.4028H32.3997H32.3967H32.3937H32.3907H32.3876H32.3846H32.3815H32.3785H32.3754H32.3723H32.3692H32.3662H32.3631H32.36H32.3569H32.3538H32.3506H32.3475H32.3444H32.3412H32.3381H32.335H32.3318H32.3286H32.3255H32.3223H32.3191H32.3159H32.3127H32.3095H32.3063H32.3031H32.2999H32.2967H32.2934H32.2902H32.2869H32.2837H32.2804H32.2772H32.2739H32.2706H32.2673H32.264H32.2607H32.2574H32.2541H32.2508H32.2475H32.2441H32.2408H32.2374H32.2341H32.2307H32.2274H32.224H32.2206H32.2172H32.2138H32.2104H32.207H32.2036H32.2002H32.1968H32.1934H32.1899H32.1865H32.183H32.1796H32.1761H32.1726H32.1691H32.1657H32.1622H32.1587H32.1552H32.1516H32.1481H32.1446H32.1411H32.1375H32.134H32.1304H32.1269H32.1233H32.1197H32.1161H32.1125H32.1089H32.1053H32.1017H32.0981H32.0945H32.0909H32.0872H32.0836H32.0799H32.0763H32.0726H32.0689H32.0653H32.0616H32.0579H32.0542H32.0505H32.0468H32.043H32.0393H32.0356H32.0318H32.0281H32.0243H32.0206H32.0168H32.013H32.0092H32.0055H32.0017H31.9979H31.994H31.9902H31.9864H31.9826H31.9787H31.9749H31.971H31.9672H31.9633H31.9594H31.9555H31.9516H31.9477H31.9438H31.9399H31.936H31.9321H31.9282H31.9242H31.9203H31.9163H31.9123H31.9084H31.9044H31.9004H31.8964H31.8924H31.8884H31.8844H31.8804H31.8764H31.8723H31.8683H31.8642H31.8602H31.8561H31.852H31.848H31.8439H31.8398H31.8357H31.8316H31.8275H31.8233H31.8192H31.8151H31.8109H31.8068H31.8026H31.7985H31.7943H31.7901H31.7859H31.7817H31.7775H31.7733H31.7691H31.7649H31.7606H31.7564H31.7521H31.7479H31.7436H31.7393H31.7351H31.7308H31.7265H31.7222H31.7179H31.7136H31.7092H31.7049H31.7006H31.6962H31.6919H31.6875H31.6831H31.6788H31.6744H31.67H31.6656H31.6612H31.6568H31.6523H31.6479H31.6435H31.639H31.6346H31.6301H31.6256H31.6212H31.6167H31.6122H31.6077H31.6032H31.5987H31.5941H31.5896H31.5851H31.5805H31.576H31.5714H31.5669H31.5623H31.5577H31.5531H31.5485H31.5439H31.5393H31.5347H31.53H31.5254H31.5207H31.5161H31.5114H31.5068H31.5021H31.4974H31.4927H31.488H31.4833H31.4786H31.4738H31.4691H31.4644H31.4596H31.4549H31.4501H31.4453H31.4405H31.4358H31.431H31.4262H31.4214H31.4165H31.4117H31.4069H31.402H31.3972H31.3923H31.3874H31.3826H31.3777H31.3728H31.3679H31.363H31.3581H31.3531H31.3482H31.3433H31.3383H31.3334H31.3284H31.3234H31.3185H31.3135H31.3085H31.3035H31.2984H31.2934H31.2884H31.2834H31.2783H31.2733H31.2682H31.2631H31.2581H31.253H31.2479H31.2428H31.2377H31.2325H31.2274H31.2223H31.2171H31.212H31.2068H31.2016H31.1965H31.1913H31.1861H31.1809H31.1757H31.1705H31.1652H31.16H31.1548H31.1495H31.1443H31.139H31.1337H31.1284H31.1231H31.1178H31.1125H31.1072H31.1019H31.0965H31.0912H31.0858H31.0805H31.0751H31.0697H31.0644H31.059H31.0536Z" fill="#DAB700"/>
<path d="M31.0536 14.2727H31.0447L31.0362 14.2729L31.0361 14.2729L31.036 14.2729L31.0359 14.2729L31.0343 14.2729L31.0252 14.273L30.9854 14.2735C30.9494 14.2738 30.8948 14.274 30.8236 14.2739C30.6811 14.2736 30.4722 14.2717 30.2116 14.2649C29.6897 14.2513 28.9648 14.2184 28.1545 14.1417C26.4968 13.9847 24.6213 13.6552 23.3609 13.017C22.5447 12.6037 21.608 11.7344 20.7214 10.7246C19.8544 9.73724 19.1129 8.70644 18.6776 8.06978C18.0854 7.2038 16.8062 7.18186 16.1838 8.02476C15.7147 8.66018 14.9085 9.70011 13.9702 10.6955C13.012 11.7119 11.9986 12.5918 11.1206 13.0038C9.97363 13.5421 8.30338 13.8687 6.84231 14.0554C6.1269 14.1467 5.48886 14.2014 5.03009 14.2332C4.80103 14.2491 4.61751 14.2591 4.49238 14.2652C4.42983 14.2683 4.38194 14.2703 4.35031 14.2716L4.31999 14.2727H4.31568H4.31021H4.30475H4.2993H4.29385H4.28842H4.28299H4.27757H4.27216H4.26676H4.26137H4.25599H4.25061H4.24525H4.23989H4.23454H4.2292H4.22387H4.21854H4.21323H4.20792H4.20262H4.19733H4.19205H4.18678H4.18151H4.17626H4.17101H4.16577H4.16054H4.15532H4.1501H4.1449H4.1397H4.13451H4.12933H4.12416H4.119H4.11384H4.1087H4.10356H4.09843H4.09331H4.08819H4.08309H4.07799H4.0729H4.06782H4.06275H4.05769H4.05263H4.04759H4.04255H4.03752H4.0325H4.02748H4.02248H4.01748H4.01249H4.00751H4.00254H3.99757H3.99262H3.98767H3.98273H3.9778H3.97287H3.96796H3.96305H3.95815H3.95326H3.94838H3.94351H3.93864H3.93378H3.92893H3.92409H3.91926H3.91443H3.90961H3.9048H3.9H3.89521H3.89042H3.88565H3.88088H3.87612H3.87136H3.86662H3.86188H3.85715H3.85243H3.84772H3.84301H3.83832H3.83363H3.82895H3.82427H3.81961H3.81495H3.8103H3.80566H3.80103H3.7964H3.79179H3.78718H3.78258H3.77798H3.7734H3.76882H3.76425H3.75969H3.75513H3.75059H3.74605H3.74152H3.73699H3.73248H3.72797H3.72347H3.71898H3.7145H3.71002H3.70555H3.70109H3.69664H3.6922H3.68776H3.68333H3.67891H3.67449H3.67009H3.66569H3.6613H3.65692H3.65254H3.64817H3.64382H3.63946H3.63512H3.63078H3.62645H3.62213H3.61782H3.61351H3.60921H3.60492H3.60064H3.59637H3.5921H3.58784H3.58359H3.57934H3.5751H3.57087H3.56665H3.56244H3.55823H3.55403H3.54984H3.54565H3.54148H3.53731H3.53315H3.52899H3.52485H3.52071H3.51657H3.51245H3.50833H3.50422H3.50012H3.49603H3.49194H3.48786H3.48379H3.47972H3.47567H3.47162H3.46758H3.46354H3.45951H3.45549H3.45148H3.44748H3.44348H3.43949H3.4355H3.43153H3.42756H3.4236H3.41964H3.4157H3.41176H3.40783H3.4039H3.39998H3.39607H3.39217H3.38828H3.38439H3.38051H3.37663H3.37277H3.36891H3.36506H3.36121H3.35737H3.35354H3.34972H3.34591H3.3421H3.3383H3.3345H3.33071H3.32693H3.32316H3.3194H3.31564H3.31189H3.30814H3.30441H3.30068H3.29695H3.29324H3.28953H3.28583H3.28213H3.27845H3.27477H3.27109H3.26743H3.26377H3.26012H3.25647H3.25283H3.2492H3.24558H3.24196H3.23835H3.23475H3.23115H3.22756H3.22398H3.22041H3.21684H3.21328H3.20973H3.20618H3.20264H3.1991H3.19558H3.19206H3.18855H3.18504H3.18154H3.17805H3.17457H3.17109H3.16762H3.16415H3.1607H3.15725H3.1538H3.15036H3.14694H3.14351H3.1401H3.13669H3.13328H3.12989H3.1265H3.12312H3.11974H3.11637H3.11301H3.10965H3.10631H3.10296H3.09963H3.0963H3.09298H3.08966H3.08636H3.08305H3.07976H3.07647H3.07319H3.06992H3.06665H3.06339H3.06013H3.05688H3.05364H3.05041H3.04718H3.04396H3.04074H3.03753H3.03433H3.03114H3.02795H3.02477H3.02159H3.01842H3.01526H3.0121H3.00896H3.00581H3.00268H2.99955H2.99642H2.99331H2.9902H2.98709H2.984H2.98091H2.97782H2.97475H2.97167H2.96861H2.96555H2.9625H2.95945H2.95641H2.95338H2.95036H2.94734H2.94432H2.94132H2.93832H2.93532H2.93233H2.92935H2.92638H2.92341H2.92045H2.91749H2.91454H2.9116H2.90866H2.90573H2.90281H2.89989H2.89698H2.89407H2.89117H2.88828H2.88539H2.88251H2.87964H2.87677H2.87391H2.87105H2.8682H2.86536H2.86252H2.85969H2.85687H2.85405H2.85124H2.84843H2.84563H2.84284H2.84005H2.83727H2.8345H2.83173H2.82897H2.82621H2.82346H2.82071H2.81798H2.81524H2.81252H2.8098H2.80708H2.80438H2.80167H2.79898H2.79629H2.7936H2.79093H2.78826H2.78559H2.78293H2.78028H2.77763H2.77499H2.77235H2.76972H2.7671H2.76448H2.76187H2.75926H2.75666H2.75407H2.75148H2.7489H2.74633H2.74376H2.74119H2.73863H2.73608H2.73353H2.73099H2.72846H2.72593H2.72341H2.72089H2.71838H2.71587H2.71337H2.71088H2.70839H2.70591H2.70343H2.70096H2.6985H2.69604H2.69358H2.69114H2.6887H2.68626H2.68383H2.6814H2.67899H2.67657H2.67417H2.67176H2.66937H2.66698H2.66459H2.66222H2.65984H2.65747H2.65511H2.65276H2.65041H2.64806H2.64572H2.64339H2.64106H2.63874H2.63642H2.63411H2.63181H2.62951H2.62721H2.62492H2.62264H2.62036H2.61809H2.61582H2.61356H2.61131H2.60906H2.60681H2.60458H2.60234H2.60011H2.59789H2.59568H2.59346H2.59126H2.58906H2.58686H2.58467H2.58249H2.58031H2.57814H2.57597H2.57381H2.57165H2.5695H2.56736H2.56521H2.56308H2.56095H2.55883H2.55671H2.55459H2.55248H2.55038H2.54828H2.54619H2.54411H2.54202H2.53995H2.53788H2.53581H2.53375H2.5317H2.52965H2.5276H2.52556H2.52353H2.5215H2.51948H2.51746H2.51544H2.51344H2.51143H2.50944H2.50744H2.50546H2.50348H2.5015H2.49953C1.66987 14.2727 1 14.9455 1 15.7727V26.9609C1 36.0066 5.39224 41.5224 9.08114 44.5393C13.0294 47.7701 16.9437 48.8678 17.1678 48.9292L17.1685 48.9294C17.5136 49.0236 17.8776 49.0236 18.2227 48.9294L18.2234 48.9292C18.4475 48.8678 22.3618 47.7701 26.3101 44.5393C29.999 41.5224 34.3912 36.0066 34.3912 26.9609L34.3912 26.9586L34.3648 15.7716C34.3629 14.9454 33.693 14.2727 32.8632 14.2727H32.8612H32.8593H32.8573H32.8553H32.8534H32.8514H32.8494H32.8474H32.8454H32.8434H32.8414H32.8394H32.8374H32.8354H32.8334H32.8313H32.8293H32.8273H32.8252H32.8232H32.8211H32.819H32.817H32.8149H32.8128H32.8107H32.8087H32.8066H32.8045H32.8024H32.8003H32.7981H32.796H32.7939H32.7918H32.7896H32.7875H32.7854H32.7832H32.7811H32.7789H32.7767H32.7746H32.7724H32.7702H32.768H32.7658H32.7636H32.7614H32.7592H32.757H32.7548H32.7525H32.7503H32.7481H32.7458H32.7436H32.7413H32.7391H32.7368H32.7345H32.7323H32.73H32.7277H32.7254H32.7231H32.7208H32.7185H32.7162H32.7139H32.7116H32.7092H32.7069H32.7046H32.7022H32.6999H32.6975H32.6951H32.6928H32.6904H32.688H32.6856H32.6832H32.6808H32.6784H32.676H32.6736H32.6712H32.6688H32.6664H32.6639H32.6615H32.659H32.6566H32.6541H32.6517H32.6492H32.6467H32.6442H32.6417H32.6392H32.6368H32.6342H32.6317H32.6292H32.6267H32.6242H32.6216H32.6191H32.6166H32.614H32.6115H32.6089H32.6063H32.6038H32.6012H32.5986H32.596H32.5934H32.5908H32.5882H32.5856H32.583H32.5803H32.5777H32.5751H32.5724H32.5698H32.5671H32.5644H32.5618H32.5591H32.5564H32.5537H32.5511H32.5484H32.5457H32.5429H32.5402H32.5375H32.5348H32.5321H32.5293H32.5266H32.5238H32.5211H32.5183H32.5155H32.5128H32.51H32.5072H32.5044H32.5016H32.4988H32.496H32.4932H32.4903H32.4875H32.4847H32.4818H32.479H32.4761H32.4733H32.4704H32.4675H32.4646H32.4618H32.4589H32.456H32.4531H32.4502H32.4472H32.4443H32.4414H32.4385H32.4355H32.4326H32.4296H32.4267H32.4237H32.4207H32.4177H32.4148H32.4118H32.4088H32.4058H32.4028H32.3997H32.3967H32.3937H32.3907H32.3876H32.3846H32.3815H32.3785H32.3754H32.3723H32.3692H32.3662H32.3631H32.36H32.3569H32.3538H32.3506H32.3475H32.3444H32.3412H32.3381H32.335H32.3318H32.3286H32.3255H32.3223H32.3191H32.3159H32.3127H32.3095H32.3063H32.3031H32.2999H32.2967H32.2934H32.2902H32.2869H32.2837H32.2804H32.2772H32.2739H32.2706H32.2673H32.264H32.2607H32.2574H32.2541H32.2508H32.2475H32.2441H32.2408H32.2374H32.2341H32.2307H32.2274H32.224H32.2206H32.2172H32.2138H32.2104H32.207H32.2036H32.2002H32.1968H32.1934H32.1899H32.1865H32.183H32.1796H32.1761H32.1726H32.1691H32.1657H32.1622H32.1587H32.1552H32.1516H32.1481H32.1446H32.1411H32.1375H32.134H32.1304H32.1269H32.1233H32.1197H32.1161H32.1125H32.1089H32.1053H32.1017H32.0981H32.0945H32.0909H32.0872H32.0836H32.0799H32.0763H32.0726H32.0689H32.0653H32.0616H32.0579H32.0542H32.0505H32.0468H32.043H32.0393H32.0356H32.0318H32.0281H32.0243H32.0206H32.0168H32.013H32.0092H32.0055H32.0017H31.9979H31.994H31.9902H31.9864H31.9826H31.9787H31.9749H31.971H31.9672H31.9633H31.9594H31.9555H31.9516H31.9477H31.9438H31.9399H31.936H31.9321H31.9282H31.9242H31.9203H31.9163H31.9123H31.9084H31.9044H31.9004H31.8964H31.8924H31.8884H31.8844H31.8804H31.8764H31.8723H31.8683H31.8642H31.8602H31.8561H31.852H31.848H31.8439H31.8398H31.8357H31.8316H31.8275H31.8233H31.8192H31.8151H31.8109H31.8068H31.8026H31.7985H31.7943H31.7901H31.7859H31.7817H31.7775H31.7733H31.7691H31.7649H31.7606H31.7564H31.7521H31.7479H31.7436H31.7393H31.7351H31.7308H31.7265H31.7222H31.7179H31.7136H31.7092H31.7049H31.7006H31.6962H31.6919H31.6875H31.6831H31.6788H31.6744H31.67H31.6656H31.6612H31.6568H31.6523H31.6479H31.6435H31.639H31.6346H31.6301H31.6256H31.6212H31.6167H31.6122H31.6077H31.6032H31.5987H31.5941H31.5896H31.5851H31.5805H31.576H31.5714H31.5669H31.5623H31.5577H31.5531H31.5485H31.5439H31.5393H31.5347H31.53H31.5254H31.5207H31.5161H31.5114H31.5068H31.5021H31.4974H31.4927H31.488H31.4833H31.4786H31.4738H31.4691H31.4644H31.4596H31.4549H31.4501H31.4453H31.4405H31.4358H31.431H31.4262H31.4214H31.4165H31.4117H31.4069H31.402H31.3972H31.3923H31.3874H31.3826H31.3777H31.3728H31.3679H31.363H31.3581H31.3531H31.3482H31.3433H31.3383H31.3334H31.3284H31.3234H31.3185H31.3135H31.3085H31.3035H31.2984H31.2934H31.2884H31.2834H31.2783H31.2733H31.2682H31.2631H31.2581H31.253H31.2479H31.2428H31.2377H31.2325H31.2274H31.2223H31.2171H31.212H31.2068H31.2016H31.1965H31.1913H31.1861H31.1809H31.1757H31.1705H31.1652H31.16H31.1548H31.1495H31.1443H31.139H31.1337H31.1284H31.1231H31.1178H31.1125H31.1072H31.1019H31.0965H31.0912H31.0858H31.0805H31.0751H31.0697H31.0644H31.059H31.0536Z" stroke="#61656C" stroke-width="2"/>
<g filter="url(#filter0_d_259_16661)">
<path fill-rule="evenodd" clip-rule="evenodd" d="M22.9091 13.909C25.7862 15.3659 33.3637 15.2727 33.3637 15.2727L33.3912 26.9609C33.3912 35.6335 29.1968 40.8865 25.677 43.7652C21.8817 46.8709 18.118 47.9212 17.9594 47.9646C17.7867 48.0117 17.6045 48.0117 17.4318 47.9646C17.2732 47.9212 13.5096 46.8709 9.71422 43.7652C6.1944 40.8865 2 35.6335 2 26.9609L1.99997 15.2727C1.99997 15.2727 8.95206 15.126 11.5455 13.909C13.6579 12.9177 16.025 9.92334 16.9883 8.61867C17.2023 8.32886 17.6487 8.33677 17.8521 8.63415C18.7465 9.94227 20.9196 12.9016 22.9091 13.909ZM25.0574 22.0668C23.297 20.2995 20.9253 19.3107 18.4547 19.3182L18.406 19.3182L18.4047 19.3182C15.911 19.3247 13.5239 20.3453 11.7684 22.151L10.9145 23.0252V20.9879C10.9145 20.704 10.8044 20.4295 10.605 20.2253C10.4051 20.0207 10.1315 19.9035 9.84365 19.9035C9.55582 19.9035 9.28221 20.0207 9.08234 20.2253C8.88286 20.4295 8.77283 20.704 8.77283 20.9879V25.6629C8.77283 25.9468 8.88286 26.2213 9.08234 26.4255C9.28221 26.6301 9.55581 26.7473 9.84365 26.7473H14.4103C14.6981 26.7473 14.9717 26.6301 15.1716 26.4255C15.371 26.2213 15.4811 25.9468 15.4811 25.6629C15.4811 25.3791 15.371 25.1045 15.1716 24.9003C14.9717 24.6957 14.6981 24.5785 14.4103 24.5785H12.4109L13.2963 23.6747C14.6555 22.2822 16.4936 21.4965 18.4113 21.4843C20.329 21.472 22.1765 22.2341 23.5525 23.609L23.5583 23.6148L23.5644 23.6204C23.7688 23.8117 24.0403 23.916 24.3217 23.9078C24.6032 23.8996 24.868 23.7797 25.0611 23.5773C25.2539 23.3753 25.3605 23.1068 25.3618 22.8291C25.3631 22.5513 25.259 22.2819 25.0683 22.078L25.0629 22.0723L25.0574 22.0668ZM9.85161 33.928C11.6112 35.6971 13.983 36.6878 16.4543 36.6817H16.5033L16.5046 36.6817C18.9983 36.6752 21.3854 35.6546 23.1409 33.8489L23.9948 32.9723V35.013C23.9948 35.2968 24.1049 35.5714 24.3043 35.7756C24.5042 35.9802 24.7778 36.0974 25.0657 36.0974C25.3535 36.0974 25.6271 35.9802 25.827 35.7756C26.0264 35.5714 26.1365 35.2968 26.1365 35.013V30.3379C26.1365 30.0541 26.0264 29.7796 25.827 29.5753C25.6271 29.3707 25.3535 29.2536 25.0657 29.2536H20.4991C20.2112 29.2536 19.9376 29.3707 19.7377 29.5753C19.5383 29.7796 19.4282 30.0541 19.4282 30.3379C19.4282 30.6218 19.5383 30.8963 19.7377 31.1005C19.9376 31.3052 20.2112 31.4223 20.4991 31.4223H22.4984L21.6136 32.3256L21.6124 32.3269C20.2553 33.7223 18.4153 34.5071 16.4971 34.513L16.4538 34.513L16.4526 34.513C14.5498 34.5177 12.7193 33.7553 11.3578 32.3871L11.3515 32.3807L11.3449 32.3746C11.1405 32.1833 10.869 32.079 10.5876 32.0872C10.3061 32.0954 10.0413 32.2153 9.8482 32.4177C9.65544 32.6197 9.54883 32.8882 9.54752 33.166C9.54621 33.4437 9.65026 33.7132 9.84104 33.917L9.84624 33.9226L9.85161 33.928Z" fill="#FFD601"/>
<path fill-rule="evenodd" clip-rule="evenodd" d="M22.9091 13.909C25.7862 15.3659 33.3637 15.2727 33.3637 15.2727L33.3912 26.9609C33.3912 35.6335 29.1968 40.8865 25.677 43.7652C21.8817 46.8709 18.118 47.9212 17.9594 47.9646C17.7867 48.0117 17.6045 48.0117 17.4318 47.9646C17.2732 47.9212 13.5096 46.8709 9.71422 43.7652C6.1944 40.8865 2 35.6335 2 26.9609L1.99997 15.2727C1.99997 15.2727 8.95206 15.126 11.5455 13.909C13.6579 12.9177 16.025 9.92334 16.9883 8.61867C17.2023 8.32886 17.6487 8.33677 17.8521 8.63415C18.7465 9.94227 20.9196 12.9016 22.9091 13.909ZM25.0574 22.0668C23.297 20.2995 20.9253 19.3107 18.4547 19.3182L18.406 19.3182L18.4047 19.3182C15.911 19.3247 13.5239 20.3453 11.7684 22.151L10.9145 23.0252V20.9879C10.9145 20.704 10.8044 20.4295 10.605 20.2253C10.4051 20.0207 10.1315 19.9035 9.84365 19.9035C9.55582 19.9035 9.28221 20.0207 9.08234 20.2253C8.88286 20.4295 8.77283 20.704 8.77283 20.9879V25.6629C8.77283 25.9468 8.88286 26.2213 9.08234 26.4255C9.28221 26.6301 9.55581 26.7473 9.84365 26.7473H14.4103C14.6981 26.7473 14.9717 26.6301 15.1716 26.4255C15.371 26.2213 15.4811 25.9468 15.4811 25.6629C15.4811 25.3791 15.371 25.1045 15.1716 24.9003C14.9717 24.6957 14.6981 24.5785 14.4103 24.5785H12.4109L13.2963 23.6747C14.6555 22.2822 16.4936 21.4965 18.4113 21.4843C20.329 21.472 22.1765 22.2341 23.5525 23.609L23.5583 23.6148L23.5644 23.6204C23.7688 23.8117 24.0403 23.916 24.3217 23.9078C24.6032 23.8996 24.868 23.7797 25.0611 23.5773C25.2539 23.3753 25.3605 23.1068 25.3618 22.8291C25.3631 22.5513 25.259 22.2819 25.0683 22.078L25.0629 22.0723L25.0574 22.0668ZM9.85161 33.928C11.6112 35.6971 13.983 36.6878 16.4543 36.6817H16.5033L16.5046 36.6817C18.9983 36.6752 21.3854 35.6546 23.1409 33.8489L23.9948 32.9723V35.013C23.9948 35.2968 24.1049 35.5714 24.3043 35.7756C24.5042 35.9802 24.7778 36.0974 25.0657 36.0974C25.3535 36.0974 25.6271 35.9802 25.827 35.7756C26.0264 35.5714 26.1365 35.2968 26.1365 35.013V30.3379C26.1365 30.0541 26.0264 29.7796 25.827 29.5753C25.6271 29.3707 25.3535 29.2536 25.0657 29.2536H20.4991C20.2112 29.2536 19.9376 29.3707 19.7377 29.5753C19.5383 29.7796 19.4282 30.0541 19.4282 30.3379C19.4282 30.6218 19.5383 30.8963 19.7377 31.1005C19.9376 31.3052 20.2112 31.4223 20.4991 31.4223H22.4984L21.6136 32.3256L21.6124 32.3269C20.2553 33.7223 18.4153 34.5071 16.4971 34.513L16.4538 34.513L16.4526 34.513C14.5498 34.5177 12.7193 33.7553 11.3578 32.3871L11.3515 32.3807L11.3449 32.3746C11.1405 32.1833 10.869 32.079 10.5876 32.0872C10.3061 32.0954 10.0413 32.2153 9.8482 32.4177C9.65544 32.6197 9.54883 32.8882 9.54752 33.166C9.54621 33.4437 9.65026 33.7132 9.84104 33.917L9.84624 33.9226L9.85161 33.928Z" fill="#FFD600"/>
</g>
<path fill-rule="evenodd" clip-rule="evenodd" d="M17.9594 47.9647C17.7942 48.0098 17.6204 48.0118 17.4545 47.9706V36.63C19.5982 36.4015 21.6097 35.4238 23.1409 33.8489L23.9948 32.9723V35.013C23.9948 35.2968 24.1049 35.5714 24.3043 35.7756C24.5042 35.9802 24.7778 36.0974 25.0657 36.0974C25.3535 36.0974 25.6271 35.9802 25.827 35.7756C26.0264 35.5714 26.1365 35.2968 26.1365 35.013V30.3379C26.1365 30.0541 26.0264 29.7796 25.827 29.5753C25.6271 29.3707 25.3535 29.2536 25.0657 29.2536H20.4991C20.2112 29.2536 19.9376 29.3707 19.7377 29.5753C19.5383 29.7796 19.4282 30.0541 19.4282 30.3379C19.4282 30.6218 19.5383 30.8963 19.7377 31.1005C19.9376 31.3052 20.2112 31.4223 20.4991 31.4223H22.4984L21.6136 32.3256L21.6124 32.3269C20.4831 33.4881 19.0194 34.2264 17.4545 34.445V21.555C17.7699 21.5102 18.0895 21.4863 18.4113 21.4843C20.329 21.472 22.1765 22.2341 23.5525 23.609L23.5583 23.6148L23.5644 23.6204C23.7688 23.8117 24.0403 23.916 24.3217 23.9078C24.6032 23.8996 24.868 23.7797 25.0611 23.5773C25.2539 23.3753 25.3605 23.1068 25.3618 22.8291C25.3631 22.5513 25.259 22.2819 25.0683 22.078L25.0629 22.0723L25.0574 22.0668C23.297 20.2995 20.9253 19.3107 18.4547 19.3182L18.406 19.3182L18.4047 19.3182C18.0859 19.319 17.7687 19.3364 17.4545 19.3699V8.40771C17.6078 8.41896 17.7567 8.49476 17.852 8.63427C18.7465 9.94239 20.9196 12.9017 22.9091 13.9091C25.7861 15.366 31.0535 15.2728 31.0535 15.2728H33.3636L33.3912 26.961C33.3912 35.6337 29.1968 40.8867 25.6769 43.7653C21.8816 46.871 18.118 47.9213 17.9594 47.9647Z" fill="#DCB902"/>
<path fill-rule="evenodd" clip-rule="evenodd" d="M17.9594 47.9647C17.7942 48.0098 17.6204 48.0118 17.4545 47.9706V36.63C19.5982 36.4015 21.6097 35.4238 23.1409 33.8489L23.9948 32.9723V35.013C23.9948 35.2968 24.1049 35.5714 24.3043 35.7756C24.5042 35.9802 24.7778 36.0974 25.0657 36.0974C25.3535 36.0974 25.6271 35.9802 25.827 35.7756C26.0264 35.5714 26.1365 35.2968 26.1365 35.013V30.3379C26.1365 30.0541 26.0264 29.7796 25.827 29.5753C25.6271 29.3707 25.3535 29.2536 25.0657 29.2536H20.4991C20.2112 29.2536 19.9376 29.3707 19.7377 29.5753C19.5383 29.7796 19.4282 30.0541 19.4282 30.3379C19.4282 30.6218 19.5383 30.8963 19.7377 31.1005C19.9376 31.3052 20.2112 31.4223 20.4991 31.4223H22.4984L21.6136 32.3256L21.6124 32.3269C20.4831 33.4881 19.0194 34.2264 17.4545 34.445V21.555C17.7699 21.5102 18.0895 21.4863 18.4113 21.4843C20.329 21.472 22.1765 22.2341 23.5525 23.609L23.5583 23.6148L23.5644 23.6204C23.7688 23.8117 24.0403 23.916 24.3217 23.9078C24.6032 23.8996 24.868 23.7797 25.0611 23.5773C25.2539 23.3753 25.3605 23.1068 25.3618 22.8291C25.3631 22.5513 25.259 22.2819 25.0683 22.078L25.0629 22.0723L25.0574 22.0668C23.297 20.2995 20.9253 19.3107 18.4547 19.3182L18.406 19.3182L18.4047 19.3182C18.0859 19.319 17.7687 19.3364 17.4545 19.3699V8.40771C17.6078 8.41896 17.7567 8.49476 17.852 8.63427C18.7465 9.94239 20.9196 12.9017 22.9091 13.9091C25.7861 15.366 31.0535 15.2728 31.0535 15.2728H33.3636L33.3912 26.961C33.3912 35.6337 29.1968 40.8867 25.6769 43.7653C21.8816 46.871 18.118 47.9213 17.9594 47.9647Z" fill="#F1CB00"/>
<defs>
<filter id="filter0_d_259_16661" x="2" y="8.40613" width="33.3912" height="41.5939" filterUnits="userSpaceOnUse" color-interpolation-filters="sRGB">
<feFlood flood-opacity="0" result="BackgroundImageFix"/>
<feColorMatrix in="SourceAlpha" type="matrix" values="0 0 0 0 0 0 0 0 0 0 0 0 0 0 0 0 0 0 127 0" result="hardAlpha"/>
<feOffset dx="1" dy="1"/>
<feGaussianBlur stdDeviation="0.5"/>
<feComposite in2="hardAlpha" operator="out"/>
<feColorMatrix type="matrix" values="0 0 0 0 0 0 0 0 0 0 0 0 0 0 0 0 0 0 0.25 0"/>
<feBlend mode="normal" in2="BackgroundImageFix" result="effect1_dropShadow_259_16661"/>
<feBlend mode="normal" in="SourceGraphic" in2="effect1_dropShadow_259_16661" result="shape"/>
</filter>
</defs>
</svg>
