<svg width="80" height="50" viewBox="0 0 80 50" fill="none" xmlns="http://www.w3.org/2000/svg">
<path d="M15.7834 13.8118C16.4585 13.4264 17.5514 13.4256 18.228 13.8118L32.7777 23.3098C33.4528 23.6952 34 24.6361 34 25.4147V37.8121C34 38.5892 33.4543 39.5307 32.7777 39.917L18.228 49.5526C17.5529 49.938 16.46 49.9388 15.7834 49.5526L1.22226 39.917C0.547224 39.5316 0 38.5907 0 37.8121V25.4147C0 24.6376 0.545701 23.6961 1.22226 23.3098L15.7834 13.8118Z" fill="#2B64CF"/>
<path d="M19.0064 21.4853C19.1467 21.4853 19.2605 21.599 19.2605 21.7394L19.2604 26.044L25.0017 26.044C25.6331 26.044 26.145 26.5559 26.145 27.1874L26.1449 31.6897L26.8088 31.6897C27.0193 31.6897 27.1899 31.8603 27.1899 32.0708V35.8368C27.1899 36.0473 27.0193 36.2179 26.8088 36.2179L26.1449 36.2179L26.145 38.4737C26.145 39.1051 25.6331 39.6171 25.0017 39.6171H9.0577C8.42622 39.6171 7.91431 39.1051 7.91431 38.4737L7.91419 36.2179L7.19131 36.2179C6.98082 36.2179 6.81018 36.0473 6.81018 35.8368V32.0708C6.81018 31.8603 6.98082 31.6897 7.19131 31.6897L7.91419 31.6897L7.91431 27.1874C7.91431 26.5559 8.42622 26.044 9.0577 26.044L18.2113 26.044V24.8338L16.166 24.8339C16.0257 24.8339 15.9119 24.7201 15.9119 24.5798V21.7394C15.9119 21.599 16.0257 21.4853 16.166 21.4853H19.0064ZM22.1488 31.4159L22.144 31.4207L20.7249 32.8722C20.5711 33.0295 20.3188 33.0324 20.1615 32.8785L20.1567 32.8737L19.671 32.3824C19.5163 32.2259 19.264 32.2245 19.1075 32.3792C19.1064 32.3803 19.1054 32.3814 19.1043 32.3824L18.6106 32.8818C18.4571 33.0371 18.4571 33.2868 18.6106 33.4421L20.1572 35.0066C20.3119 35.1631 20.5642 35.1645 20.7207 35.0098C20.7221 35.0084 20.7235 35.007 20.7249 35.0055L23.2064 32.4771C23.3589 32.3218 23.3584 32.0728 23.2054 31.9179L22.7122 31.4191C22.5575 31.2626 22.3053 31.2612 22.1488 31.4159ZM14.624 31.4159L14.6192 31.4207L13.2002 32.8722C13.0463 33.0295 12.7941 33.0324 12.6367 32.8785L12.6319 32.8737L12.1462 32.3824C11.9915 32.2259 11.7392 32.2245 11.5827 32.3792C11.5817 32.3803 11.5806 32.3814 11.5795 32.3824L11.0858 32.8818C10.9324 33.0371 10.9324 33.2868 11.0858 33.4421L12.6324 35.0066C12.7872 35.1631 13.0394 35.1645 13.1959 35.0098L13.2002 35.0055L15.6816 32.4771C15.8341 32.3218 15.8336 32.0728 15.6806 31.9179L15.1875 31.4191C15.0328 31.2626 14.7805 31.2612 14.624 31.4159Z" fill="white"/>
</svg>
