<svg width="80" height="50" viewBox="0 0 80 50" fill="none" xmlns="http://www.w3.org/2000/svg">
<path d="M6.15601 48.0991L10.2311 45.5991C11.3339 46.0033 12.5274 46.2241 13.7732 46.2241C19.3823 46.2241 23.9294 41.747 23.9294 36.2241C23.9294 30.7013 19.3823 26.2241 13.7732 26.2241C8.16405 26.2241 3.61694 30.7013 3.61694 36.2241C3.61694 38.4671 4.36692 40.5376 5.63343 42.2057" stroke="#1A2E58" stroke-width="2" stroke-miterlimit="10" stroke-linecap="round" stroke-linejoin="round"/>
<path d="M19.4623 36.6986L16.6714 35.3859C16.5619 35.3343 16.4919 35.2242 16.4919 35.1031V33.4945C16.4919 33.3747 16.6212 33.2995 16.7254 33.3586L20.633 35.5779C20.7308 35.6334 20.7912 35.7372 20.7912 35.8496V37.2208L19.4623 36.6986ZM16.4919 38.0343C16.4919 37.9143 16.5607 37.8049 16.6688 37.7528L19.4623 36.407L20.7912 35.9254V37.2899C20.7912 37.4023 20.7308 37.5061 20.633 37.5616L16.7254 39.7808C16.6212 39.84 16.4919 39.7648 16.4919 39.645V38.0343Z" fill="#1A2E58" stroke="#1A2E58" stroke-width="0.25"/>
<path d="M15.5334 30.8315C15.6336 30.8315 15.7079 30.9246 15.6857 31.0224L13.3237 41.4327C13.3075 41.5038 13.2443 41.5543 13.1713 41.5543H12.3192C12.219 41.5543 12.1447 41.4613 12.1668 41.3635L14.5289 30.9532C14.5451 30.8821 14.6083 30.8315 14.6813 30.8315H15.5334Z" fill="#1A2E58" stroke="#1A2E58" stroke-width="0.25"/>
<path d="M8.55641 36.4273L11.3567 37.7401C11.4665 37.7915 11.5366 37.9018 11.5366 38.023V39.6389C11.5366 39.7585 11.4076 39.8338 11.3035 39.7749L7.29231 37.5098C7.24324 37.4821 7.21289 37.4301 7.21289 37.3737V35.9186L8.55641 36.4273ZM11.5366 35.0975C11.5366 35.2179 11.4673 35.3276 11.3586 35.3795L8.55152 36.7189L7.21289 37.2072V35.8433C7.21289 35.7306 7.27358 35.6266 7.37173 35.5712L11.3035 33.3509C11.4076 33.292 11.5366 33.3673 11.5366 33.4869V35.0975Z" fill="#1A2E58" stroke="#1A2E58" stroke-width="0.25"/>
<g clip-path="url(#paint0_diamond_861_1386_clip_path)" data-figma-skip-parse="true"><g transform="matrix(-0.00106897 0.016569 -0.016569 -0.00106897 27.7506 22.8966)"><rect x="0" y="0" width="816.313" height="816.313" fill="url(#paint0_diamond_861_1386)" opacity="1" shape-rendering="crispEdges"/><rect x="0" y="0" width="816.313" height="816.313" transform="scale(1 -1)" fill="url(#paint0_diamond_861_1386)" opacity="1" shape-rendering="crispEdges"/><rect x="0" y="0" width="816.313" height="816.313" transform="scale(-1 1)" fill="url(#paint0_diamond_861_1386)" opacity="1" shape-rendering="crispEdges"/><rect x="0" y="0" width="816.313" height="816.313" transform="scale(-1)" fill="url(#paint0_diamond_861_1386)" opacity="1" shape-rendering="crispEdges"/></g></g><path d="M27.7506 11.1379C27.7506 11.1379 28.3993 17.1936 30.9265 19.7207C33.4536 22.2478 39.5092 22.8966 39.5092 22.8966C39.5092 22.8966 33.4536 23.5453 30.9265 26.0725C28.3993 28.5996 27.7506 34.6552 27.7506 34.6552C27.7506 34.6552 27.1018 28.5996 24.5747 26.0725C22.0476 23.5453 15.9919 22.8966 15.9919 22.8966C15.9919 22.8966 22.0476 22.2478 24.5747 19.7207C27.1018 17.1936 27.7506 11.1379 27.7506 11.1379Z" data-figma-gradient-fill="{&#34;type&#34;:&#34;GRADIENT_DIAMOND&#34;,&#34;stops&#34;:[{&#34;color&#34;:{&#34;r&#34;:1.0,&#34;g&#34;:0.83333331346511841,&#34;b&#34;:0.0,&#34;a&#34;:1.0},&#34;position&#34;:0.0},{&#34;color&#34;:{&#34;r&#34;:1.0,&#34;g&#34;:0.59966683387756348,&#34;b&#34;:0.23012846708297729,&#34;a&#34;:1.0},&#34;position&#34;:1.0}],&#34;stopsVar&#34;:[{&#34;color&#34;:{&#34;r&#34;:1.0,&#34;g&#34;:0.83333331346511841,&#34;b&#34;:0.0,&#34;a&#34;:1.0},&#34;position&#34;:0.0},{&#34;color&#34;:{&#34;r&#34;:1.0,&#34;g&#34;:0.59966683387756348,&#34;b&#34;:0.23012846708297729,&#34;a&#34;:1.0},&#34;position&#34;:1.0}],&#34;transform&#34;:{&#34;m00&#34;:-2.1379311084747314,&#34;m01&#34;:-33.137931823730469,&#34;m02&#34;:45.388496398925781,&#34;m10&#34;:33.137931823730469,&#34;m11&#34;:-2.1379311084747314,&#34;m12&#34;:7.3965601921081543},&#34;opacity&#34;:1.0,&#34;blendMode&#34;:&#34;NORMAL&#34;,&#34;visible&#34;:true}"/>
<g clip-path="url(#paint1_diamond_861_1386_clip_path)" data-figma-skip-parse="true"><g transform="matrix(0.000534482 0.00694828 -0.00694828 0.000534482 43.2505 17.0172)"><rect x="0" y="0" width="1389.37" height="1389.37" fill="url(#paint1_diamond_861_1386)" opacity="1" shape-rendering="crispEdges"/><rect x="0" y="0" width="1389.37" height="1389.37" transform="scale(1 -1)" fill="url(#paint1_diamond_861_1386)" opacity="1" shape-rendering="crispEdges"/><rect x="0" y="0" width="1389.37" height="1389.37" transform="scale(-1 1)" fill="url(#paint1_diamond_861_1386)" opacity="1" shape-rendering="crispEdges"/><rect x="0" y="0" width="1389.37" height="1389.37" transform="scale(-1)" fill="url(#paint1_diamond_861_1386)" opacity="1" shape-rendering="crispEdges"/></g></g><path d="M43.2505 9C43.2505 9 43.6929 13.1288 45.4159 14.8519C47.1389 16.5749 51.2678 17.0172 51.2678 17.0172C51.2678 17.0172 47.1389 17.4596 45.4159 19.1826C43.6929 20.9057 43.2505 25.0345 43.2505 25.0345C43.2505 25.0345 42.8082 20.9057 41.0851 19.1826C39.3621 17.4596 35.2333 17.0172 35.2333 17.0172C35.2333 17.0172 39.3621 16.5749 41.0851 14.8519C42.8082 13.1288 43.2505 9 43.2505 9Z" data-figma-gradient-fill="{&#34;type&#34;:&#34;GRADIENT_DIAMOND&#34;,&#34;stops&#34;:[{&#34;color&#34;:{&#34;r&#34;:1.0,&#34;g&#34;:0.90228658914566040,&#34;b&#34;:0.41371968388557434,&#34;a&#34;:1.0},&#34;position&#34;:0.0},{&#34;color&#34;:{&#34;r&#34;:1.0,&#34;g&#34;:0.70138776302337646,&#34;b&#34;:0.42574563622474670,&#34;a&#34;:1.0},&#34;position&#34;:1.0}],&#34;stopsVar&#34;:[{&#34;color&#34;:{&#34;r&#34;:1.0,&#34;g&#34;:0.90228658914566040,&#34;b&#34;:0.41371968388557434,&#34;a&#34;:1.0},&#34;position&#34;:0.0},{&#34;color&#34;:{&#34;r&#34;:1.0,&#34;g&#34;:0.70138776302337646,&#34;b&#34;:0.42574563622474670,&#34;a&#34;:1.0},&#34;position&#34;:1.0}],&#34;transform&#34;:{&#34;m00&#34;:1.0689649581909180,&#34;m01&#34;:-13.896552085876465,&#34;m02&#34;:49.664310455322266,&#34;m10&#34;:13.896552085876465,&#34;m11&#34;:1.0689649581909180,&#34;m12&#34;:9.5344839096069336},&#34;opacity&#34;:1.0,&#34;blendMode&#34;:&#34;NORMAL&#34;,&#34;visible&#34;:true}"/>
<g clip-path="url(#paint2_diamond_861_1386_clip_path)" data-figma-skip-parse="true"><g transform="matrix(0.000534482 0.00374138 -0.00374138 0.000534482 37.9058 33.0518)"><rect x="0" y="0" width="2379.36" height="2379.36" fill="url(#paint2_diamond_861_1386)" opacity="1" shape-rendering="crispEdges"/><rect x="0" y="0" width="2379.36" height="2379.36" transform="scale(1 -1)" fill="url(#paint2_diamond_861_1386)" opacity="1" shape-rendering="crispEdges"/><rect x="0" y="0" width="2379.36" height="2379.36" transform="scale(-1 1)" fill="url(#paint2_diamond_861_1386)" opacity="1" shape-rendering="crispEdges"/><rect x="0" y="0" width="2379.36" height="2379.36" transform="scale(-1)" fill="url(#paint2_diamond_861_1386)" opacity="1" shape-rendering="crispEdges"/></g></g><path d="M37.9058 26.1035C37.9058 26.1035 38.2892 29.6818 39.7825 31.1751C41.2758 32.6684 44.8541 33.0518 44.8541 33.0518C44.8541 33.0518 41.2758 33.4352 39.7825 34.9285C38.2892 36.4217 37.9058 40.0001 37.9058 40.0001C37.9058 40.0001 37.5224 36.4217 36.0291 34.9285C34.5358 33.4352 30.9575 33.0518 30.9575 33.0518C30.9575 33.0518 34.5358 32.6684 36.0291 31.1751C37.5224 29.6818 37.9058 26.1035 37.9058 26.1035Z" data-figma-gradient-fill="{&#34;type&#34;:&#34;GRADIENT_DIAMOND&#34;,&#34;stops&#34;:[{&#34;color&#34;:{&#34;r&#34;:1.0,&#34;g&#34;:0.90228658914566040,&#34;b&#34;:0.41371968388557434,&#34;a&#34;:1.0},&#34;position&#34;:0.0},{&#34;color&#34;:{&#34;r&#34;:1.0,&#34;g&#34;:0.70138776302337646,&#34;b&#34;:0.42574563622474670,&#34;a&#34;:1.0},&#34;position&#34;:1.0}],&#34;stopsVar&#34;:[{&#34;color&#34;:{&#34;r&#34;:1.0,&#34;g&#34;:0.90228658914566040,&#34;b&#34;:0.41371968388557434,&#34;a&#34;:1.0},&#34;position&#34;:0.0},{&#34;color&#34;:{&#34;r&#34;:1.0,&#34;g&#34;:0.70138776302337646,&#34;b&#34;:0.42574563622474670,&#34;a&#34;:1.0},&#34;position&#34;:1.0}],&#34;transform&#34;:{&#34;m00&#34;:1.0689649581909180,&#34;m01&#34;:-7.4827580451965332,&#34;m02&#34;:41.112693786621094,&#34;m10&#34;:7.4827580451965332,&#34;m11&#34;:1.0689649581909180,&#34;m12&#34;:28.775930404663086},&#34;opacity&#34;:1.0,&#34;blendMode&#34;:&#34;NORMAL&#34;,&#34;visible&#34;:true}"/>
<defs>
<clipPath id="paint0_diamond_861_1386_clip_path"><path d="M27.7506 11.1379C27.7506 11.1379 28.3993 17.1936 30.9265 19.7207C33.4536 22.2478 39.5092 22.8966 39.5092 22.8966C39.5092 22.8966 33.4536 23.5453 30.9265 26.0725C28.3993 28.5996 27.7506 34.6552 27.7506 34.6552C27.7506 34.6552 27.1018 28.5996 24.5747 26.0725C22.0476 23.5453 15.9919 22.8966 15.9919 22.8966C15.9919 22.8966 22.0476 22.2478 24.5747 19.7207C27.1018 17.1936 27.7506 11.1379 27.7506 11.1379Z"/></clipPath><clipPath id="paint1_diamond_861_1386_clip_path"><path d="M43.2505 9C43.2505 9 43.6929 13.1288 45.4159 14.8519C47.1389 16.5749 51.2678 17.0172 51.2678 17.0172C51.2678 17.0172 47.1389 17.4596 45.4159 19.1826C43.6929 20.9057 43.2505 25.0345 43.2505 25.0345C43.2505 25.0345 42.8082 20.9057 41.0851 19.1826C39.3621 17.4596 35.2333 17.0172 35.2333 17.0172C35.2333 17.0172 39.3621 16.5749 41.0851 14.8519C42.8082 13.1288 43.2505 9 43.2505 9Z"/></clipPath><clipPath id="paint2_diamond_861_1386_clip_path"><path d="M37.9058 26.1035C37.9058 26.1035 38.2892 29.6818 39.7825 31.1751C41.2758 32.6684 44.8541 33.0518 44.8541 33.0518C44.8541 33.0518 41.2758 33.4352 39.7825 34.9285C38.2892 36.4217 37.9058 40.0001 37.9058 40.0001C37.9058 40.0001 37.5224 36.4217 36.0291 34.9285C34.5358 33.4352 30.9575 33.0518 30.9575 33.0518C30.9575 33.0518 34.5358 32.6684 36.0291 31.1751C37.5224 29.6818 37.9058 26.1035 37.9058 26.1035Z"/></clipPath><linearGradient id="paint0_diamond_861_1386" x1="0" y1="0" x2="500" y2="500" gradientUnits="userSpaceOnUse">
<stop stop-color="#FFD500"/>
<stop offset="1" stop-color="#FF993B"/>
</linearGradient>
<linearGradient id="paint1_diamond_861_1386" x1="0" y1="0" x2="500" y2="500" gradientUnits="userSpaceOnUse">
<stop stop-color="#FFE669"/>
<stop offset="1" stop-color="#FFB36D"/>
</linearGradient>
<linearGradient id="paint2_diamond_861_1386" x1="0" y1="0" x2="500" y2="500" gradientUnits="userSpaceOnUse">
<stop stop-color="#FFE669"/>
<stop offset="1" stop-color="#FFB36D"/>
</linearGradient>
</defs>
</svg>
