<svg width="80" height="50" viewBox="0 0 80 50" fill="none" xmlns="http://www.w3.org/2000/svg">
<path d="M19.2711 21.0938H14.3848L14.409 21.2012L14.4113 21.2105L14.4356 21.31C15.1692 24.0907 18.0015 25.823 20.8112 25.2088V22.635C20.8086 21.7905 20.1146 21.0963 19.2699 21.0938H19.2711Z" fill="black" fill-opacity="0.098039"/>
<path d="M18.1152 22.25H14.7805C15.6722 24.1303 17.5754 25.3338 19.6564 25.3338V23.7924C19.6539 22.9478 18.9597 22.2537 18.1152 22.2512V22.25Z" fill="black" fill-opacity="0.2"/>
<path d="M19.6564 25.3338C22.6367 25.3338 25.0527 22.9178 25.0527 19.9375C25.0527 16.9573 22.6367 14.5413 19.6564 14.5413C16.6761 14.5413 14.2601 16.9573 14.2601 19.9375C14.2601 22.9178 16.6761 25.3338 19.6564 25.3338Z" fill="#7B83EB"/>
<path d="M31.797 25.7189C34.032 25.7189 35.8439 23.907 35.8439 21.672C35.8439 19.4369 34.032 17.625 31.797 17.625C29.5619 17.625 27.75 19.4369 27.75 21.672C27.75 23.907 29.5619 25.7189 31.797 25.7189Z" fill="#5059C9"/>
<path d="M35.2655 26.875H26.1761C25.7708 26.875 25.4373 27.2085 25.4373 27.6138V36.991C25.3852 39.7777 27.3075 42.2424 30.023 42.8706C30.414 42.9527 30.8122 42.9939 31.2117 42.9939C34.3856 42.9939 36.9978 40.3835 36.9998 37.2096V28.6093C36.9998 27.6579 36.2169 26.875 35.2655 26.875Z" fill="#5059C9"/>
<path d="M28.9062 28.6095V39.599C28.9062 44.6702 24.7333 48.8431 19.662 48.8431C16.3626 48.8431 13.304 47.0767 11.655 44.2188C11.4325 43.8489 11.2393 43.4623 11.0768 43.0625C10.9254 42.6854 10.7981 42.2993 10.6954 41.9062C10.5046 41.1501 10.4076 40.3734 10.4062 39.5938V28.6093C10.4062 28.6086 10.4062 28.6078 10.4062 28.6071C10.4062 27.6569 11.1881 26.875 12.1384 26.875H27.1741C28.1244 26.875 28.9062 27.6569 28.9062 28.6071V28.6095Z" fill="#7B83EB"/>
<path d="M18.1152 22.25H14.7805C15.6722 24.1303 17.5754 25.3338 19.6564 25.3338V23.7924C19.6539 22.9478 18.9597 22.2537 18.1152 22.2512V22.25Z" fill="black" fill-opacity="0.2"/>
<path d="M20.8125 26.875V41.5246C20.8125 42.2403 20.3093 42.8644 19.61 43.0162C19.5012 43.0485 19.3882 43.0642 19.2746 43.0625H11.0768C10.9254 42.6854 10.7981 42.2993 10.6954 41.9062C10.5046 41.1501 10.4076 40.3734 10.4062 39.5937V28.6093C10.4062 28.6086 10.4062 28.6078 10.4062 28.6071C10.4062 27.6569 11.1881 26.875 12.1384 26.875H20.8125Z" fill="black" fill-opacity="0.098039"/>
<path d="M19.6563 26.875V42.6809C19.6579 42.7944 19.6423 42.9074 19.61 43.0163C19.4581 43.7156 18.834 44.2188 18.1184 44.2188H11.655C11.4325 43.8489 11.2393 43.4623 11.077 43.0625C10.9254 42.6854 10.7981 42.2993 10.6954 41.9062C10.5046 41.1501 10.4076 40.3734 10.4062 39.5938V28.6093C10.4062 28.6086 10.4062 28.6078 10.4062 28.6071C10.4062 27.6569 11.1881 26.875 12.1384 26.875H19.6563ZM19.6563 26.875V40.3684C19.6524 41.2107 18.9606 41.9024 18.1184 41.9062H10.6954C10.5046 41.1501 10.4076 40.3734 10.4062 39.5938V28.6093C10.4062 28.6086 10.4062 28.6078 10.4062 28.6071C10.4062 27.6569 11.1881 26.875 12.1384 26.875H19.6563ZM12.1405 26.875C12.1399 26.875 12.139 26.875 12.1384 26.875C11.1881 26.875 10.4062 27.6569 10.4062 28.6071V39.5938C10.4076 40.3734 10.5046 41.1501 10.6954 41.9062H16.9621C17.8044 41.9024 18.4961 41.2107 18.5 40.3684V26.875H12.1405Z" fill="black" fill-opacity="0.2"/>
<path d="M1.54122 22.25H16.9576C17.8031 22.25 18.4988 22.9458 18.4988 23.7912V39.2076C18.4988 40.0531 17.8031 40.7488 16.9576 40.7488H1.54122C0.695769 40.7488 0 40.0531 0 39.2076V23.7912C0 22.9458 0.695769 22.25 1.54122 22.25Z" fill="#4B53BC"/>
<path d="M13.8523 28.0022H10.3961V37.2754H8.12535V28.0022H4.64954V25.7244H13.8523V28.0022Z" fill="white"/>
</svg>
