<svg width="81" height="50" viewBox="0 0 81 50" fill="none" xmlns="http://www.w3.org/2000/svg">
<g clip-path="url(#clip0_333_8457)">
<path d="M35.3577 26.2348L19.4362 10.3133L17.8934 8.77051L5.90805 20.7559L0.42743 26.2348C0.153675 26.51 0 26.8824 0 27.2705C0 27.6587 0.153675 28.031 0.42743 28.3062L11.3771 39.2559L17.8934 45.7705L29.8771 33.7852L30.0638 33.6002L35.3577 28.3144C35.4949 28.1782 35.6038 28.0163 35.6781 27.8378C35.7524 27.6593 35.7907 27.4679 35.7907 27.2746C35.7907 27.0813 35.7524 26.8899 35.6781 26.7115C35.6038 26.533 35.4949 26.371 35.3577 26.2348ZM17.8934 32.7412L12.4227 27.2705L17.8934 21.7998L23.3625 27.2705L17.8934 32.7412Z" fill="#2684FF"/>
<path d="M17.8934 21.7999C16.1729 20.0797 15.203 17.7486 15.1956 15.3157C15.1881 12.8828 16.1438 10.5458 17.8538 8.81519L5.8833 20.7807L12.3979 27.2954L17.8934 21.7999Z" fill="url(#paint0_linear_333_8457)"/>
<path d="M23.3774 27.2559L17.8934 32.7414C19.6205 34.469 20.5907 36.8117 20.5907 39.2544C20.5907 41.6972 19.6205 44.0399 17.8934 45.7674L29.897 33.7705L23.3774 27.2559Z" fill="url(#paint1_linear_333_8457)"/>
<g filter="url(#filter0_di_333_8457)">
<mask id="path-4-outside-1_333_8457" maskUnits="userSpaceOnUse" x="-0.222282" y="26.7348" width="23.7721" height="24.4582" fill="black">
<rect fill="white" x="-0.222282" y="26.7348" width="23.7721" height="24.4582"/>
<path fill-rule="evenodd" clip-rule="evenodd" d="M18.936 39.442C18.7756 39.4821 18.6622 39.6237 18.6506 39.7886C18.6185 40.2451 18.5437 40.7044 18.4124 41.1627C18.2813 41.6205 18.1012 42.051 17.8875 42.4571C17.8108 42.6028 17.8324 42.7821 17.9468 42.9005L19.3947 44.3991C19.5368 44.5461 19.5328 44.7805 19.3857 44.9226L17.2558 46.9807C17.1088 47.1228 16.8744 47.1188 16.7323 46.9717L15.2865 45.4757C15.1715 45.3568 14.9921 45.3295 14.8431 45.4014C14.0108 45.8032 13.0964 46.0362 12.1511 46.0726C11.9856 46.079 11.8398 46.1875 11.7942 46.3467L11.2216 48.346C11.1653 48.5426 10.9603 48.6563 10.7637 48.6L7.91636 47.7845C7.71979 47.7282 7.60608 47.5233 7.66238 47.3267L8.23523 45.3264C8.28086 45.1671 8.21442 44.9977 8.07721 44.9048C7.29432 44.3744 6.64132 43.6926 6.14893 42.9108C6.06068 42.7706 5.89379 42.6986 5.73311 42.7387L3.71493 43.2424C3.51656 43.2919 3.3156 43.1712 3.26607 42.9729L2.54857 40.0993C2.49903 39.9009 2.61969 39.6999 2.81805 39.6504L4.83838 39.1458C4.99877 39.1057 5.11218 38.9641 5.12379 38.7992C5.15595 38.3424 5.231 37.8824 5.36196 37.4251C5.49319 36.9669 5.67283 36.5376 5.88726 36.1333C5.96473 35.9872 5.94348 35.807 5.82861 35.6882L4.3817 34.1906C4.23964 34.0435 4.24366 33.8091 4.39069 33.6671L6.52055 31.609C6.6676 31.4669 6.90201 31.4709 7.04409 31.618L8.48863 33.1133C8.60364 33.2324 8.78326 33.2597 8.93229 33.1876C9.76491 32.785 10.68 32.5522 11.6246 32.5156C11.79 32.5092 11.9358 32.4007 11.9814 32.2415L12.554 30.2421C12.6103 30.0455 12.8153 29.9318 13.0118 29.9881L15.8592 30.8036C16.0558 30.8599 16.1695 31.0649 16.1132 31.2614L15.5403 33.2617C15.4947 33.421 15.5612 33.5904 15.6984 33.6833C16.4812 34.2137 17.1342 34.8954 17.6266 35.6773C17.7149 35.8175 17.8818 35.8895 18.0425 35.8494L20.0594 35.3455C20.2578 35.2959 20.4588 35.4166 20.5083 35.615L21.2258 38.4885C21.2754 38.6869 21.1547 38.8879 20.9563 38.9374L18.936 39.442ZM14.8532 40.1433C14.3841 41.7813 12.6759 42.729 11.0378 42.2598C9.39968 41.7907 8.45206 40.0825 8.92119 38.4444C9.39032 36.8063 11.0986 35.8587 12.7367 36.3278C14.3747 36.7969 15.3224 38.5052 14.8532 40.1433Z"/>
</mask>
<path fill-rule="evenodd" clip-rule="evenodd" d="M18.936 39.442C18.7756 39.4821 18.6622 39.6237 18.6506 39.7886C18.6185 40.2451 18.5437 40.7044 18.4124 41.1627C18.2813 41.6205 18.1012 42.051 17.8875 42.4571C17.8108 42.6028 17.8324 42.7821 17.9468 42.9005L19.3947 44.3991C19.5368 44.5461 19.5328 44.7805 19.3857 44.9226L17.2558 46.9807C17.1088 47.1228 16.8744 47.1188 16.7323 46.9717L15.2865 45.4757C15.1715 45.3568 14.9921 45.3295 14.8431 45.4014C14.0108 45.8032 13.0964 46.0362 12.1511 46.0726C11.9856 46.079 11.8398 46.1875 11.7942 46.3467L11.2216 48.346C11.1653 48.5426 10.9603 48.6563 10.7637 48.6L7.91636 47.7845C7.71979 47.7282 7.60608 47.5233 7.66238 47.3267L8.23523 45.3264C8.28086 45.1671 8.21442 44.9977 8.07721 44.9048C7.29432 44.3744 6.64132 43.6926 6.14893 42.9108C6.06068 42.7706 5.89379 42.6986 5.73311 42.7387L3.71493 43.2424C3.51656 43.2919 3.3156 43.1712 3.26607 42.9729L2.54857 40.0993C2.49903 39.9009 2.61969 39.6999 2.81805 39.6504L4.83838 39.1458C4.99877 39.1057 5.11218 38.9641 5.12379 38.7992C5.15595 38.3424 5.231 37.8824 5.36196 37.4251C5.49319 36.9669 5.67283 36.5376 5.88726 36.1333C5.96473 35.9872 5.94348 35.807 5.82861 35.6882L4.3817 34.1906C4.23964 34.0435 4.24366 33.8091 4.39069 33.6671L6.52055 31.609C6.6676 31.4669 6.90201 31.4709 7.04409 31.618L8.48863 33.1133C8.60364 33.2324 8.78326 33.2597 8.93229 33.1876C9.76491 32.785 10.68 32.5522 11.6246 32.5156C11.79 32.5092 11.9358 32.4007 11.9814 32.2415L12.554 30.2421C12.6103 30.0455 12.8153 29.9318 13.0118 29.9881L15.8592 30.8036C16.0558 30.8599 16.1695 31.0649 16.1132 31.2614L15.5403 33.2617C15.4947 33.421 15.5612 33.5904 15.6984 33.6833C16.4812 34.2137 17.1342 34.8954 17.6266 35.6773C17.7149 35.8175 17.8818 35.8895 18.0425 35.8494L20.0594 35.3455C20.2578 35.2959 20.4588 35.4166 20.5083 35.615L21.2258 38.4885C21.2754 38.6869 21.1547 38.8879 20.9563 38.9374L18.936 39.442ZM14.8532 40.1433C14.3841 41.7813 12.6759 42.729 11.0378 42.2598C9.39968 41.7907 8.45206 40.0825 8.92119 38.4444C9.39032 36.8063 11.0986 35.8587 12.7367 36.3278C14.3747 36.7969 15.3224 38.5052 14.8532 40.1433Z" fill="#C4CDE0"/>
<path d="M21.2258 38.4885L21.4693 38.4277L21.2258 38.4885ZM20.9563 38.9374L20.8955 38.6939L20.9563 38.9374ZM18.0425 35.8494L17.9817 35.6059L18.0425 35.8494ZM15.6984 33.6833L15.8391 33.4756L15.6984 33.6833ZM15.8592 30.8036L15.7901 31.0448L15.8592 30.8036ZM13.0118 29.9881L13.0809 29.7469L13.0118 29.9881ZM11.6246 32.5156L11.6149 32.2648L11.6246 32.5156ZM8.48863 33.1133L8.30815 33.2877L8.48863 33.1133ZM7.04409 31.618L6.86361 31.7924L7.04409 31.618ZM4.39069 33.6671L4.56507 33.8475L4.39069 33.6671ZM5.88726 36.1333L6.10895 36.2509L5.88726 36.1333ZM5.82861 35.6882L6.00908 35.5138L5.82861 35.6882ZM4.83838 39.1458L4.77757 38.9023L4.83838 39.1458ZM5.12379 38.7992L5.37411 38.8168L5.12379 38.7992ZM2.54857 40.0993L2.3051 40.16L2.54857 40.0993ZM3.26607 42.9729L3.50954 42.9121L3.26607 42.9729ZM6.14893 42.9108L5.93658 43.0445L6.14893 42.9108ZM5.73311 42.7387L5.67235 42.4952L5.73311 42.7387ZM8.07721 44.9048L7.93646 45.1125L8.07721 44.9048ZM12.1511 46.0726L12.1607 46.3234L12.1511 46.0726ZM15.2865 45.4757L15.106 45.6501L15.2865 45.4757ZM14.8431 45.4014L14.734 45.1754L14.8431 45.4014ZM17.2558 46.9807L17.0814 46.8002L17.2558 46.9807ZM16.7323 46.9717L16.5519 47.1461L16.7323 46.9717ZM19.3947 44.3991L19.5752 44.2247L19.3947 44.3991ZM19.3857 44.9226L19.2114 44.7421L19.3857 44.9226ZM17.8875 42.4571L18.1096 42.5739L17.8875 42.4571ZM17.9468 42.9005L17.7664 43.0748L17.9468 42.9005ZM20.0594 35.3455L20.1202 35.5889L20.0594 35.3455ZM20.5083 35.615L20.2649 35.6758L20.5083 35.615ZM18.6506 39.7886L18.9009 39.8062L18.6506 39.7886ZM18.936 39.442L18.8752 39.1985L18.936 39.442ZM18.6537 41.2318C18.7902 40.755 18.8678 40.2783 18.9009 39.8062L18.4003 39.771C18.3693 40.212 18.2971 40.6539 18.1712 41.0936L18.6537 41.2318ZM18.1096 42.5739C18.3303 42.1546 18.5173 41.7081 18.6537 41.2318L18.1712 41.0936C18.0454 41.5329 17.8721 41.9474 17.6654 42.3402L18.1096 42.5739ZM19.5752 44.2247L18.1273 42.7261L17.7664 43.0748L19.2143 44.5734L19.5752 44.2247ZM17.4302 47.1612L19.5601 45.103L19.2114 44.7421L17.0814 46.8002L17.4302 47.1612ZM15.106 45.6501L16.5519 47.1461L16.9128 46.7974L15.4669 45.3013L15.106 45.6501ZM12.1607 46.3234C13.1411 46.2856 14.0893 46.044 14.9522 45.6274L14.734 45.1754C13.9323 45.5625 13.0518 45.7868 12.1414 45.8219L12.1607 46.3234ZM11.4628 48.4151L12.0354 46.4158L11.553 46.2776L10.9804 48.2769L11.4628 48.4151ZM7.84727 48.0258L10.6947 48.8413L10.8328 48.3588L7.98545 47.5433L7.84727 48.0258ZM7.99399 45.2573L7.42113 47.2576L7.90362 47.3958L8.47648 45.3955L7.99399 45.2573ZM5.93658 43.0445C6.44724 43.8554 7.12449 44.5624 7.93646 45.1125L8.21796 44.697C7.46415 44.1863 6.8354 43.5299 6.36127 42.777L5.93658 43.0445ZM3.7757 43.4859L5.79388 42.9821L5.67235 42.4952L3.65416 42.9989L3.7757 43.4859ZM2.3051 40.16L3.0226 43.0337L3.50954 42.9121L2.79203 40.0385L2.3051 40.16ZM4.77757 38.9023L2.75725 39.4069L2.87886 39.8938L4.89919 39.3892L4.77757 38.9023ZM5.12071 37.356C4.98445 37.8318 4.90672 38.3092 4.87347 38.7815L5.37411 38.8168C5.40518 38.3756 5.47754 37.933 5.6032 37.4942L5.12071 37.356ZM5.66557 36.0157C5.44383 36.4338 5.25725 36.8793 5.12071 37.356L5.6032 37.4942C5.72913 37.0545 5.90182 36.6414 6.10895 36.2509L5.66557 36.0157ZM4.20123 34.3649L5.64814 35.8625L6.00908 35.5138L4.56217 34.0162L4.20123 34.3649ZM6.34617 31.4285L4.21632 33.4866L4.56507 33.8475L6.69492 31.7895L6.34617 31.4285ZM8.66911 32.939L7.22457 31.4437L6.86361 31.7924L8.30815 33.2877L8.66911 32.939ZM11.6149 32.2648C10.6353 32.3028 9.6864 32.5442 8.82305 32.9617L9.04153 33.4135C9.84341 33.0258 10.7247 32.8016 11.6343 32.7663L11.6149 32.2648ZM12.3127 30.173L11.7401 32.1724L12.2226 32.3106L12.7952 30.3112L12.3127 30.173ZM15.9283 30.5623L13.0809 29.7469L12.9427 30.2293L15.7901 31.0448L15.9283 30.5623ZM15.7816 33.3308L16.3544 31.3305L15.872 31.1923L15.2991 33.1926L15.7816 33.3308ZM17.839 35.5436C17.3283 34.7327 16.6511 34.0257 15.8391 33.4756L15.5576 33.8911C16.3114 34.4018 16.9401 35.0582 17.4143 35.811L17.839 35.5436ZM19.9986 35.102L17.9817 35.6059L18.1033 36.0928L20.1202 35.5889L19.9986 35.102ZM21.4693 38.4277L20.7518 35.5542L20.2649 35.6758L20.9824 38.5493L21.4693 38.4277ZM18.9968 39.6855L21.0172 39.1809L20.8955 38.6939L18.8752 39.1985L18.9968 39.6855ZM10.9687 42.5011C12.74 43.0084 14.5872 41.9837 15.0945 40.2123L14.612 40.0742C14.181 41.579 12.6117 42.4496 11.1069 42.0186L10.9687 42.5011ZM8.67995 38.3753C8.17265 40.1466 9.19735 41.9938 10.9687 42.5011L11.1069 42.0186C9.602 41.5876 8.73146 40.0183 9.16243 38.5135L8.67995 38.3753ZM12.8057 36.0865C11.0344 35.5793 9.18724 36.604 8.67995 38.3753L9.16243 38.5135C9.59341 37.0086 11.1627 36.1381 12.6676 36.569L12.8057 36.0865ZM15.0945 40.2123C15.6018 38.441 14.5771 36.5938 12.8057 36.0865L12.6676 36.569C14.1724 37 15.043 38.5693 14.612 40.0742L15.0945 40.2123ZM20.9824 38.5493C20.9983 38.6132 20.9594 38.678 20.8955 38.6939L21.0172 39.1809C21.35 39.0977 21.5524 38.7606 21.4693 38.4277L20.9824 38.5493ZM17.4143 35.811C17.5571 36.0377 17.8316 36.1607 18.1033 36.0928L17.9817 35.6059C17.932 35.6183 17.8727 35.5972 17.839 35.5436L17.4143 35.811ZM15.2991 33.1926C15.2219 33.462 15.3357 33.7407 15.5576 33.8911L15.8391 33.4756C15.7866 33.44 15.7675 33.38 15.7816 33.3308L15.2991 33.1926ZM15.7901 31.0448C15.8535 31.0629 15.8901 31.129 15.872 31.1923L16.3544 31.3305C16.4489 31.0007 16.2581 30.6568 15.9283 30.5623L15.7901 31.0448ZM12.7952 30.3112C12.8134 30.2478 12.8794 30.2112 12.9427 30.2293L13.0809 29.7469C12.7511 29.6524 12.4072 29.8432 12.3127 30.173L12.7952 30.3112ZM11.6343 32.7663C11.9019 32.756 12.1455 32.5797 12.2226 32.3106L11.7401 32.1724C11.726 32.2216 11.6781 32.2624 11.6149 32.2648L11.6343 32.7663ZM8.30815 33.2877C8.50261 33.489 8.80041 33.5301 9.04153 33.4135L8.82305 32.9617C8.76611 32.9892 8.70466 32.9758 8.66911 32.939L8.30815 33.2877ZM6.69492 31.7895C6.74231 31.7437 6.81783 31.745 6.86361 31.7924L7.22457 31.4437C6.98619 31.1969 6.5929 31.1901 6.34617 31.4285L6.69492 31.7895ZM4.56217 34.0162C4.5164 33.9688 4.5177 33.8933 4.56507 33.8475L4.21632 33.4866C3.96963 33.725 3.96287 34.1182 4.20123 34.3649L4.56217 34.0162ZM6.10895 36.2509C6.23475 36.0137 6.20319 35.7147 6.00908 35.5138L5.64814 35.8625C5.68377 35.8994 5.6947 35.9608 5.66557 36.0157L6.10895 36.2509ZM4.89919 39.3892C5.17022 39.3215 5.35526 39.0846 5.37411 38.8168L4.87347 38.7815C4.8691 38.8436 4.82732 38.8899 4.77757 38.9023L4.89919 39.3892ZM2.79203 40.0385C2.77607 39.9746 2.81495 39.9098 2.87886 39.8938L2.75725 39.4069C2.42442 39.49 2.22199 39.8272 2.3051 40.16L2.79203 40.0385ZM3.65416 42.9989C3.59025 43.0149 3.5255 42.976 3.50954 42.9121L3.0226 43.0337C3.10571 43.3665 3.44287 43.5689 3.7757 43.4859L3.65416 42.9989ZM6.36127 42.777C6.21852 42.5504 5.94404 42.4274 5.67235 42.4952L5.79388 42.9821C5.84354 42.9697 5.90284 42.9909 5.93658 43.0445L6.36127 42.777ZM8.47648 45.3955C8.55364 45.1261 8.4399 44.8474 8.21796 44.697L7.93646 45.1125C7.98894 45.1481 8.00809 45.2081 7.99399 45.2573L8.47648 45.3955ZM7.98545 47.5433C7.92212 47.5252 7.88548 47.4591 7.90362 47.3958L7.42113 47.2576C7.32668 47.5874 7.51747 47.9313 7.84727 48.0258L7.98545 47.5433ZM10.9804 48.2769C10.9622 48.3403 10.8962 48.3769 10.8328 48.3588L10.6947 48.8413C11.0245 48.9357 11.3684 48.7449 11.4628 48.4151L10.9804 48.2769ZM12.1414 45.8219C11.8738 45.8322 11.63 46.0084 11.553 46.2776L12.0354 46.4158C12.0495 46.3666 12.0975 46.3258 12.1607 46.3234L12.1414 45.8219ZM15.4669 45.3013C15.2726 45.1002 14.975 45.059 14.734 45.1754L14.9522 45.6274C15.0091 45.5999 15.0705 45.6133 15.106 45.6501L15.4669 45.3013ZM17.0814 46.8002C17.0341 46.846 16.9586 46.8447 16.9128 46.7974L16.5519 47.1461C16.7903 47.3928 17.1835 47.3995 17.4302 47.1612L17.0814 46.8002ZM19.2143 44.5734C19.26 44.6208 19.2587 44.6963 19.2114 44.7421L19.5601 45.103C19.8068 44.8647 19.8136 44.4714 19.5752 44.2247L19.2143 44.5734ZM17.6654 42.3402C17.5407 42.5771 17.5731 42.8748 17.7664 43.0748L18.1273 42.7261C18.0918 42.6893 18.0809 42.6284 18.1096 42.5739L17.6654 42.3402ZM20.1202 35.5889C20.1841 35.573 20.2489 35.6119 20.2649 35.6758L20.7518 35.5542C20.6687 35.2213 20.3314 35.0189 19.9986 35.102L20.1202 35.5889ZM18.9009 39.8062C18.9053 39.7442 18.9471 39.6979 18.9968 39.6855L18.8752 39.1985C18.6042 39.2662 18.4191 39.5032 18.4003 39.771L18.9009 39.8062Z" fill="#899BC1" mask="url(#path-4-outside-1_333_8457)"/>
</g>
</g>
<defs>
<filter id="filter0_di_333_8457" x="1.03179" y="28.5977" width="22.5811" height="21.3928" filterUnits="userSpaceOnUse" color-interpolation-filters="sRGB">
<feFlood flood-opacity="0" result="BackgroundImageFix"/>
<feColorMatrix in="SourceAlpha" type="matrix" values="0 0 0 0 0 0 0 0 0 0 0 0 0 0 0 0 0 0 127 0" result="hardAlpha"/>
<feOffset dx="1"/>
<feGaussianBlur stdDeviation="0.5625"/>
<feComposite in2="hardAlpha" operator="out"/>
<feColorMatrix type="matrix" values="0 0 0 0 0 0 0 0 0 0 0 0 0 0 0 0 0 0 0.2 0"/>
<feBlend mode="normal" in2="BackgroundImageFix" result="effect1_dropShadow_333_8457"/>
<feBlend mode="normal" in="SourceGraphic" in2="effect1_dropShadow_333_8457" result="shape"/>
<feColorMatrix in="SourceAlpha" type="matrix" values="0 0 0 0 0 0 0 0 0 0 0 0 0 0 0 0 0 0 127 0" result="hardAlpha"/>
<feOffset dx="-1.25471"/>
<feGaussianBlur stdDeviation="1.25471"/>
<feComposite in2="hardAlpha" operator="arithmetic" k2="-1" k3="1"/>
<feColorMatrix type="matrix" values="0 0 0 0 0 0 0 0 0 0 0 0 0 0 0 0 0 0 0.3 0"/>
<feBlend mode="normal" in2="shape" result="effect2_innerShadow_333_8457"/>
</filter>
<linearGradient id="paint0_linear_333_8457" x1="16.9139" y1="16.2647" x2="9.27442" y2="23.9026" gradientUnits="userSpaceOnUse">
<stop offset="0.18" stop-color="#0052CC"/>
<stop offset="1" stop-color="#2684FF"/>
</linearGradient>
<linearGradient id="paint1_linear_333_8457" x1="18.9374" y1="38.2105" x2="26.562" y2="30.5875" gradientUnits="userSpaceOnUse">
<stop offset="0.18" stop-color="#0052CC"/>
<stop offset="1" stop-color="#2684FF"/>
</linearGradient>
<clipPath id="clip0_333_8457">
<rect width="80" height="50" fill="white" transform="translate(0.304565)"/>
</clipPath>
</defs>
</svg>
