<svg width="80" height="50" viewBox="0 0 80 50" fill="none" xmlns="http://www.w3.org/2000/svg">
<path d="M18.3119 50C18.008 50.0006 17.7303 49.8278 17.5966 49.5549C17.467 49.2979 17.4947 48.9897 17.6681 48.76L26.1256 37.115L11.317 43.1641C11.2167 43.2077 11.1085 43.2307 10.9991 43.2316C10.6473 43.2299 10.3385 42.997 10.24 42.6593C10.139 42.3289 10.2727 41.9718 10.5659 41.7889L23.5899 34.0985L0.657718 32.779C0.277427 32.7124 0 32.3821 0 31.996C0 31.6099 0.277427 31.2797 0.657718 31.2131L23.6019 29.8975L10.5738 22.2071C10.2806 22.0242 10.147 21.6672 10.2479 21.3367C10.346 21.0004 10.6527 20.7679 11.003 20.7644C11.1131 20.764 11.2217 20.7885 11.321 20.8359L26.1335 26.8929L17.676 15.2519C17.5027 15.0222 17.475 14.714 17.6045 14.4571C17.7342 14.1807 18.0107 14.0031 18.3159 14C18.5248 14.0014 18.7241 14.0874 18.8684 14.2385L35.7237 31.0899C36.2225 31.5895 36.2225 32.3986 35.7237 32.8982L18.8604 49.7695C18.716 49.917 18.5183 50 18.3119 50Z" fill="black"/>
</svg>
