<svg width="41" height="42" viewBox="0 0 41 42" fill="none" xmlns="http://www.w3.org/2000/svg">
<path d="M21.67 17.0709C21.7858 16.9353 21.9931 16.915 22.1331 17.0254L24.8481 19.1682C24.988 19.2786 25.0076 19.4781 24.8918 19.6136L23.7542 20.9451L23.9707 21.1159L23.1703 22.0527C23.0505 22.193 22.8587 22.2561 22.6758 22.2154L21.8053 22.022L19.2627 24.9979C19.0695 25.2241 18.9326 25.4896 18.8628 25.774L17.3202 32.0539C17.2969 32.1487 17.2513 32.2372 17.1869 32.3126L9.63007 41.1573C9.28263 41.564 8.66061 41.625 8.24075 41.2936L2.74986 36.96C2.33 36.6287 2.27129 36.0304 2.61873 35.6237L10.1755 26.7791C10.2399 26.7037 10.3214 26.6434 10.4136 26.6031L16.5227 23.9272C16.7994 23.806 17.0438 23.6253 17.237 23.3992L19.8676 20.3203L19.4617 19.6571C19.3568 19.4856 19.375 19.2685 19.5072 19.1137L20.2831 18.2056L20.5324 18.4023L21.67 17.0709Z" fill="#4DCD61"/>
<path d="M30.3905 6.73776L33.6375 9.30041L32.8873 10.3413L31.6385 10.9887L29.9719 12.9394L27.3896 10.9014L29.0562 8.95073L29.4741 7.6475L30.3905 6.73776Z" fill="#FF993B"/>
<path d="M30.3905 6.73776L33.6375 9.30041L32.8873 10.3413L31.6385 10.9887L31.5932 10.953L29.0562 8.95073L29.4741 7.6475L30.3905 6.73776Z" fill="#E18906"/>
<path fill-rule="evenodd" clip-rule="evenodd" d="M5.49008 39.14L8.23134 41.3035C8.6512 41.6349 9.27322 41.5738 9.62066 41.1672L17.1791 32.3205C17.2435 32.2452 17.2891 32.1566 17.3124 32.0619L18.8558 25.7809C18.9257 25.4965 19.0625 25.231 19.2557 25.0049L21.799 22.0282L22.6695 22.2217C22.8524 22.2623 23.0442 22.1992 23.164 22.0589L23.9646 21.1219L23.7481 20.951L24.8859 19.6193C25.0017 19.4837 24.9822 19.2843 24.8422 19.1738L23.4725 18.0928L5.49008 39.14Z" fill="#00B81D"/>
<rect width="0.340724" height="4.16653" rx="0.161411" transform="matrix(0.784975 0.619527 -0.649583 0.760291 26.3059 13.1786)" fill="#BDC1C6"/>
<rect width="0.340724" height="4.16653" rx="0.161411" transform="matrix(0.784975 0.619527 -0.649583 0.760291 28.2582 12.8509)" fill="#BDC1C6"/>
<rect width="0.340724" height="4.16653" rx="0.161411" transform="matrix(0.784975 0.619527 -0.649583 0.760291 28.2582 12.8509)" fill="#BDC1C6"/>
<rect width="0.340724" height="2.08727" rx="0.161411" transform="matrix(0.784975 0.619527 -0.649583 0.760291 34.5861 4.55676)" fill="#BDC1C6"/>
<rect width="0.340072" height="2.09132" rx="0.161411" transform="matrix(1.00403 0.159607 -0.166706 0.968712 31.9137 3.00595)" fill="#BDC1C6"/>
<rect width="0.340072" height="2.09132" rx="0.161411" transform="matrix(0.358198 0.915505 -0.956225 0.345598 37.1661 6.93837)" fill="#BDC1C6"/>
<rect width="5.38378" height="2.25591" transform="matrix(0.784975 0.619527 -0.649583 0.760291 6.6991 33.1869)" fill="#EBEEF5"/>
<path d="M27.146 30.4773C27.2458 30.4364 27.353 30.5249 27.3291 30.6286L27.1171 31.5492C27.0723 31.7433 26.8578 31.8465 26.6702 31.764L25.8942 31.4229C25.3736 31.194 25.1055 30.6207 25.2726 30.0939L25.7522 28.5819C26.0084 27.7742 24.9333 27.189 24.3841 27.8373C24.2981 27.9387 24.1282 27.8914 24.1056 27.7597L23.7822 25.8717C23.7551 25.7138 23.9545 25.623 24.0638 25.7434L25.9306 27.7973C26.1707 28.0615 26.2949 28.4067 26.2754 28.7561L26.2156 29.8281C26.1887 30.3118 26.6926 30.6635 27.146 30.4773Z" fill="#FF9800"/>
<ellipse cx="0.971994" cy="0.945957" rx="0.971994" ry="0.945957" transform="matrix(0.923379 0.383889 -0.410415 0.911899 28.7161 21.9986)" fill="#10B9D0"/>
<path d="M20.0459 8.57656C19.9451 8.42633 20.1085 8.23595 20.2778 8.30633L21.4836 8.80764C21.5885 8.85127 21.656 8.95201 21.6556 9.06444C21.6534 9.63989 21.2962 10.1639 20.7514 10.3905L20.2108 10.6155C19.6184 10.862 19.3657 11.5534 19.6686 12.0984C19.7656 12.273 19.5794 12.4733 19.3923 12.3956L18.2287 11.9118C18.1009 11.8587 18.0235 11.731 18.0363 11.5945L18.039 11.5662C18.0912 11.0101 18.4352 10.5151 18.9467 10.2604L19.6736 9.89842C20.1754 9.64852 20.3497 9.02951 20.0459 8.57656Z" fill="#FF143C"/>
<path d="M23.9967 1.96996C23.8858 2.01608 23.7808 1.88797 23.8515 1.7927L24.4888 0.933397C24.5511 0.849443 24.652 0.801538 24.759 0.805193L25.284 0.823134C26.1856 0.853947 26.7938 1.75952 26.459 2.57272L26.4315 2.63964C26.1084 3.42433 26.6993 4.29718 27.5694 4.3206C27.8353 4.32775 27.9108 4.68453 27.6679 4.78555L27.1894 4.98449C27.1432 5.00369 27.0901 5.00067 27.0456 4.97631L24.9703 3.8397C24.6524 3.66555 24.5248 3.28053 24.6803 2.96424L24.7763 2.76878C25.0144 2.28449 24.5023 1.75978 23.9967 1.96996Z" fill="#AC98FF"/>
<path d="M34.0799 16.4357C33.9597 16.3858 33.9871 16.2111 34.1177 16.194L35.3477 16.0335C35.4307 16.0226 35.513 16.0522 35.568 16.1127L36.2231 16.8324C36.6618 17.3143 36.3266 18.0903 35.6614 18.1329L35.5225 18.1418C34.6072 18.2003 34.5051 19.4889 35.403 19.6503C35.5358 19.6741 35.5729 19.842 35.463 19.9217L34.0891 20.9188C33.9952 20.987 33.8627 20.9417 33.8352 20.8321L33.2663 18.5615C33.1734 18.191 33.3951 17.8086 33.7702 17.6919L34.002 17.6198C34.5764 17.4412 34.6275 16.6634 34.0799 16.4357Z" fill="#FF9800"/>
<ellipse cx="1.13842" cy="1.10792" rx="1.13842" ry="1.10792" transform="matrix(0.923379 0.383889 -0.410415 0.911899 11.3221 12.7761)" fill="#FF993B"/>
<ellipse cx="0.927628" cy="0.90278" rx="0.927628" ry="0.90278" transform="matrix(0.923379 0.383889 -0.410415 0.911899 12.9193 4.19141)" fill="#FF143C"/>
<path d="M10.9513 18.9012C10.9848 18.7312 11.2238 18.7121 11.2916 18.8739L11.7657 20.0056C11.8082 20.1071 11.7858 20.2225 11.7086 20.2994C11.3191 20.6872 10.7262 20.804 10.2033 20.5959L8.65768 19.9807C8.63613 19.9721 8.61375 19.9658 8.59094 19.9618L7.87331 19.8372C7.68121 19.8039 7.61199 19.5662 7.75877 19.4439C8.05707 19.1955 8.46805 19.1182 8.84574 19.2396L9.81182 19.5503C10.3196 19.7135 10.8507 19.411 10.9513 18.9012Z" fill="#5CEB73"/>
<ellipse cx="0.85032" cy="0.827543" rx="0.85032" ry="0.827543" transform="matrix(0.923379 0.383889 -0.410415 0.911899 34.2883 30.5825)" fill="#FF143C"/>
<circle cx="38.5275" cy="12.8516" r="0.564938" transform="rotate(23.3916 38.5275 12.8516)" fill="#10B9D0"/>
</svg>
