<svg width="80" height="50" viewBox="0 0 80 50" fill="none" xmlns="http://www.w3.org/2000/svg">
<path d="M29.9231 33.5293C25.3297 33.5293 21.6066 37.2162 21.6066 41.7644C21.6066 46.3128 25.3297 50 29.9231 50C34.516 50 38.2393 46.3128 38.2393 41.7644C38.2393 37.2162 34.516 33.5293 29.9231 33.5293ZM8.31634 33.5299C3.72349 33.5299 0 37.2162 0 41.7648C0 46.3128 3.72349 50 8.31634 50C12.9095 50 16.6331 46.3128 16.6331 41.7648C16.6331 37.2162 12.9095 33.5299 8.31634 33.5299ZM27.4358 23.2351C27.4358 27.7833 23.7127 31.471 19.1199 31.471C14.5266 31.471 10.8034 27.7833 10.8034 23.2351C10.8034 18.6872 14.5266 15 19.1199 15C23.7127 15 27.4358 18.6872 27.4358 23.2351Z" fill="url(#paint0_radial_250_13633)"/>
<defs>
<radialGradient id="paint0_radial_250_13633" cx="0" cy="0" r="1" gradientUnits="userSpaceOnUse" gradientTransform="translate(1911.96 1927.83) scale(2533.86 2319.22)">
<stop stop-color="#FFB900"/>
<stop offset="0.6" stop-color="#F95D8F"/>
<stop offset="0.9991" stop-color="#F95353"/>
</radialGradient>
</defs>
</svg>
