<svg width="80" height="50" viewBox="0 0 80 50" fill="none" xmlns="http://www.w3.org/2000/svg">
<g clip-path="url(#clip0_259_16824)">
<g filter="url(#filter0_d_259_16824)">
<path fill-rule="evenodd" clip-rule="evenodd" d="M9.08213 28.4402C9.4631 28.186 9.91099 28.0504 10.3692 28.0504C10.9836 28.0504 11.5728 28.294 12.0073 28.7278C12.4417 29.1616 12.6858 29.7499 12.6858 30.3633C12.6858 30.8207 12.5499 31.2679 12.2954 31.6483C12.0408 32.0286 11.679 32.3251 11.2557 32.5001C10.8324 32.6752 10.3666 32.721 9.91722 32.6318C9.46784 32.5425 9.05507 32.3222 8.73108 31.9988C8.4071 31.6753 8.18646 31.2632 8.09707 30.8145C8.00769 30.3658 8.05356 29.9008 8.2289 29.4782C8.40424 29.0555 8.70117 28.6943 9.08213 28.4402ZM29.4683 28.4402C29.8493 28.186 30.2972 28.0504 30.7554 28.0504C31.3698 28.0504 31.959 28.294 32.3934 28.7278C32.8279 29.1616 33.072 29.7499 33.072 30.3633C33.072 30.8207 32.9361 31.2679 32.6815 31.6483C32.427 32.0286 32.0652 32.3251 31.6419 32.5001C31.2186 32.6752 30.7528 32.721 30.3034 32.6318C29.854 32.5425 29.4412 32.3222 29.1173 31.9988C28.7933 31.6753 28.5726 31.2632 28.4832 30.8145C28.3939 30.3658 28.4397 29.9008 28.6151 29.4782C28.7904 29.0555 29.0873 28.6943 29.4683 28.4402ZM40.4851 39.6149V21.1116C40.4851 20.2528 40.1434 19.4292 39.5352 18.8219C38.927 18.2147 38.102 17.8735 37.2419 17.8735H3.88266C3.0225 17.8735 2.19756 18.2147 1.58933 18.8219C0.981104 19.4292 0.639404 20.2528 0.639404 21.1116L0.639502 49.1602C0.639503 49.3522 0.883764 49.4339 0.999266 49.2805L5.68954 43.0522C5.78401 42.9268 5.93192 42.853 6.08896 42.853H37.2419C38.102 42.853 38.927 42.5119 39.5352 41.9046C40.1434 41.2974 40.4851 40.4737 40.4851 39.6149ZM20.6787 27.9104C19.4013 27.9104 18.3621 28.9459 18.3621 30.2233C18.3621 31.5007 19.4013 32.5362 20.6787 32.5362C21.9561 32.5362 22.9953 31.5007 22.9953 30.2233C22.9953 28.9459 21.9561 27.9104 20.6787 27.9104Z" fill="#3B5998"/>
<path d="M9.91722 32.6318L10.0146 32.1413H10.0146L9.91722 32.6318ZM8.2289 29.4782L7.76707 29.2866L8.2289 29.4782ZM32.3934 28.7278L32.0402 29.0816V29.0816L32.3934 28.7278ZM32.6815 31.6483L33.0971 31.9264V31.9264L32.6815 31.6483ZM30.3034 32.6318L30.4008 32.1413L30.3034 32.6318ZM28.6151 29.4782L28.1532 29.2866L28.6151 29.4782ZM39.5352 18.8219L39.1819 19.1758V19.1758L39.5352 18.8219ZM1.58933 18.8219L1.23606 18.4681L1.58933 18.8219ZM0.639404 21.1116H0.139404V21.1116L0.639404 21.1116ZM0.639502 49.1602L0.139502 49.1602L0.639502 49.1602ZM0.999266 49.2805L1.39868 49.5813L1.39868 49.5813L0.999266 49.2805ZM5.68954 43.0522L6.08896 43.353L5.68954 43.0522ZM10.3692 27.5504C9.81228 27.5504 9.26782 27.7152 8.80465 28.0242L9.35961 28.8561C9.65837 28.6568 10.0097 28.5504 10.3692 28.5504V27.5504ZM12.3605 28.374C11.8323 27.8465 11.1159 27.5504 10.3692 27.5504V28.5504C10.8512 28.5504 11.3134 28.7416 11.654 29.0816L12.3605 28.374ZM13.1858 30.3633C13.1858 29.617 12.8888 28.9014 12.3605 28.374L11.654 29.0816C11.9946 29.4217 12.1858 29.8827 12.1858 30.3633H13.1858ZM12.7109 31.9264C13.0205 31.4638 13.1858 30.9198 13.1858 30.3633H12.1858C12.1858 30.7217 12.0793 31.0721 11.8798 31.3702L12.7109 31.9264ZM11.4468 32.9622C11.9614 32.7494 12.4013 32.389 12.7109 31.9264L11.8798 31.3702C11.6803 31.6683 11.3967 31.9008 11.0646 32.0381L11.4468 32.9622ZM9.81983 33.1222C10.366 33.2306 10.9322 33.175 11.4468 32.9622L11.0646 32.0381C10.7326 32.1754 10.3672 32.2113 10.0146 32.1413L9.81983 33.1222ZM8.37781 32.3526C8.77177 32.7459 9.27361 33.0137 9.81983 33.1222L10.0146 32.1413C9.66208 32.0713 9.33836 31.8985 9.08435 31.6449L8.37781 32.3526ZM7.60671 30.9122C7.71545 31.458 7.98384 31.9593 8.37781 32.3526L9.08435 31.6449C8.83035 31.3913 8.65747 31.0683 8.58744 30.7168L7.60671 30.9122ZM7.76707 29.2866C7.55379 29.8007 7.49797 30.3664 7.60671 30.9122L8.58744 30.7168C8.5174 30.3653 8.55334 30.0009 8.69073 29.6698L7.76707 29.2866ZM8.80465 28.0242C8.34148 28.3332 7.98035 28.7725 7.76707 29.2866L8.69073 29.6698C8.82813 29.3386 9.06086 29.0554 9.35961 28.8561L8.80465 28.0242ZM30.7554 27.5504C30.1985 27.5504 29.654 27.7152 29.1908 28.0242L29.7458 28.8561C30.0445 28.6568 30.3959 28.5504 30.7554 28.5504V27.5504ZM32.7467 28.374C32.2184 27.8465 31.5021 27.5504 30.7554 27.5504V28.5504C31.2374 28.5504 31.6996 28.7416 32.0402 29.0816L32.7467 28.374ZM33.572 30.3633C33.572 29.617 33.275 28.9014 32.7467 28.374L32.0402 29.0816C32.3808 29.4217 32.572 29.8827 32.572 30.3633H33.572ZM33.0971 31.9264C33.4067 31.4638 33.572 30.9198 33.572 30.3633H32.572C32.572 30.7217 32.4655 31.0721 32.266 31.3702L33.0971 31.9264ZM31.833 32.9622C32.3475 32.7494 32.7875 32.389 33.0971 31.9264L32.266 31.3702C32.0665 31.6683 31.7828 31.9008 31.4508 32.0381L31.833 32.9622ZM30.206 33.1222C30.7522 33.2306 31.3184 33.175 31.833 32.9622L31.4508 32.0381C31.1188 32.1754 30.7533 32.2113 30.4008 32.1413L30.206 33.1222ZM28.764 32.3526C29.1579 32.7459 29.6598 33.0137 30.206 33.1222L30.4008 32.1413C30.0483 32.0713 29.7245 31.8985 29.4705 31.6449L28.764 32.3526ZM27.9929 30.9122C28.1016 31.458 28.37 31.9593 28.764 32.3526L29.4705 31.6449C29.2165 31.3913 29.0436 31.0683 28.9736 30.7168L27.9929 30.9122ZM28.1532 29.2866C27.94 29.8007 27.8841 30.3664 27.9929 30.9122L28.9736 30.7168C28.9036 30.3653 28.9395 30.0009 29.0769 29.6698L28.1532 29.2866ZM29.1908 28.0242C28.7276 28.3332 28.3665 28.7725 28.1532 29.2866L29.0769 29.6698C29.2143 29.3386 29.447 29.0554 29.7458 28.8561L29.1908 28.0242ZM39.9851 21.1116V39.6149H40.9851V21.1116H39.9851ZM39.1819 19.1758C39.6963 19.6893 39.9851 20.3857 39.9851 21.1116H40.9851C40.9851 20.12 40.5905 19.1691 39.8885 18.4681L39.1819 19.1758ZM37.2419 18.3735C37.9697 18.3735 38.6675 18.6622 39.1819 19.1758L39.8885 18.4681C39.1864 17.7672 38.2344 17.3735 37.2419 17.3735V18.3735ZM3.88266 18.3735H37.2419V17.3735H3.88266V18.3735ZM1.9426 19.1758C2.457 18.6622 3.15485 18.3735 3.88266 18.3735V17.3735C2.89014 17.3735 1.93812 17.7672 1.23606 18.4681L1.9426 19.1758ZM1.1394 21.1116C1.1394 20.3857 1.42823 19.6893 1.9426 19.1758L1.23606 18.4681C0.533976 19.1691 0.139404 20.12 0.139404 21.1116H1.1394ZM1.1395 49.1602L1.1394 21.1116L0.139404 21.1116L0.139502 49.1602L1.1395 49.1602ZM0.599856 48.9797C0.773112 48.7496 1.1395 48.8722 1.1395 49.1602L0.139502 49.1602C0.139505 49.8322 0.994415 50.1181 1.39868 49.5813L0.599856 48.9797ZM5.29013 42.7515L0.599855 48.9797L1.39868 49.5813L6.08896 43.353L5.29013 42.7515ZM6.08896 42.353C5.77489 42.353 5.47907 42.5006 5.29013 42.7515L6.08896 43.353V42.353ZM37.2419 42.353H6.08896V43.353H37.2419V42.353ZM39.1819 41.5508C38.6675 42.0644 37.9697 42.353 37.2419 42.353V43.353C38.2344 43.353 39.1864 42.9594 39.8885 42.2584L39.1819 41.5508ZM39.9851 39.6149C39.9851 40.3409 39.6963 41.0372 39.1819 41.5508L39.8885 42.2584C40.5905 41.5575 40.9851 40.6066 40.9851 39.6149H39.9851ZM18.8621 30.2233C18.8621 29.2231 19.6764 28.4104 20.6787 28.4104V27.4104C19.1262 27.4104 17.8621 28.6687 17.8621 30.2233H18.8621ZM20.6787 32.0362C19.6764 32.0362 18.8621 31.2235 18.8621 30.2233H17.8621C17.8621 31.7779 19.1262 33.0362 20.6787 33.0362V32.0362ZM22.4953 30.2233C22.4953 31.2235 21.681 32.0362 20.6787 32.0362V33.0362C22.2312 33.0362 23.4953 31.7779 23.4953 30.2233H22.4953ZM20.6787 28.4104C21.681 28.4104 22.4953 29.2231 22.4953 30.2233H23.4953C23.4953 28.6687 22.2312 27.4104 20.6787 27.4104V28.4104Z" fill="#1A2E58"/>
</g>
<path d="M38.6702 27.7128C44.6874 27.7128 49.6105 22.7975 49.6105 16.79C49.6105 10.7824 44.6874 5.86718 38.6702 5.86718C32.6531 5.86718 27.73 10.7824 27.73 16.79C27.73 22.7975 32.6531 27.7128 38.6702 27.7128Z" fill="#3B5998"/>
<g filter="url(#filter1_d_259_16824)">
<path fill-rule="evenodd" clip-rule="evenodd" d="M38.6702 26.1522C43.8277 26.1522 48.0476 21.9391 48.0476 16.7898C48.0476 11.6404 43.8277 7.42737 38.6702 7.42737C33.5127 7.42737 29.2928 11.6404 29.2928 16.7898C29.2928 21.9391 33.5127 26.1522 38.6702 26.1522ZM37.3309 12.5044C37.3273 11.6405 38.0266 10.9383 38.8905 10.9383C39.7519 10.9383 40.4502 11.6366 40.4502 12.498V16.391C40.4502 17.248 39.7555 17.9427 38.8986 17.9427C38.0441 17.9427 37.3504 17.2519 37.3469 16.3974L37.3309 12.5044ZM40.4502 21.1167C40.4502 20.255 39.7491 19.5563 38.8873 19.5563C38.0255 19.5563 37.3244 20.255 37.3244 21.1167C37.3244 21.9785 38.0255 22.6771 38.8873 22.6771C39.7491 22.6771 40.4502 21.9785 40.4502 21.1167Z" fill="#FF9800"/>
</g>
</g>
<defs>
<filter id="filter0_d_259_16824" x="-0.860596" y="16.3735" width="44.8457" height="36.488" filterUnits="userSpaceOnUse" color-interpolation-filters="sRGB">
<feFlood flood-opacity="0" result="BackgroundImageFix"/>
<feColorMatrix in="SourceAlpha" type="matrix" values="0 0 0 0 0 0 0 0 0 0 0 0 0 0 0 0 0 0 127 0" result="hardAlpha"/>
<feOffset dx="1" dy="1"/>
<feGaussianBlur stdDeviation="1"/>
<feComposite in2="hardAlpha" operator="out"/>
<feColorMatrix type="matrix" values="0 0 0 0 0 0 0 0 0 0 0 0 0 0 0 0 0 0 0.1 0"/>
<feBlend mode="normal" in2="BackgroundImageFix" result="effect1_dropShadow_259_16824"/>
<feBlend mode="normal" in="SourceGraphic" in2="effect1_dropShadow_259_16824" result="shape"/>
</filter>
<filter id="filter1_d_259_16824" x="25.2928" y="7.42737" width="26.7548" height="26.7247" filterUnits="userSpaceOnUse" color-interpolation-filters="sRGB">
<feFlood flood-opacity="0" result="BackgroundImageFix"/>
<feColorMatrix in="SourceAlpha" type="matrix" values="0 0 0 0 0 0 0 0 0 0 0 0 0 0 0 0 0 0 127 0" result="hardAlpha"/>
<feOffset dy="4"/>
<feGaussianBlur stdDeviation="2"/>
<feComposite in2="hardAlpha" operator="out"/>
<feColorMatrix type="matrix" values="0 0 0 0 0 0 0 0 0 0 0 0 0 0 0 0 0 0 0.25 0"/>
<feBlend mode="normal" in2="BackgroundImageFix" result="effect1_dropShadow_259_16824"/>
<feBlend mode="normal" in="SourceGraphic" in2="effect1_dropShadow_259_16824" result="shape"/>
</filter>
<clipPath id="clip0_259_16824">
<rect width="80" height="50" fill="white"/>
</clipPath>
</defs>
</svg>
