<svg width="81" height="50" viewBox="0 0 81 50" fill="none" xmlns="http://www.w3.org/2000/svg">
<g clip-path="url(#clip0_333_8380)">
<path d="M38.6623 30.8791L22.7407 14.9576L21.198 13.4148L9.21262 25.4002L3.732 30.8791C3.45824 31.1543 3.30457 31.5266 3.30457 31.9148C3.30457 32.3029 3.45824 32.6753 3.732 32.9505L14.6817 43.9002L21.198 50.4148L33.1817 38.4294L33.3683 38.2444L38.6623 32.9587C38.7995 32.8225 38.9084 32.6605 38.9827 32.4821C39.057 32.3036 39.0952 32.1122 39.0952 31.9189C39.0952 31.7256 39.057 31.5342 38.9827 31.3558C38.9084 31.1773 38.7995 31.0153 38.6623 30.8791ZM21.198 37.3855L15.7273 31.9148L21.198 26.4441L26.667 31.9148L21.198 37.3855Z" fill="#2684FF"/>
<path d="M21.198 26.4442C19.4775 24.724 18.5076 22.3929 18.5001 19.96C18.4927 17.5271 19.4484 15.1901 21.1584 13.4595L9.18787 25.425L15.7025 31.9397L21.198 26.4442Z" fill="url(#paint0_linear_333_8380)"/>
<path d="M26.6819 31.8999L21.198 37.3855C22.925 39.113 23.8952 41.4557 23.8952 43.8985C23.8952 46.3412 22.925 48.684 21.198 50.4115L33.2015 38.4145L26.6819 31.8999Z" fill="url(#paint1_linear_333_8380)"/>
<path d="M3.30457 36.1582H61.3046V50.4147H3.30457V36.1582Z" fill="#222326"/>
<path d="M10.1619 39.6855L7.39331 47.4053H6.47046L9.2439 39.6855H10.1619ZM15.6257 45.9551C15.8178 45.9551 15.9903 45.9176 16.1433 45.8428C16.2996 45.7646 16.4249 45.6572 16.5193 45.5205C16.6169 45.3838 16.6707 45.2259 16.6804 45.0469H17.7888C17.7823 45.3887 17.6814 45.6995 17.4861 45.9795C17.2908 46.2594 17.032 46.4824 16.7097 46.6484C16.3875 46.8112 16.031 46.8926 15.6404 46.8926C15.2367 46.8926 14.8852 46.8242 14.5857 46.6875C14.2862 46.5475 14.0372 46.3555 13.8386 46.1113C13.6401 45.8672 13.4903 45.5856 13.3894 45.2666C13.2917 44.9476 13.2429 44.6058 13.2429 44.2412V44.0703C13.2429 43.7057 13.2917 43.3639 13.3894 43.0449C13.4903 42.7227 13.6401 42.4395 13.8386 42.1953C14.0372 41.9512 14.2862 41.7607 14.5857 41.624C14.8852 41.484 15.2351 41.4141 15.6355 41.4141C16.0587 41.4141 16.4298 41.4987 16.7488 41.668C17.0678 41.834 17.3184 42.0667 17.5007 42.3662C17.6863 42.6624 17.7823 43.0075 17.7888 43.4014H16.6804C16.6707 43.2061 16.6218 43.0303 16.5339 42.874C16.4493 42.7145 16.3289 42.5876 16.1726 42.4932C16.0196 42.3988 15.8357 42.3516 15.6208 42.3516C15.3832 42.3516 15.1863 42.4004 15.03 42.498C14.8738 42.5924 14.7517 42.7227 14.6638 42.8887C14.5759 43.0514 14.5125 43.2354 14.4734 43.4404C14.4376 43.6423 14.4197 43.8522 14.4197 44.0703V44.2412C14.4197 44.4593 14.4376 44.6709 14.4734 44.876C14.5092 45.0811 14.571 45.265 14.6589 45.4277C14.7501 45.5872 14.8738 45.7158 15.03 45.8135C15.1863 45.9079 15.3848 45.9551 15.6257 45.9551ZM18.4675 44.2119V44.0996C18.4675 43.7188 18.5229 43.3656 18.6335 43.04C18.7442 42.7113 18.9037 42.4264 19.1121 42.1855C19.3236 41.9414 19.5808 41.7526 19.8835 41.6191C20.1895 41.4824 20.5346 41.4141 20.9187 41.4141C21.3061 41.4141 21.6511 41.4824 21.9539 41.6191C22.2598 41.7526 22.5186 41.9414 22.7302 42.1855C22.9418 42.4264 23.1029 42.7113 23.2136 43.04C23.3243 43.3656 23.3796 43.7188 23.3796 44.0996V44.2119C23.3796 44.5928 23.3243 44.946 23.2136 45.2715C23.1029 45.597 22.9418 45.8818 22.7302 46.126C22.5186 46.3669 22.2615 46.5557 21.9587 46.6924C21.656 46.8258 21.3126 46.8926 20.9285 46.8926C20.5411 46.8926 20.1944 46.8258 19.8884 46.6924C19.5857 46.5557 19.3285 46.3669 19.1169 46.126C18.9054 45.8818 18.7442 45.597 18.6335 45.2715C18.5229 44.946 18.4675 44.5928 18.4675 44.2119ZM19.6443 44.0996V44.2119C19.6443 44.4495 19.6687 44.6742 19.7175 44.8857C19.7664 45.0973 19.8429 45.2829 19.947 45.4424C20.0512 45.6019 20.1847 45.7272 20.3474 45.8184C20.5102 45.9095 20.7039 45.9551 20.9285 45.9551C21.1466 45.9551 21.3354 45.9095 21.4949 45.8184C21.6576 45.7272 21.7911 45.6019 21.8953 45.4424C21.9994 45.2829 22.0759 45.0973 22.1248 44.8857C22.1768 44.6742 22.2029 44.4495 22.2029 44.2119V44.0996C22.2029 43.8652 22.1768 43.6439 22.1248 43.4355C22.0759 43.224 21.9978 43.0368 21.8904 42.874C21.7862 42.7113 21.6528 42.5843 21.49 42.4932C21.3305 42.3988 21.1401 42.3516 20.9187 42.3516C20.6973 42.3516 20.5053 42.3988 20.3425 42.4932C20.183 42.5843 20.0512 42.7113 19.947 42.874C19.8429 43.0368 19.7664 43.224 19.7175 43.4355C19.6687 43.6439 19.6443 43.8652 19.6443 44.0996ZM25.5427 42.5859V46.7949H24.366V41.5117H25.4744L25.5427 42.5859ZM25.3523 43.958L24.9519 43.9531C24.9519 43.5885 24.9975 43.2516 25.0886 42.9424C25.1798 42.6331 25.3132 42.3646 25.489 42.1367C25.6648 41.9056 25.8829 41.7282 26.1433 41.6045C26.407 41.4775 26.7113 41.4141 27.0564 41.4141C27.2973 41.4141 27.517 41.4499 27.7156 41.5215C27.9174 41.5898 28.0916 41.6989 28.238 41.8486C28.3878 41.9984 28.5017 42.1904 28.5798 42.4248C28.6612 42.6592 28.7019 42.9424 28.7019 43.2744V46.7949H27.5251V43.377C27.5251 43.1198 27.4861 42.918 27.408 42.7715C27.3331 42.625 27.224 42.5208 27.0808 42.459C26.9408 42.3939 26.7732 42.3613 26.5779 42.3613C26.3565 42.3613 26.1677 42.4036 26.0115 42.4883C25.8585 42.5729 25.7332 42.6885 25.6355 42.835C25.5378 42.9814 25.4662 43.1507 25.4207 43.3428C25.3751 43.5348 25.3523 43.7399 25.3523 43.958ZM28.6287 43.6455L28.0769 43.7676C28.0769 43.4486 28.1208 43.1475 28.2087 42.8643C28.2999 42.5778 28.4317 42.3271 28.6042 42.1123C28.78 41.8942 28.9965 41.7233 29.2537 41.5996C29.5108 41.4759 29.8054 41.4141 30.1375 41.4141C30.4076 41.4141 30.6485 41.4515 30.8601 41.5264C31.075 41.598 31.2572 41.7119 31.407 41.8682C31.5567 42.0244 31.6707 42.2279 31.7488 42.4785C31.8269 42.7259 31.866 43.0254 31.866 43.377V46.7949H30.6843V43.3721C30.6843 43.1051 30.6453 42.8984 30.5671 42.752C30.4923 42.6055 30.3848 42.5046 30.2449 42.4492C30.1049 42.3906 29.9373 42.3613 29.7419 42.3613C29.5597 42.3613 29.3985 42.3955 29.2585 42.4639C29.1218 42.529 29.0063 42.6217 28.9119 42.7422C28.8175 42.8594 28.7458 42.9945 28.697 43.1475C28.6514 43.3005 28.6287 43.4665 28.6287 43.6455ZM34.2537 42.5859V46.7949H33.0769V41.5117H34.1853L34.2537 42.5859ZM34.0632 43.958L33.6628 43.9531C33.6628 43.5885 33.7084 43.2516 33.7996 42.9424C33.8907 42.6331 34.0242 42.3646 34.2 42.1367C34.3757 41.9056 34.5938 41.7282 34.8542 41.6045C35.1179 41.4775 35.4223 41.4141 35.7673 41.4141C36.0082 41.4141 36.2279 41.4499 36.4265 41.5215C36.6283 41.5898 36.8025 41.6989 36.949 41.8486C37.0987 41.9984 37.2126 42.1904 37.2908 42.4248C37.3722 42.6592 37.4128 42.9424 37.4128 43.2744V46.7949H36.2361V43.377C36.2361 43.1198 36.197 42.918 36.1189 42.7715C36.044 42.625 35.935 42.5208 35.7917 42.459C35.6518 42.3939 35.4841 42.3613 35.2888 42.3613C35.0675 42.3613 34.8787 42.4036 34.7224 42.4883C34.5694 42.5729 34.4441 42.6885 34.3464 42.835C34.2488 42.9814 34.1772 43.1507 34.1316 43.3428C34.086 43.5348 34.0632 43.7399 34.0632 43.958ZM37.3396 43.6455L36.7878 43.7676C36.7878 43.4486 36.8318 43.1475 36.9197 42.8643C37.0108 42.5778 37.1427 42.3271 37.3152 42.1123C37.491 41.8942 37.7074 41.7233 37.9646 41.5996C38.2218 41.4759 38.5164 41.4141 38.8484 41.4141C39.1186 41.4141 39.3595 41.4515 39.571 41.5264C39.7859 41.598 39.9682 41.7119 40.1179 41.8682C40.2677 42.0244 40.3816 42.2279 40.4597 42.4785C40.5378 42.7259 40.5769 43.0254 40.5769 43.377V46.7949H39.3953V43.3721C39.3953 43.1051 39.3562 42.8984 39.2781 42.752C39.2032 42.6055 39.0958 42.5046 38.9558 42.4492C38.8158 42.3906 38.6482 42.3613 38.4529 42.3613C38.2706 42.3613 38.1095 42.3955 37.9695 42.4639C37.8328 42.529 37.7172 42.6217 37.6228 42.7422C37.5284 42.8594 37.4568 42.9945 37.408 43.1475C37.3624 43.3005 37.3396 43.4665 37.3396 43.6455ZM44.7664 45.7354V43.2158C44.7664 43.027 44.7322 42.8643 44.6638 42.7275C44.5955 42.5908 44.4913 42.485 44.3513 42.4102C44.2146 42.3353 44.0421 42.2979 43.8337 42.2979C43.6417 42.2979 43.4757 42.3304 43.3357 42.3955C43.1957 42.4606 43.0867 42.5485 43.0085 42.6592C42.9304 42.7699 42.8914 42.8952 42.8914 43.0352H41.7195C41.7195 42.8268 41.7699 42.625 41.8708 42.4297C41.9718 42.2344 42.1182 42.0602 42.3103 41.9072C42.5024 41.7542 42.7319 41.6338 42.9988 41.5459C43.2657 41.458 43.5652 41.4141 43.8972 41.4141C44.2944 41.4141 44.6459 41.4808 44.9519 41.6143C45.2611 41.7477 45.5037 41.9495 45.6794 42.2197C45.8585 42.4867 45.948 42.8219 45.948 43.2256V45.5742C45.948 45.8151 45.9643 46.0316 45.9968 46.2236C46.0326 46.4124 46.0831 46.5768 46.1482 46.7168V46.7949H44.9421C44.8868 46.668 44.8429 46.5068 44.8103 46.3115C44.781 46.113 44.7664 45.9209 44.7664 45.7354ZM44.9373 43.582L44.947 44.3096H44.1023C43.8842 44.3096 43.6921 44.3307 43.5261 44.373C43.3601 44.4121 43.2218 44.4707 43.1111 44.5488C43.0004 44.627 42.9174 44.7214 42.8621 44.832C42.8067 44.9427 42.7791 45.068 42.7791 45.208C42.7791 45.348 42.8116 45.4766 42.8767 45.5938C42.9418 45.7077 43.0362 45.7972 43.1599 45.8623C43.2869 45.9274 43.4399 45.96 43.6189 45.96C43.8598 45.96 44.0697 45.9111 44.2488 45.8135C44.4311 45.7126 44.5743 45.5905 44.6785 45.4473C44.7826 45.3008 44.838 45.1624 44.8445 45.0322L45.2253 45.5547C45.1863 45.6882 45.1195 45.8314 45.0251 45.9844C44.9307 46.1374 44.807 46.2839 44.6541 46.4238C44.5043 46.5605 44.3236 46.6729 44.1121 46.7607C43.9037 46.8486 43.6628 46.8926 43.3894 46.8926C43.0444 46.8926 42.7367 46.8242 42.4666 46.6875C42.1964 46.5475 41.9848 46.3604 41.8318 46.126C41.6788 45.8883 41.6023 45.6198 41.6023 45.3203C41.6023 45.0404 41.6544 44.793 41.7585 44.5781C41.866 44.36 42.0222 44.1777 42.2273 44.0312C42.4356 43.8848 42.6895 43.7741 42.989 43.6992C43.2885 43.6211 43.6303 43.582 44.0144 43.582H44.9373ZM48.3455 42.6396V46.7949H47.1687V41.5117H48.2771L48.3455 42.6396ZM48.1355 43.958L47.7546 43.9531C47.7579 43.5788 47.81 43.2354 47.9109 42.9229C48.0151 42.6104 48.1583 42.3418 48.3406 42.1172C48.5261 41.8926 48.7475 41.7201 49.0046 41.5996C49.2618 41.4759 49.5483 41.4141 49.864 41.4141C50.1179 41.4141 50.3474 41.4499 50.5525 41.5215C50.7608 41.5898 50.9382 41.7021 51.0847 41.8584C51.2345 42.0146 51.3484 42.2181 51.4265 42.4688C51.5046 42.7161 51.5437 43.0205 51.5437 43.3818V46.7949H50.3621V43.377C50.3621 43.123 50.3246 42.9229 50.2498 42.7764C50.1781 42.6266 50.0723 42.5208 49.9324 42.459C49.7957 42.3939 49.6248 42.3613 49.4197 42.3613C49.2179 42.3613 49.0372 42.4036 48.8777 42.4883C48.7182 42.5729 48.5831 42.6885 48.4724 42.835C48.365 42.9814 48.282 43.1507 48.2234 43.3428C48.1648 43.5348 48.1355 43.7399 48.1355 43.958ZM55.9675 45.7012V39.2949H57.1492V46.7949H56.0798L55.9675 45.7012ZM52.53 44.2119V44.1094C52.53 43.709 52.5772 43.3444 52.6716 43.0156C52.766 42.6836 52.9028 42.3988 53.0818 42.1611C53.2608 41.9202 53.4789 41.7363 53.7361 41.6094C53.9932 41.4792 54.283 41.4141 54.6052 41.4141C54.9242 41.4141 55.2042 41.4759 55.4451 41.5996C55.686 41.7233 55.891 41.9007 56.0603 42.1318C56.2296 42.3597 56.3647 42.6331 56.4656 42.9521C56.5665 43.2679 56.6381 43.6195 56.6804 44.0068V44.334C56.6381 44.7116 56.5665 45.0566 56.4656 45.3691C56.3647 45.6816 56.2296 45.9518 56.0603 46.1797C55.891 46.4076 55.6843 46.5833 55.4402 46.707C55.1993 46.8307 54.9177 46.8926 54.5955 46.8926C54.2764 46.8926 53.9884 46.8258 53.7312 46.6924C53.4773 46.5589 53.2608 46.3717 53.0818 46.1309C52.9028 45.89 52.766 45.6068 52.6716 45.2812C52.5772 44.9525 52.53 44.596 52.53 44.2119ZM53.7068 44.1094V44.2119C53.7068 44.4528 53.7279 44.6774 53.7703 44.8857C53.8158 45.0941 53.8858 45.278 53.9802 45.4375C54.0746 45.5938 54.1967 45.7174 54.3464 45.8086C54.4994 45.8965 54.6817 45.9404 54.8933 45.9404C55.1602 45.9404 55.38 45.8818 55.5525 45.7646C55.725 45.6475 55.8601 45.4896 55.9578 45.291C56.0587 45.0892 56.127 44.8646 56.1628 44.6172V43.7334C56.1433 43.5413 56.1026 43.3623 56.0408 43.1963C55.9822 43.0303 55.9024 42.8854 55.8015 42.7617C55.7006 42.6348 55.5753 42.5371 55.4255 42.4688C55.2791 42.3971 55.1049 42.3613 54.9031 42.3613C54.6882 42.3613 54.5059 42.4069 54.3562 42.498C54.2065 42.5892 54.0828 42.7145 53.9851 42.874C53.8907 43.0335 53.8207 43.2191 53.7751 43.4307C53.7296 43.6423 53.7068 43.8685 53.7068 44.1094Z" fill="white"/>
</g>
<defs>
<linearGradient id="paint0_linear_333_8380" x1="20.2185" y1="20.909" x2="12.579" y2="28.5469" gradientUnits="userSpaceOnUse">
<stop offset="0.18" stop-color="#0052CC"/>
<stop offset="1" stop-color="#2684FF"/>
</linearGradient>
<linearGradient id="paint1_linear_333_8380" x1="22.2419" y1="42.8545" x2="29.8666" y2="35.2316" gradientUnits="userSpaceOnUse">
<stop offset="0.18" stop-color="#0052CC"/>
<stop offset="1" stop-color="#2684FF"/>
</linearGradient>
<clipPath id="clip0_333_8380">
<rect width="80" height="50" fill="white" transform="translate(0.304565)"/>
</clipPath>
</defs>
</svg>
