<svg width="80" height="50" viewBox="0 0 80 50" fill="none" xmlns="http://www.w3.org/2000/svg">
<path d="M22.4999 32.0079C22.4993 33.3455 22.2544 34.6255 21.8087 35.8081C20.6266 36.2538 19.3455 36.4987 18.0074 36.5004H17.9921C16.655 36.4987 15.374 36.2544 14.1919 35.8087C13.7462 34.6266 13.5007 33.3455 13.5001 32.0079V31.9921C13.5007 30.655 13.7456 29.374 14.1907 28.1924C15.3728 27.7462 16.6545 27.5007 17.9921 27.5001H18.0074C19.3455 27.5007 20.6266 27.7462 21.8087 28.1924C22.2544 29.374 22.4993 30.655 22.4999 31.9921V32.0079ZM35.75 29.0001H25.243L32.6721 21.5705C32.0884 20.7504 31.4374 19.9811 30.7275 19.2713V19.2708C30.0177 18.5615 29.2485 17.9116 28.429 17.3279L20.9993 24.7576V14.2506C20.0271 14.0871 19.0282 14.0006 18.009 14H17.9904C16.9712 14.0006 15.9729 14.0871 15.0001 14.2506V24.7576L7.57046 17.3279C6.75035 17.9116 5.98171 18.5621 5.27302 19.2719L5.26906 19.2747C4.56038 19.9834 3.91108 20.7515 3.32738 21.5705L10.7576 29.0001H0.250558C0.250558 29.0001 0 30.9734 0 31.9938V32.0062C0 33.0266 0.0865357 34.0265 0.250558 34.9999H10.7576L3.32738 42.4295C4.4959 44.0692 5.93081 45.5047 7.57046 46.6726L15.0001 39.2424V49.75C15.9723 49.9129 16.9695 49.9989 17.987 50H18.0124C19.0305 49.9989 20.0288 49.9129 20.9993 49.75V39.2424L28.4295 46.6726C29.2491 46.0889 30.0177 45.4385 30.7275 44.7292L30.7292 44.7275C31.4379 44.0177 32.0889 43.2485 32.6721 42.4295L25.2419 34.9999H35.75C35.9135 34.0282 35.9989 33.0311 36 32.013V31.987C35.9989 30.9689 35.9135 29.9718 35.75 29.0001Z" fill="#FF4A00"/>
</svg>
