<svg width="80" height="50" viewBox="0 0 80 50" fill="none" xmlns="http://www.w3.org/2000/svg">
<path d="M8.39277 16.9354V38.2429C8.36865 40.522 7.99785 42.584 7.28036 44.4289C6.56288 46.2739 5.36003 48.1309 3.67183 50L0 47.5762C1.03704 46.1292 1.76055 44.7093 2.17054 43.3165C2.58053 41.9238 2.78553 40.2446 2.78553 38.2791V16.9354H8.39277ZM28.7235 16.9354V23.9173H33.6615V28.2765H28.7235V35.8915C28.7235 36.7717 28.826 37.4651 29.031 37.9716C29.236 38.478 29.5616 38.8398 30.0078 39.0568C30.4539 39.2739 31.0508 39.3824 31.7985 39.3824C32.2929 39.3824 32.95 39.3161 33.77 39.1835V43.6512C33.2756 43.7838 32.7239 43.8863 32.115 43.9587C31.506 44.031 30.9121 44.0672 30.3333 44.0672C27.994 44.0672 26.2183 43.4673 25.0065 42.2674C23.7946 41.0676 23.1886 39.1835 23.1886 36.615V28.2765H20.168V23.9173H23.1886L24.2016 16.9354H28.7235ZM18.0879 23.9173V43.7054H12.5349V23.9173H18.0879ZM15.3204 15C16.466 15 17.3252 15.2653 17.8979 15.7959C18.4707 16.3264 18.7571 17.0741 18.7571 18.0388C18.7571 19.0034 18.4707 19.7481 17.8979 20.2726C17.3252 20.7972 16.466 21.0594 15.3204 21.0594C14.1628 21.0594 13.2976 20.7972 12.7248 20.2726C12.152 19.7481 11.8656 19.0034 11.8656 18.0388C11.8656 17.062 12.152 16.3114 12.7248 15.7868C13.2976 15.2623 14.1628 15 15.3204 15Z" fill="#E23CA0"/>
</svg>
