<svg width="80" height="50" viewBox="0 0 80 50" fill="none" xmlns="http://www.w3.org/2000/svg">
<g clip-path="url(#clip0_255_15081)">
<path d="M3.54797 21.3035C2.96093 22.0709 2.4558 22.8932 2.00528 23.7565C4.53093 25.6613 6.12823 28.731 6.12823 32.2529C6.12823 35.7337 4.54458 38.7485 2.05989 40.667C2.52406 41.5167 3.04284 42.3389 3.62988 43.1063C7.1658 40.8452 9.47301 36.8711 9.47301 32.2529C9.47301 27.5799 7.13849 23.5783 3.54797 21.3035ZM4.74936 32.2392C4.77667 29.471 3.54797 26.8125 1.41823 25.0447C-0.493071 29.6354 -0.465766 34.7881 1.45919 39.3652C3.56162 37.6111 4.77667 34.9936 4.74936 32.2392ZM10.5242 15.7397C9.54127 16.1646 8.61293 16.699 7.72554 17.302C10.5652 19.1931 12.7905 21.8928 14.1284 25.0447C15.0977 24.5239 16.1626 24.2087 17.2547 24.1265C15.8349 20.7554 13.5004 17.8501 10.5242 15.7397ZM10.6198 34.8977C9.95084 38.7074 7.75284 42.0648 4.53093 44.1889C5.17258 44.9152 5.88249 45.5867 6.64701 46.2034C9.52762 44.3808 11.7666 41.6811 13.0089 38.5018C11.8621 37.57 11.0294 36.3092 10.6198 34.8977ZM14.1967 39.2692C12.8861 42.4485 10.6744 45.1619 7.83475 47.0804C8.72214 47.6834 9.6778 48.2042 10.6608 48.629C13.6369 46.4912 15.9578 43.5448 17.364 40.16C16.2581 40.0915 15.1796 39.79 14.1967 39.2692ZM6.52414 18.1927C5.77327 18.8094 5.06336 19.4809 4.42171 20.2209C7.64362 22.3176 9.86893 25.6613 10.5652 29.4573C10.9748 28.0458 11.7939 26.785 12.9134 25.8395C11.6574 22.6739 9.4184 20.0016 6.52414 18.1927Z" fill="#0080FF"/>
<path d="M17.9928 14.1499C15.9722 14.1499 13.9654 14.4788 12.0404 15.1366C15.0575 17.4662 17.3784 20.577 18.7709 24.1263C22.812 24.4826 25.8154 27.5797 25.8154 32.143C25.8154 36.6516 22.8529 39.7487 18.8528 40.1461C17.474 43.7091 15.1668 46.8473 12.1769 49.2043C14.0473 49.8347 16.0132 50.1499 17.9928 50.1499C27.9861 50.1499 36 42.2976 36 32.143C36 21.9885 27.9861 14.1499 17.9928 14.1499Z" fill="#101921"/>
</g>
<defs>
<clipPath id="clip0_255_15081">
<rect width="80" height="50" fill="white"/>
</clipPath>
</defs>
</svg>
