<svg width="80" height="50" viewBox="0 0 80 50" fill="none" xmlns="http://www.w3.org/2000/svg">
<path opacity="0.5" d="M24.543 32.2089L74.8419 30.703L65.1116 41.3066C63.8025 42.7331 62.0683 43.6995 60.1664 44.0622L30.7174 49.678L24.543 32.2089Z" fill="url(#paint0_linear_259_16940)"/>
<path d="M30.8762 20.5915L0.0742577 20.4818L0 48.2293L30.3476 49.9697C30.6345 49.9862 30.8762 49.758 30.8762 49.4706V20.5915Z" fill="#FED095"/>
<path d="M0.250633 47.9933L0.323587 20.7327L30.6262 20.8406V49.4706C30.6262 49.6143 30.5054 49.7284 30.3619 49.7202L0.250633 47.9933Z" stroke="#A6733C" stroke-opacity="0.5" stroke-width="0.5" stroke-linecap="round" stroke-linejoin="round"/>
<path d="M30.3939 49.9324L30.6259 49.9325L45.155 39.9962L45.0779 14.2875L44.7705 14.3128L30.3939 20.7017V49.9324Z" fill="#FEBC67"/>
<path d="M30.6439 49.6172V20.8642L44.8287 14.5605L44.9046 39.8646L30.6439 49.6172Z" stroke="#A6733C" stroke-opacity="0.5" stroke-width="0.5" stroke-linecap="round" stroke-linejoin="round"/>
<path d="M14.7523 14L0.137241 20.4797L0.092041 20.6631L30.7959 21.0117L44.9291 14.5164L45.0701 14.3181L14.7523 14Z" fill="#ECB875"/>
<path d="M14.804 14.2506L44.2369 14.5594L30.7426 20.761L0.88397 20.4221L14.804 14.2506Z" stroke="#A6733C" stroke-opacity="0.5" stroke-width="0.5" stroke-linecap="round" stroke-linejoin="round"/>
<g style="mix-blend-mode:multiply" opacity="0.5">
<path d="M39.6586 16.7301L9.31913 16.4103L6.57483 17.6269L36.4114 18.2904L36.4887 32.7809L36.8844 32.297C36.9418 32.2268 37.0336 32.1945 37.1223 32.2134C37.2233 32.2348 37.3267 32.19 37.3801 32.1016L37.4534 31.9803C37.5093 31.8878 37.6144 31.8369 37.7216 31.8504C37.8286 31.8639 37.9336 31.8132 37.9895 31.721L38.0248 31.6629C38.0776 31.576 38.1792 31.5314 38.2789 31.5513C38.3788 31.5712 38.4805 31.5264 38.5332 31.4392L38.5858 31.3521C38.6539 31.2396 38.7863 31.1832 38.9146 31.2123C39.0234 31.2369 39.1371 31.2002 39.2109 31.1166L39.2404 31.0832C39.3076 31.0071 39.4026 30.961 39.504 30.9553L39.7369 30.9421L39.6586 16.7301Z" fill="#4E3829"/>
</g>
<path d="M8.44043 16.9053L37.9911 17.5393" stroke="#835B34" stroke-width="0.3" stroke-linecap="square"/>
<path opacity="0.7" d="M5.17092 25.4364C5.17092 24.9318 5.58571 24.5258 6.09019 24.5366L23.7077 24.9138C24.1972 24.9243 24.5885 25.324 24.5885 25.8136V42.3191C24.5885 42.8345 24.1565 43.2447 23.6417 43.2179L6.0242 42.302C5.54595 42.2771 5.17092 41.8821 5.17092 41.4032V25.4364Z" fill="#FFFBFB" fill-opacity="0.7" stroke="#A6733C" stroke-width="0.2"/>
<rect opacity="0.5" x="7.61694" y="27.724" width="13.8583" height="1.9751" rx="0.987549" transform="rotate(1.41124 7.61694 27.724)" fill="#BDC1C6"/>
<rect opacity="0.5" x="7.61694" y="31.3356" width="13.8583" height="1.9751" rx="0.987549" transform="rotate(1.41124 7.61694 31.3356)" fill="#BDC1C6"/>
<rect opacity="0.5" x="7.61694" y="34.9474" width="7.91902" height="1.9751" rx="0.987549" transform="rotate(1.41124 7.61694 34.9474)" fill="#BDC1C6"/>
<rect opacity="0.5" x="17.2966" y="35.6721" width="4.38751" height="4.75122" rx="2.19375" transform="rotate(1.41124 17.2966 35.6721)" fill="#D9D9D9" fill-opacity="0.5" stroke="#BDC1C6" stroke-width="0.5"/>
<defs>
<linearGradient id="paint0_linear_259_16940" x1="16.8626" y1="42.1482" x2="71.0771" y2="32.6607" gradientUnits="userSpaceOnUse">
<stop/>
<stop offset="1" stop-color="#D1CDCD" stop-opacity="0"/>
</linearGradient>
</defs>
</svg>
