<svg width="80" height="50" viewBox="0 0 80 50" fill="none" xmlns="http://www.w3.org/2000/svg">
<path d="M28.9361 22.0463C26.7821 22.2173 24.9758 22.9923 23.631 24.3257C22.2463 25.699 21.5853 27.3743 21.5853 29.4998C21.5853 32.6794 22.8902 34.9018 25.802 36.6626C26.5428 37.107 27.5514 37.5914 29.2951 38.3436C31.6713 39.3636 32.5546 39.8479 33.1187 40.452C33.8139 41.1984 34.0076 42.3894 33.5689 43.3011C33.4834 43.4778 33.2611 43.7741 33.0617 43.9735C32.3893 44.6516 31.3294 45.0106 30.0131 45.0106C27.7907 45.0106 26.1325 44.0989 24.7991 42.1273C24.6168 41.8651 24.4515 41.6486 24.4287 41.6486C24.3774 41.6486 20.041 44.1502 19.9498 44.2356C19.8929 44.2869 19.9384 44.4066 20.1607 44.7713C21.893 47.6888 24.5997 49.3983 28.258 49.8884C29.2153 50.0194 31.0103 50.0138 31.9277 49.8884C34.2299 49.5636 35.9565 48.8 37.2956 47.5008C38.7201 46.1275 39.421 44.3496 39.421 42.1216C39.421 40.697 39.1874 39.5858 38.6575 38.486C38.2928 37.7338 37.9281 37.2267 37.3013 36.5885C36.0989 35.369 34.5433 34.4459 31.4377 33.1125C29.09 32.1039 28.3036 31.6708 27.785 31.1181C27.2893 30.5881 27.0785 29.967 27.124 29.1921C27.1639 28.5766 27.3349 28.1607 27.711 27.7561C28.2523 27.1691 28.8791 26.9241 29.8478 26.9298C30.9476 26.9298 31.6599 27.2147 32.3836 27.9441C32.64 28.1948 32.9705 28.5994 33.1244 28.8445C33.301 29.1237 33.4321 29.2775 33.4777 29.2604C33.6258 29.1978 37.7685 26.5195 37.7685 26.4796C37.7685 26.4569 37.5577 26.1264 37.3013 25.7389C36.7542 24.9183 35.7684 23.8926 35.0903 23.4424C33.8367 22.6105 32.4976 22.1831 30.7311 22.052C29.8649 21.9837 29.751 21.9837 28.9361 22.0463Z" fill="black"/>
<path d="M11.1972 32.4002L11.1801 42.4748L11.0548 42.9478C10.8895 43.5689 10.6958 43.9393 10.3539 44.2812C9.87521 44.7599 9.25979 44.9593 8.23409 44.965C6.76962 44.9707 5.89207 44.3496 4.87207 42.6059C4.70682 42.3324 4.55866 42.1101 4.54157 42.1158C4.51878 42.1272 3.48738 42.7484 2.25084 43.4948L0 44.8624L0.17095 45.2043C1.19095 47.2386 2.95743 48.7772 5.08291 49.4838C7.32805 50.2303 10.2114 50.1619 12.3255 49.3128C14.8612 48.2871 16.3485 46.1674 16.7417 43.0162C16.7759 42.6971 16.7987 39.1356 16.7987 32.4344V22.3312H14.0065H11.22L11.1972 32.4002Z" fill="black"/>
</svg>
