<svg width="80" height="50" viewBox="0 0 80 50" fill="none" xmlns="http://www.w3.org/2000/svg">
<path d="M36.9406 30.177C38.6257 32.3411 39.5683 35.0733 39.5683 37.8667C39.5683 44.5645 34.346 50 27.9436 50C27.1842 49.9985 26.4262 49.9208 25.6821 49.7675C24.9379 49.6141 24.2111 49.386 23.5125 49.0872C22.8134 48.7877 22.1462 48.4187 21.521 47.9858C20.8951 47.5526 20.3145 47.0575 19.7878 46.5079C18.73 47.6089 17.4615 48.4857 16.0578 49.0862C15.3583 49.385 14.6306 49.613 13.8857 49.767C13.1411 49.9203 12.3826 49.9985 11.6227 50C5.20795 50 0 44.5501 0 37.8667C0 32.4431 3.43123 27.8452 8.13007 26.299V26.1338C8.13007 19.436 13.3355 14 19.7547 14C26.1689 14 31.3724 19.4479 31.3724 26.1313V26.2733C31.9186 26.4519 32.451 26.6706 32.9651 26.9274C33.4791 27.1846 33.9739 27.4795 34.4449 27.81C34.916 28.14 35.3622 28.5047 35.7798 28.901C36.1974 29.2973 36.5853 29.7238 36.9406 30.177ZM27.9436 46.9319C32.7439 46.9319 36.6412 42.8644 36.6531 37.8786C36.6531 34.0526 34.3227 30.6673 30.9672 29.3676C30.6196 30.688 30.0539 31.941 29.2934 33.0749C28.9143 33.6404 28.4885 34.1732 28.0203 34.6676C27.5529 35.1616 27.0448 35.6156 26.5014 36.0247C26.2397 36.2192 25.9453 36.3087 25.6509 36.3087C25.1937 36.3087 24.7341 36.0767 24.4511 35.665C24.3405 35.5005 24.2621 35.3165 24.22 35.1227C24.1774 34.9289 24.172 34.7288 24.2042 34.533C24.2358 34.337 24.3046 34.149 24.406 33.9788C24.508 33.8086 24.6406 33.6592 24.7979 33.539C25.937 32.6753 26.8595 31.5583 27.4924 30.2765C27.8086 29.6372 28.0495 28.9633 28.2108 28.2682C28.3721 27.573 28.4523 26.8616 28.4503 26.1476C28.4503 21.1475 24.5525 17.0804 19.7666 17.0804C15.089 17.0804 11.2758 20.9416 11.0779 25.7711C11.2644 25.7597 11.448 25.7597 11.634 25.7597C11.9749 25.7592 12.3153 25.7741 12.6547 25.8047C12.9942 25.8354 13.3321 25.8814 13.667 25.9433C14.3378 26.0664 14.996 26.2505 15.6333 26.4935C15.8782 26.5835 16.8776 26.9694 17.5183 27.5349C17.6663 27.6685 17.787 27.8288 17.8746 28.0079C17.9621 28.1866 18.0151 28.381 18.0299 28.5799C18.0448 28.7788 18.021 28.9787 17.9612 29.1687C17.901 29.3588 17.8051 29.5356 17.6786 29.6897C17.5582 29.8418 17.4078 29.9676 17.2368 30.0593C17.0656 30.1508 16.8776 30.2062 16.6846 30.2215C16.4917 30.2369 16.2972 30.2126 16.1142 30.1498C15.9307 30.0866 15.7622 29.9864 15.6189 29.8554C15.473 29.7273 15.0014 29.4977 14.667 29.3794C14.6551 29.3794 14.6457 29.3676 14.6338 29.3676C13.668 29.0079 12.6592 28.8134 11.6227 28.8134C6.83426 28.8134 2.93399 32.8834 2.93399 37.8786C2.93399 42.8763 6.83426 46.9458 11.6227 46.9458C12.2202 46.9446 12.8159 46.8801 13.3999 46.7533C14.5719 46.4984 15.6766 45.9979 16.6411 45.2848C17.1226 44.9287 17.5652 44.5229 17.9617 44.0741C16.9271 42.2583 16.3215 40.1323 16.3215 37.8667C16.3131 37.4678 16.4635 37.0818 16.7396 36.7936C16.8761 36.6516 17.0394 36.5378 17.22 36.4591C17.4006 36.38 17.595 36.3379 17.7919 36.3349C17.9879 36.3394 18.1813 36.3819 18.3609 36.4611C18.5405 36.5403 18.7033 36.6541 18.8394 36.7956C18.9754 36.9376 19.0828 37.1048 19.155 37.2884C19.2273 37.4716 19.2629 37.6673 19.2599 37.8643C19.2599 42.8644 23.1577 46.9319 27.9436 46.9319Z" fill="#F3702A"/>
</svg>
