<svg width="80" height="50" viewBox="0 0 80 50" fill="none" xmlns="http://www.w3.org/2000/svg">
<path d="M14.9444 9H36.0555C36.5712 9 37.0658 9.20485 37.4304 9.56951C37.7951 9.93416 38 10.4287 38 10.9444V32.0556C38.002 32.4262 37.897 32.7897 37.6978 33.1022C37.4984 33.4149 37.2132 33.6633 36.8763 33.818C36.6191 33.9373 36.3391 33.9994 36.0555 34C35.5974 34.0002 35.1542 33.8372 34.8055 33.5402L34.7972 33.5332L30.1902 28.4445H14.9444C14.4287 28.4445 13.9341 28.2396 13.5694 27.8749C13.2048 27.5102 13 27.0157 13 26.5V10.9444C13 10.4287 13.2048 9.93416 13.5694 9.56951C13.9341 9.20485 14.4287 9 14.9444 9ZM14.6667 26.5C14.6667 26.5737 14.6959 26.6442 14.748 26.6964C14.8001 26.7485 14.8708 26.7778 14.9444 26.7778H30.5C30.6999 26.7778 30.8931 26.8498 31.0444 26.9806L35.8805 32.268C35.9211 32.3009 35.9701 32.3217 36.0219 32.328C36.0736 32.3343 36.1263 32.3259 36.1735 32.3038C36.2208 32.2816 36.2609 32.2466 36.2891 32.2026C36.3173 32.1587 36.3326 32.1077 36.3333 32.0556V10.9444C36.3333 10.8708 36.304 10.8001 36.2519 10.748C36.1999 10.6959 36.1292 10.6667 36.0555 10.6667H14.9444C14.8708 10.6667 14.8001 10.6959 14.748 10.748C14.6959 10.8001 14.6667 10.8708 14.6667 10.9444V26.5ZM20.7778 16.5C20.7778 16.721 20.8655 16.933 21.0218 17.0893C21.1781 17.2455 21.3901 17.3334 21.6111 17.3334H30.5C30.721 17.3333 30.9329 17.2455 31.0892 17.0893C31.2454 16.933 31.3333 16.721 31.3333 16.5C31.3333 16.279 31.2454 16.067 31.0892 15.9107C30.9329 15.7545 30.721 15.6667 30.5 15.6667H21.6111C21.3901 15.6667 21.1781 15.7545 21.0218 15.9107C20.8655 16.067 20.7778 16.279 20.7778 16.5ZM20.7778 20.9445C20.7778 21.1655 20.8655 21.3774 21.0218 21.5337C21.1781 21.6899 21.3901 21.7778 21.6111 21.7778H30.5C30.721 21.7778 30.9329 21.6899 31.0892 21.5337C31.2454 21.3774 31.3333 21.1655 31.3333 20.9445C31.3333 20.7234 31.2454 20.5115 31.0892 20.3551C30.9329 20.1989 30.721 20.1111 30.5 20.1111H21.6111C21.3901 20.1111 21.1781 20.1989 21.0218 20.3551C20.8655 20.5115 20.7778 20.7234 20.7778 20.9445Z" fill="black"/>
<mask id="mask0_250_14106" style="mask-type:luminance" maskUnits="userSpaceOnUse" x="0" y="13" width="37" height="37">
<path d="M0.0001297 13.628H36.0105V49.6384H0.0001297V13.628Z" fill="white"/>
</mask>
<g mask="url(#mask0_250_14106)">
<path d="M30.9394 31.3024L28.8909 29.8681L22.5791 38.8816L24.6276 40.3161L30.9394 31.3024Z" fill="#42484C"/>
<path d="M28.1132 30.5413L30.571 32.2628C30.796 32.4208 31.1101 32.3648 31.2672 32.1398C31.4252 31.9146 31.3692 31.6005 31.1442 31.4435L28.6864 29.7221C28.4614 29.564 28.1473 29.62 27.9902 29.8451C27.8321 30.0701 27.8872 30.3833 28.1132 30.5413ZM21.5563 38.1615L25.6535 41.0303C25.8786 41.1884 26.1927 41.1323 26.3498 40.9073C26.5078 40.6821 26.4518 40.3681 26.2266 40.2111L22.1295 37.3422C21.9045 37.1841 21.5904 37.2402 21.4333 37.4652C21.2752 37.6904 21.3313 38.0034 21.5563 38.1615Z" fill="#66757F"/>
<path d="M25.0382 40.6028L22.1695 38.5942L17.007 45.9692L19.8748 47.9778L25.0382 40.6028ZM29.7916 32.9406L27.743 31.5061L27.1699 32.3263L29.2184 33.7597L29.7916 32.9406ZM28.6442 34.579L26.5957 33.1445L26.0226 33.9648L28.0711 35.3993L28.6442 34.579ZM27.497 36.2184L25.4484 34.7841L24.8742 35.6043L26.9228 37.0387L27.497 36.2184ZM26.3497 37.858L24.301 36.4235L23.7268 37.2428L25.7755 38.6771L26.3497 37.858Z" fill="black"/>
<path d="M8.65424 33.775C8.65424 33.775 4.7321 36.8778 6.43059 40.6369C6.43059 40.6369 10.9728 38.3182 8.65424 33.775Z" fill="#292F33"/>
<path d="M6.03405 39.2268C5.84299 37.5883 6.58619 36.1609 7.33045 35.1756C8.09561 34.8105 8.74879 34.6326 8.99784 34.5735C9.03792 34.6845 9.05894 34.7886 9.09089 34.8975C8.95184 37.5373 7.39643 38.7127 6.03405 39.2268Z" fill="black"/>
<path d="M9.00286 33.6343C9.00286 33.6343 4.09642 34.6026 3.88936 38.7218C3.88936 38.7218 8.98985 38.7348 9.00286 33.6343ZM0.000244141 49.6389V47.6383C0.000244141 44.3234 2.68601 41.6365 6.00197 41.6365H22.0066C25.3206 41.6365 28.0083 44.3234 28.0083 47.6383V49.6389H0.000244141Z" fill="#292F33"/>
<path d="M19.2053 40.3862H8.79919V44.6363H19.2053V40.3862Z" fill="#292F33"/>
<path d="M18.0074 40.6358H10.0051C10.0051 40.6358 11.0234 47.6378 14.0063 47.6378C16.9892 47.6378 18.0074 40.6358 18.0074 40.6358Z" fill="#292F33"/>
<path d="M18.3648 43.673C16.6204 44.9413 15.516 45.6366 14.0036 45.6366C12.4911 45.6366 11.3878 44.9403 9.64331 43.673V37.9223H18.3658L18.3648 43.673Z" fill="#292F33"/>
<path d="M18.3739 39.6083C17.1574 40.9828 15.6491 41.3548 14.0086 41.3548C12.3691 41.3548 10.8617 40.9817 9.64429 39.6083V36.1164H18.3748L18.3739 39.6083Z" fill="black"/>
<path d="M20.5636 29.5696C20.5636 31.018 21.2979 32.1924 22.2031 32.1924C23.1084 32.1924 23.8426 31.018 23.8426 29.5696C23.8426 28.1212 23.1084 26.9458 22.2031 26.9458C21.2979 26.9449 20.5636 28.1202 20.5636 29.5696ZM4.16992 29.5696C4.16992 31.018 4.90313 32.1924 5.80939 32.1924C6.7146 32.1924 7.44886 31.018 7.44886 29.5696C7.44886 28.1212 6.71565 26.9458 5.80939 26.9458C4.90313 26.9449 4.16992 28.1202 4.16992 29.5696Z" fill="#292F33"/>
<path d="M22.5314 30.1717C22.5314 22.6295 20.0078 18.6284 14.006 18.6284C8.00426 18.6284 5.48157 22.6295 5.48157 30.1717C5.48157 35.9944 9.29761 40.7148 14.006 40.7148C18.7143 40.7148 22.5314 35.9944 22.5314 30.1717Z" fill="#292F33"/>
<path d="M21.0067 41.6347C21.0067 42.635 20.0064 44.6357 18.0059 46.6362C16.4244 48.2177 15.286 49.637 15.286 49.637C14.4888 49.632 13.3855 49.6331 12.5553 49.6361C13.4466 47.6155 15.033 46.164 15.8353 45.3618C16.8355 44.3615 19.0061 42.635 19.0061 40.6344C19.0061 39.6342 21.0067 41.6347 21.0067 41.6347Z" fill="#66757F"/>
<path d="M15.2854 49.6377L12.5605 49.6367C13.0727 48.4754 13.812 47.5091 14.5012 46.7389C15.0062 47.3521 15.4934 48.0853 15.9065 48.8995C15.5184 49.3486 15.2854 49.6377 15.2854 49.6377Z" fill="#292F33"/>
<path d="M7.00464 41.6347C7.00464 42.635 8.00491 44.6357 10.0056 46.6362C11.587 48.2177 12.5062 49.637 12.5062 49.637C13.4086 49.6331 13.9247 49.6351 15.5072 49.637C14.6158 47.6165 12.9784 46.164 12.1762 45.3618C11.1759 44.3615 9.00519 42.635 9.00519 40.6344C9.00519 39.6342 7.00464 41.6347 7.00464 41.6347Z" fill="#66757F"/>
<path d="M14.0047 27.3426C17.0005 27.3426 22.1231 25.298 21.0707 29.3231C20.4566 31.6718 19.6533 32.2049 17.5947 31.9298C15.4701 31.6467 15.6032 30.9135 14.0987 30.9135C12.5943 30.9135 12.5383 31.6467 10.4136 31.9298C8.35502 32.204 7.55187 31.6718 6.9376 29.3231C5.88635 25.298 11.0089 27.3426 14.0047 27.3426Z" fill="#FFDC5D"/>
<path d="M18.0053 30.6318C18.5554 30.6318 19.0056 30.1817 19.0056 29.6316V28.6313C19.0056 28.0811 18.5554 27.631 18.0053 27.631C17.4551 27.631 17.005 28.0811 17.005 28.6313V29.6316C17.005 30.1817 17.4551 30.6318 18.0053 30.6318ZM10.003 30.6318C10.5531 30.6318 11.0032 30.1817 11.0032 29.6316V28.6313C11.0032 28.0811 10.5531 27.631 10.003 27.631C9.45282 27.631 9.00269 28.0811 9.00269 28.6313V29.6316C9.00269 30.1817 9.45282 30.6318 10.003 30.6318Z" fill="#662113"/>
</g>
</svg>
