<svg width="40" height="40" viewBox="0 0 40 40" fill="none" xmlns="http://www.w3.org/2000/svg">
<path d="M17.8047 2.84375H36.8047C37.2688 2.84375 37.7139 3.02812 38.0421 3.35631C38.3703 3.6845 38.5547 4.12962 38.5547 4.59375V23.5938C38.5565 23.9274 38.462 24.2545 38.2827 24.5358C38.1033 24.8172 37.8466 25.0408 37.5434 25.18C37.3119 25.2874 37.0599 25.3433 36.8047 25.3438C36.3924 25.344 35.9935 25.1973 35.6797 24.93L35.6722 24.9237L31.5259 20.3438H17.8047C17.3405 20.3438 16.8954 20.1594 16.5672 19.8312C16.239 19.503 16.0547 19.0579 16.0547 18.5938V4.59375C16.0547 4.12962 16.239 3.6845 16.5672 3.35631C16.8954 3.02812 17.3405 2.84375 17.8047 2.84375ZM17.5547 18.5938C17.5547 18.6601 17.581 18.7236 17.6279 18.7705C17.6748 18.8174 17.7384 18.8438 17.8047 18.8438H31.8047C31.9846 18.8438 32.1585 18.9086 32.2947 19.0263L36.6472 23.785C36.6837 23.8146 36.7278 23.8333 36.7744 23.839C36.821 23.8447 36.8684 23.8371 36.9109 23.8172C36.9534 23.7972 36.9895 23.7657 37.0149 23.7261C37.0403 23.6866 37.0541 23.6407 37.0547 23.5938V4.59375C37.0547 4.52745 37.0283 4.46386 36.9814 4.41697C36.9346 4.37009 36.871 4.34375 36.8047 4.34375H17.8047C17.7384 4.34375 17.6748 4.37009 17.6279 4.41697C17.581 4.46386 17.5547 4.52745 17.5547 4.59375V18.5938ZM23.0547 9.59375C23.0547 9.79266 23.1337 9.98343 23.2743 10.1241C23.415 10.2647 23.6058 10.3438 23.8047 10.3438H31.8047C32.0036 10.3437 32.1943 10.2647 32.335 10.1241C32.4756 9.98343 32.5547 9.79266 32.5547 9.59375C32.5547 9.39484 32.4756 9.20407 32.335 9.06342C32.1943 8.92277 32.0036 8.84375 31.8047 8.84375H23.8047C23.6058 8.84375 23.415 8.92277 23.2743 9.06342C23.1337 9.20407 23.0547 9.39484 23.0547 9.59375ZM23.0547 13.5938C23.0547 13.7927 23.1337 13.9834 23.2743 14.1241C23.415 14.2647 23.6058 14.3438 23.8047 14.3438H31.8047C32.0036 14.3438 32.1943 14.2647 32.335 14.1241C32.4756 13.9834 32.5547 13.7927 32.5547 13.5938C32.5547 13.3948 32.4756 13.2041 32.335 13.0634C32.1943 12.9228 32.0036 12.8438 31.8047 12.8438H23.8047C23.6058 12.8438 23.415 12.9228 23.2743 13.0634C23.1337 13.2041 23.0547 13.3948 23.0547 13.5938Z" fill="black"/>
<g clip-path="url(#clip0_19193_136807)">
<path d="M31.0781 23.2153L29.3146 21.9805L23.881 29.7399L25.6445 30.9748L31.0781 23.2153Z" fill="#42484C"/>
<path d="M28.645 22.56L30.7608 24.042C30.9545 24.178 31.2249 24.1298 31.3601 23.9361C31.4961 23.7423 31.4479 23.4719 31.2542 23.3367L29.1384 21.8548C28.9447 21.7187 28.6743 21.7669 28.5391 21.9607C28.403 22.1544 28.4504 22.424 28.645 22.56ZM23.0004 29.12L26.5275 31.5896C26.7213 31.7257 26.9917 31.6774 27.1269 31.4837C27.2629 31.2899 27.2147 31.0196 27.0209 30.8844L23.4938 28.4147C23.3001 28.2786 23.0297 28.3269 22.8945 28.5206C22.7584 28.7144 22.8067 28.9839 23.0004 29.12Z" fill="#66757F"/>
<path d="M25.9978 31.2216L23.5282 29.4925L19.084 35.8414L21.5528 37.5705L25.9978 31.2216ZM30.0898 24.6255L28.3263 23.3906L27.8329 24.0967L29.5964 25.3307L30.0898 24.6255ZM29.1021 26.036L27.3386 24.8011L26.8452 25.5072L28.6087 26.7421L29.1021 26.036ZM28.1145 27.4473L26.3509 26.2125L25.8566 26.9186L27.6202 28.1534L28.1145 27.4473ZM27.1268 28.8587L25.3632 27.6238L24.8689 28.3291L26.6325 29.5639L27.1268 28.8587Z" fill="black"/>
<path d="M11.8935 25.3438C11.8935 25.3438 8.51707 28.0149 9.97924 31.251C9.97924 31.251 13.8895 29.2549 11.8935 25.3438Z" fill="#292F33"/>
<path d="M9.63798 30.0371C9.4735 28.6266 10.1133 27.3978 10.754 26.5496C11.4127 26.2353 11.975 26.0821 12.1894 26.0312C12.2239 26.1268 12.242 26.2164 12.2695 26.3102C12.1498 28.5827 10.8108 29.5945 9.63798 30.0371Z" fill="black"/>
<path d="M12.1936 25.2227C12.1936 25.2227 7.96983 26.0562 7.79158 29.6023C7.79158 29.6023 12.1824 29.6135 12.1936 25.2227ZM4.44358 39.0004V37.2782C4.44358 34.4245 6.75566 32.1115 9.61024 32.1115H23.388C26.2409 32.1115 28.5547 34.4245 28.5547 37.2782V39.0004H4.44358Z" fill="#292F33"/>
<path d="M20.9766 31.0352H12.0184V34.694H20.9766V31.0352Z" fill="#292F33"/>
<path d="M19.9453 31.25H13.0564C13.0564 31.25 13.933 37.2778 16.5009 37.2778C19.0687 37.2778 19.9453 31.25 19.9453 31.25Z" fill="#292F33"/>
<path d="M20.253 33.8646C18.7513 34.9565 17.8006 35.555 16.4986 35.555C15.1966 35.555 14.2468 34.9556 12.745 33.8646V28.9141H20.2539V33.8646H20.253Z" fill="#292F33"/>
<path d="M20.2609 30.3655C19.2137 31.5487 17.9152 31.869 16.503 31.869C15.0916 31.869 13.7939 31.5478 12.7459 30.3655V27.3594H20.2617V30.3655H20.2609Z" fill="black"/>
<path d="M22.146 21.7235C22.146 22.9704 22.7781 23.9814 23.5574 23.9814C24.3367 23.9814 24.9688 22.9704 24.9688 21.7235C24.9688 20.4767 24.3367 19.4648 23.5574 19.4648C22.7781 19.464 22.146 20.4758 22.146 21.7235ZM8.03328 21.7235C8.03328 22.9704 8.66447 23.9814 9.44464 23.9814C10.2239 23.9814 10.856 22.9704 10.856 21.7235C10.856 20.4767 10.2248 19.4648 9.44464 19.4648C8.66447 19.464 8.03328 20.4758 8.03328 21.7235Z" fill="#292F33"/>
<path d="M23.8398 22.2419C23.8398 15.7491 21.6673 12.3047 16.5006 12.3047C11.3339 12.3047 9.16221 15.7491 9.16221 22.2419C9.16221 27.2544 12.4473 31.318 16.5006 31.318C20.5538 31.318 23.8398 27.2544 23.8398 22.2419Z" fill="#292F33"/>
<path d="M22.5273 32.11C22.5273 32.9711 21.6662 34.6934 19.944 36.4156C18.5826 37.777 17.6026 38.9989 17.6026 38.9989C16.9163 38.9946 15.9665 38.9955 15.2518 38.9981C16.0191 37.2586 17.3848 36.0091 18.0754 35.3185C18.9365 34.4574 20.8051 32.9711 20.8051 31.2489C20.8051 30.3878 22.5273 32.11 22.5273 32.11Z" fill="#66757F"/>
<path d="M17.602 38.9994L15.2563 38.9985C15.6972 37.9988 16.3336 37.167 16.9269 36.5039C17.3617 37.0318 17.7811 37.663 18.1367 38.3639C17.8026 38.7505 17.602 38.9994 17.602 38.9994Z" fill="#292F33"/>
<path d="M10.4735 32.11C10.4735 32.9711 11.3346 34.6934 13.0569 36.4156C14.4183 37.777 15.2096 38.9989 15.2096 38.9989C15.9864 38.9955 16.4307 38.9972 17.793 38.9989C17.0257 37.2595 15.6161 36.0091 14.9255 35.3185C14.0644 34.4574 12.1957 32.9711 12.1957 31.2489C12.1957 30.3878 10.4735 32.11 10.4735 32.11Z" fill="#66757F"/>
<path d="M16.4996 19.8064C19.0786 19.8064 23.4884 18.0463 22.5825 21.5114C22.0538 23.5333 21.3623 23.9922 19.5901 23.7554C17.7611 23.5117 17.8757 22.8805 16.5805 22.8805C15.2854 22.8805 15.2372 23.5117 13.4082 23.7554C11.636 23.9914 10.9446 23.5333 10.4158 21.5114C9.51082 18.0463 13.9206 19.8064 16.4996 19.8064Z" fill="#FFDC5D"/>
<path d="M19.9436 22.638C20.4172 22.638 20.8047 22.2505 20.8047 21.7769V20.9158C20.8047 20.4422 20.4172 20.0547 19.9436 20.0547C19.47 20.0547 19.0825 20.4422 19.0825 20.9158V21.7769C19.0825 22.2505 19.47 22.638 19.9436 22.638ZM13.0547 22.638C13.5283 22.638 13.9158 22.2505 13.9158 21.7769V20.9158C13.9158 20.4422 13.5283 20.0547 13.0547 20.0547C12.5811 20.0547 12.1936 20.4422 12.1936 20.9158V21.7769C12.1936 22.2505 12.5811 22.638 13.0547 22.638Z" fill="#662113"/>
</g>
<defs>
<clipPath id="clip0_19193_136807">
<rect width="31" height="31" fill="white" transform="matrix(-1 0 0 1 32 8)"/>
</clipPath>
</defs>
</svg>
