<svg width="80" height="50" viewBox="0 0 80 50" fill="none" xmlns="http://www.w3.org/2000/svg">
<path d="M0 14C0 12.8954 0.895431 12 2 12H13.9024L27.8049 25.9024V47C27.8049 48.6569 26.4617 50 24.8049 50H3C1.34315 50 0 48.6569 0 47V14Z" fill="#9F522A"/>
<path d="M0 36.0979H27.8049V47.0003C27.8049 48.6572 26.4617 50.0003 24.8049 50.0003H3C1.34315 50.0003 0 48.6572 0 47.0003V36.0979Z" fill="black" fill-opacity="0.2"/>
<g filter="url(#filter0_d_270_17378)">
<path d="M13.9025 12L27.8049 25.9024H15.9025C14.7979 25.9024 13.9025 25.007 13.9025 23.9024V12Z" fill="black" fill-opacity="0.2" shape-rendering="crispEdges"/>
</g>
<path d="M6.97314 39.4202H10.1548C10.8071 39.4202 11.3677 39.5178 11.8364 39.7131C12.3091 39.9084 12.6724 40.1975 12.9263 40.5803C13.1802 40.9631 13.3071 41.4338 13.3071 41.9924C13.3071 42.4495 13.229 42.842 13.0728 43.1702C12.9204 43.4944 12.7036 43.7659 12.4224 43.9846C12.145 44.1995 11.8188 44.3713 11.4438 44.5002L10.8872 44.7932H8.12158L8.10986 43.4221H10.1665C10.4751 43.4221 10.731 43.3674 10.9341 43.2581C11.1372 43.1487 11.2895 42.9963 11.3911 42.801C11.4966 42.6057 11.5493 42.3792 11.5493 42.1213C11.5493 41.8479 11.4985 41.6116 11.397 41.4124C11.2954 41.2131 11.1411 41.0608 10.9341 40.9553C10.727 40.8499 10.4673 40.7971 10.1548 40.7971H8.73096V47.9514H6.97314V39.4202ZM11.7427 47.9514L9.79736 44.1487L11.6548 44.137L13.6235 47.8694V47.9514H11.7427ZM19.4021 45.719C19.4021 45.5667 19.3786 45.4299 19.3317 45.3088C19.2888 45.1838 19.2067 45.0706 19.0856 44.969C18.9646 44.8635 18.7946 44.76 18.5759 44.6584C18.3571 44.5569 18.0739 44.4514 17.7263 44.342C17.3396 44.217 16.9724 44.0764 16.6247 43.9202C16.281 43.7639 15.9763 43.5823 15.7106 43.3752C15.4489 43.1643 15.2419 42.9202 15.0896 42.6428C14.9411 42.3655 14.8669 42.0432 14.8669 41.676C14.8669 41.3206 14.945 40.9983 15.1013 40.7092C15.2575 40.4163 15.4763 40.1663 15.7575 39.9592C16.0388 39.7483 16.3708 39.5862 16.7536 39.4729C17.1403 39.3596 17.5642 39.303 18.0251 39.303C18.654 39.303 19.2028 39.4163 19.6716 39.6428C20.1403 39.8694 20.5036 40.1799 20.7614 40.5745C21.0231 40.969 21.154 41.4202 21.154 41.928H19.4079C19.4079 41.678 19.3552 41.4592 19.2497 41.2717C19.1481 41.0803 18.9919 40.9299 18.781 40.8206C18.5739 40.7112 18.3122 40.6565 17.9958 40.6565C17.6911 40.6565 17.4372 40.7034 17.2341 40.7971C17.031 40.887 16.8786 41.01 16.7771 41.1663C16.6755 41.3186 16.6247 41.4905 16.6247 41.6819C16.6247 41.8264 16.6599 41.9573 16.7302 42.0745C16.8044 42.1917 16.9138 42.301 17.0583 42.4026C17.2028 42.5042 17.3806 42.5999 17.5915 42.6897C17.8024 42.7795 18.0466 42.8674 18.3239 42.9534C18.7888 43.094 19.197 43.2522 19.5485 43.428C19.904 43.6038 20.2009 43.801 20.4392 44.0198C20.6774 44.2385 20.8571 44.4866 20.9782 44.7639C21.0993 45.0413 21.1599 45.3557 21.1599 45.7073C21.1599 46.0784 21.0876 46.4104 20.9431 46.7034C20.7985 46.9963 20.5896 47.2444 20.3161 47.4475C20.0427 47.6506 19.7165 47.8049 19.3376 47.9104C18.9587 48.0159 18.5349 48.0686 18.0661 48.0686C17.6442 48.0686 17.2282 48.0139 16.8181 47.9045C16.4079 47.7913 16.0349 47.6213 15.6989 47.3948C15.3669 47.1682 15.1013 46.8792 14.9021 46.5276C14.7028 46.176 14.6032 45.76 14.6032 45.2795H16.3669C16.3669 45.5452 16.4079 45.7698 16.4899 45.9534C16.572 46.137 16.6872 46.2854 16.8356 46.3987C16.988 46.512 17.1677 46.594 17.3747 46.6448C17.5856 46.6956 17.8161 46.7209 18.0661 46.7209C18.3708 46.7209 18.6208 46.678 18.8161 46.592C19.0153 46.5061 19.1618 46.387 19.2556 46.2346C19.3532 46.0823 19.4021 45.9104 19.4021 45.719Z" fill="white"/>
<defs>
<filter id="filter0_d_270_17378" x="12.9025" y="12" width="15.9025" height="15.9023" filterUnits="userSpaceOnUse" color-interpolation-filters="sRGB">
<feFlood flood-opacity="0" result="BackgroundImageFix"/>
<feColorMatrix in="SourceAlpha" type="matrix" values="0 0 0 0 0 0 0 0 0 0 0 0 0 0 0 0 0 0 127 0" result="hardAlpha"/>
<feOffset dy="1"/>
<feGaussianBlur stdDeviation="0.5"/>
<feComposite in2="hardAlpha" operator="out"/>
<feColorMatrix type="matrix" values="0 0 0 0 0 0 0 0 0 0 0 0 0 0 0 0 0 0 0.1 0"/>
<feBlend mode="normal" in2="BackgroundImageFix" result="effect1_dropShadow_270_17378"/>
<feBlend mode="normal" in="SourceGraphic" in2="effect1_dropShadow_270_17378" result="shape"/>
</filter>
</defs>
</svg>
