<svg width="40" height="40" viewBox="0 0 40 40" fill="none" xmlns="http://www.w3.org/2000/svg">
<g clip-path="url(#clip0_19193_136800)">
<path d="M37.451 10.5679L29.8335 6.40967C29.7042 6.33821 29.5589 6.30075 29.4112 6.30078H24.7027C24.4686 6.30078 24.244 6.3938 24.0785 6.55936C23.9129 6.72493 23.8199 6.94948 23.8199 7.18363C23.8199 8.19825 23.4168 9.17132 22.6994 9.88877C21.9819 10.6062 21.0089 11.0093 19.9942 11.0093C18.9796 11.0093 18.0065 10.6062 17.2891 9.88877C16.5716 9.17132 16.1686 8.19825 16.1686 7.18363C16.1686 6.94948 16.0756 6.72493 15.91 6.55936C15.7444 6.3938 15.5199 6.30078 15.2857 6.30078H10.5772C10.429 6.3005 10.2832 6.33797 10.1535 6.40967L2.53748 10.5679C2.06365 10.8179 1.70815 11.2455 1.54876 11.757C1.38938 12.2685 1.43909 12.8224 1.68701 13.2973L4.52388 18.7136C4.70523 19.0554 4.97684 19.3409 5.30917 19.5391C5.6415 19.7373 6.02181 19.8406 6.40875 19.8377H9.6944V31.9032C9.6944 32.4496 9.91143 32.9735 10.2977 33.3598C10.6841 33.7462 11.208 33.9632 11.7544 33.9632H28.2341C28.7804 33.9632 29.3044 33.7462 29.6907 33.3598C30.077 32.9735 30.2941 32.4496 30.2941 31.9032V19.8377H33.5812C33.9681 19.8406 34.3484 19.7373 34.6808 19.5391C35.0131 19.3409 35.2847 19.0554 35.4661 18.7136L38.3029 13.2973C38.5507 12.8222 38.6002 12.2682 38.4406 11.7567C38.2809 11.2451 37.9251 10.8177 37.451 10.5679ZM6.40433 18.072C6.33974 18.0742 6.27577 18.0589 6.21926 18.0275C6.16275 17.9961 6.11584 17.95 6.08357 17.894L3.25111 12.4807C3.23515 12.4483 3.22591 12.4129 3.22395 12.3769C3.222 12.3408 3.22737 12.3047 3.23975 12.2707C3.25212 12.2367 3.27124 12.2056 3.29595 12.1793C3.32066 12.1529 3.35046 12.1318 3.38354 12.1172L9.6944 8.67122V18.072H6.40433ZM28.5284 31.9032C28.5284 31.9813 28.4974 32.0561 28.4422 32.1113C28.387 32.1665 28.3122 32.1975 28.2341 32.1975H11.7544C11.6763 32.1975 11.6015 32.1665 11.5463 32.1113C11.4911 32.0561 11.4601 31.9813 11.4601 31.9032V8.06647H14.4735C14.6879 9.37522 15.3606 10.5651 16.3713 11.4238C17.3821 12.2824 18.6651 12.7538 19.9913 12.7538C21.3175 12.7538 22.6005 12.2824 23.6113 11.4238C24.622 10.5651 25.2946 9.37522 25.5091 8.06647H28.5284V31.9032ZM36.7388 12.4807L33.902 17.8955C33.8697 17.9514 33.8228 17.9976 33.7663 18.029C33.7098 18.0603 33.6458 18.0757 33.5812 18.0735H30.2941V8.67122L36.6064 12.1143C36.6396 12.1291 36.6694 12.1505 36.6941 12.1772C36.7188 12.2039 36.7379 12.2353 36.7501 12.2695C36.7624 12.3038 36.7675 12.3401 36.7653 12.3764C36.7631 12.4127 36.7536 12.4482 36.7374 12.4807H36.7388Z" fill="black"/>
<path d="M18.5 27.1721C18.5 27.9992 19.1705 28.6721 19.9977 28.6721V28.6721C20.8248 28.6721 21.4954 27.9992 21.4954 27.1721V27.1721C21.4954 26.3449 20.8248 25.6721 19.9977 25.6721V25.6721C19.1705 25.6721 18.5 26.3449 18.5 27.1721V27.1721Z" fill="#10B9D0"/>
<path d="M19.996 24.2521C19.996 24.2521 19.996 23.1327 20.4517 22.5859C20.9075 22.0392 21.403 21.7585 21.8759 21.3649C22.3488 20.9713 22.5194 20.2202 22.5194 19.7147V19.7147C22.5194 18.3211 21.3896 17.1758 19.996 17.1758V17.1758C18.6024 17.1758 17.4727 18.3055 17.4727 19.6991V20.2085" stroke="#10B9D0" stroke-width="2"/>
</g>
<defs>
<clipPath id="clip0_19193_136800">
<rect width="37.668" height="37.668" fill="white" transform="translate(1.16016 1.30078)"/>
</clipPath>
</defs>
</svg>
